{"glyphs":{"0":{"ha":765,"x_min":44,"x_max":753,"o":"m 318 -14 q 111 72 178 -14 q 44 317 44 158 q 57 493 44 407 q 94 656 69 579 q 156 797 119 733 q 242 908 193 861 q 351 981 290 956 q 482 1007 411 1007 q 596 988 546 1007 q 681 931 646 969 q 735 831 717 892 q 753 686 753 769 q 742 513 753 599 q 708 348 731 426 q 651 203 686 269 q 567 89 615 138 q 457 13 519 40 q 318 -14 394 -14 m 335 156 q 397 180 368 156 q 449 246 425 204 q 490 342 472 288 q 522 456 508 396 q 541 578 535 517 q 547 693 547 639 q 526 803 547 768 q 464 838 506 838 q 400 811 429 838 q 347 740 371 785 q 305 640 324 696 q 274 524 286 583 q 256 410 263 465 q 250 313 250 356 q 269 196 250 236 q 335 156 288 156 z "},"1":{"ha":765,"x_min":124,"x_max":676,"o":"m 382 563 q 396 620 388 586 q 415 691 404 654 q 433 757 425 728 q 394 727 421 747 q 346 693 368 707 l 214 610 l 124 756 l 507 992 l 676 992 l 467 0 l 260 0 l 382 563 z "},"2":{"ha":765,"x_min":-33,"x_max":744,"o":"m -33 0 l -4 144 l 319 432 q 422 528 381 486 q 488 604 463 569 q 524 668 513 639 q 535 726 535 697 q 507 804 535 778 q 432 831 479 831 q 367 819 399 831 q 301 785 335 808 q 224 728 267 763 l 125 865 q 277 965 194 925 q 465 1006 360 1006 q 624 971 563 1006 q 715 881 686 936 q 744 764 744 826 q 706 604 744 676 q 603 467 668 532 q 453 333 538 403 l 271 183 l 271 176 l 656 176 l 619 0 l -33 0 z "},"3":{"ha":765,"x_min":10,"x_max":749,"o":"m 272 -14 q 128 0 196 -14 q 10 40 60 14 l 10 221 q 133 170 67 188 q 263 153 200 153 q 353 163 313 153 q 423 192 393 172 q 469 243 453 213 q 485 315 485 274 q 469 375 485 349 q 415 417 453 401 q 310 432 378 432 l 217 432 l 247 582 l 297 582 q 385 590 342 582 q 463 617 428 599 q 519 665 499 635 q 540 740 540 696 q 514 808 540 781 q 429 836 488 836 q 319 814 368 836 q 235 768 271 792 l 149 907 q 290 978 215 951 q 474 1006 364 1006 q 626 976 565 1006 q 718 895 688 946 q 749 779 749 844 q 721 656 749 711 q 639 563 693 600 q 507 513 585 526 l 507 507 q 635 443 582 493 q 688 299 688 393 q 663 184 688 240 q 589 83 639 128 q 460 13 539 39 q 272 -14 382 -14 z "},"4":{"ha":765,"x_min":-17,"x_max":749,"o":"m 340 0 l 383 206 l -17 206 l 15 364 l 538 992 l 749 992 l 617 368 l 732 368 l 697 206 l 582 206 l 539 0 l 340 0 m 207 368 l 418 368 l 457 536 q 476 614 465 572 q 497 691 486 656 q 513 743 507 726 l 506 743 q 481 704 496 725 q 451 662 467 683 q 419 621 436 640 l 207 368 z "},"5":{"ha":765,"x_min":18,"x_max":765,"o":"m 276 -14 q 175 -7 224 -14 q 87 13 126 0 q 18 42 47 26 l 18 224 q 129 176 68 196 q 257 157 190 157 q 362 173 319 157 q 431 215 404 189 q 468 272 457 240 q 479 336 479 304 q 447 426 479 389 q 328 464 414 464 q 247 456 286 464 q 183 442 208 449 l 113 494 l 253 992 l 765 992 l 728 814 l 396 814 l 336 615 q 374 622 353 618 q 422 625 396 625 q 558 597 497 625 q 655 510 619 568 q 690 361 690 451 q 666 217 690 285 q 591 97 642 149 q 463 15 540 44 q 276 -14 385 -14 z "},"6":{"ha":765,"x_min":60,"x_max":782,"o":"m 350 -14 q 190 25 254 -14 q 92 138 125 64 q 60 318 60 213 q 74 479 60 399 q 117 635 89 560 q 187 774 146 710 q 279 885 228 838 q 377 953 325 926 q 492 994 429 981 q 631 1007 554 1007 q 715 1001 674 1007 q 782 989 756 996 l 747 822 q 687 834 722 829 q 618 839 651 839 q 460 804 526 839 q 349 701 393 769 q 276 532 304 633 l 282 532 q 335 590 306 564 q 405 630 365 615 q 493 644 444 644 q 656 581 596 644 q 715 393 715 517 q 698 265 715 335 q 639 131 681 194 q 527 27 597 68 q 350 -14 457 -14 m 360 154 q 426 174 397 154 q 473 225 454 193 q 501 297 492 257 q 511 378 511 336 q 488 455 511 426 q 419 483 465 483 q 347 463 381 483 q 292 411 314 442 q 265 349 271 381 q 263 328 264 339 q 260 308 261 318 q 260 286 260 297 q 267 233 260 257 q 286 192 274 210 q 317 164 299 174 q 360 154 336 154 z "},"7":{"ha":765,"x_min":53,"x_max":825,"o":"m 53 0 l 553 815 l 126 815 l 164 992 l 825 992 l 797 860 l 288 0 l 53 0 z "},"8":{"ha":765,"x_min":38,"x_max":764,"o":"m 349 -14 q 176 19 246 -14 q 72 109 107 53 q 38 238 38 165 q 65 363 38 308 q 146 458 93 418 q 274 526 199 499 q 220 578 246 549 q 178 645 194 607 q 161 729 161 683 q 199 869 161 806 q 309 969 236 932 q 489 1007 382 1007 q 642 976 582 1007 q 733 893 703 944 q 764 781 764 842 q 734 658 764 708 q 656 573 704 607 q 553 519 608 539 q 623 463 589 496 q 678 383 657 429 q 700 272 700 336 q 663 134 700 200 q 547 27 625 68 q 349 -14 469 -14 m 364 140 q 442 159 411 140 q 487 208 472 178 q 501 271 501 238 q 488 339 501 310 q 450 392 474 368 q 394 436 426 417 q 308 391 343 417 q 256 333 274 365 q 239 260 239 301 q 273 173 239 206 q 364 140 307 140 m 442 606 q 508 642 481 621 q 551 692 536 664 q 567 756 567 719 q 540 828 567 801 q 471 854 514 854 q 410 839 435 854 q 372 799 385 824 q 358 742 358 774 q 381 660 358 693 q 442 606 404 626 z "},"9":{"ha":765,"x_min":58,"x_max":740,"o":"m 221 -14 q 131 -7 175 -14 q 58 8 86 0 l 58 182 q 126 163 85 172 q 213 154 167 154 q 340 180 288 154 q 428 249 393 206 q 485 346 463 292 q 521 456 507 400 l 515 456 q 465 399 493 424 q 399 362 436 375 q 315 349 363 349 q 185 383 236 349 q 108 478 133 418 q 83 613 83 538 q 101 735 83 668 q 160 865 118 803 q 275 967 201 926 q 460 1007 349 1007 q 608 973 544 1007 q 706 867 671 939 q 740 679 740 794 q 728 527 740 606 q 693 373 717 449 q 634 231 669 297 q 551 115 599 165 q 488 61 522 85 q 413 21 453 38 q 324 -5 372 4 q 221 -14 276 -14 m 385 510 q 456 531 425 510 q 506 585 486 553 q 531 647 525 617 q 535 678 533 663 q 536 710 536 694 q 526 777 536 749 q 494 822 515 806 q 438 839 472 839 q 372 820 400 839 q 324 770 343 801 q 297 702 306 739 q 288 629 288 665 q 313 540 288 571 q 385 510 339 510 z "},"\u0000":{"ha":0,"x_min":0,"x_max":0,"o":""},"\r":{"ha":361,"x_min":0,"x_max":0,"o":""}," ":{"ha":361,"x_min":0,"x_max":0,"o":""},"!":{"ha":397,"x_min":17,"x_max":439,"o":"m 96 329 l 208 992 l 439 992 l 271 329 l 96 329 m 122 -18 q 40 12 64 -18 q 17 78 17 42 q 48 170 17 128 q 156 213 79 213 q 229 187 201 213 q 257 114 257 161 q 220 19 257 57 q 122 -18 183 -18 z "},"\"":{"ha":629,"x_min":136,"x_max":647,"o":"m 410 633 l 460 992 l 647 992 l 544 633 l 410 633 m 136 633 l 185 992 l 372 992 l 269 633 l 136 633 z "},"#":{"ha":897,"x_min":28,"x_max":904,"o":"m 113 0 l 189 276 l 28 276 l 40 417 l 228 417 l 275 574 l 104 574 l 117 715 l 313 715 l 393 992 l 540 992 l 461 715 l 596 715 l 675 992 l 821 992 l 742 715 l 904 715 l 892 574 l 703 574 l 656 417 l 831 417 l 818 276 l 617 276 l 538 0 l 389 0 l 468 276 l 336 276 l 258 0 l 113 0 m 375 417 l 508 417 l 556 574 l 422 574 l 375 417 z "},"$":{"ha":765,"x_min":35,"x_max":760,"o":"m 275 56 q 144 74 204 60 q 35 114 85 88 l 35 294 q 158 242 88 265 q 308 215 228 218 l 357 433 q 248 489 297 457 q 169 567 199 521 q 140 681 140 614 q 182 822 140 764 q 297 914 224 881 q 464 953 369 947 l 488 1056 l 582 1056 l 560 953 q 664 932 617 946 q 760 892 711 918 l 688 735 q 606 768 649 754 q 524 785 564 782 l 481 582 q 593 528 543 558 q 672 452 643 497 q 701 336 701 407 q 667 200 701 261 q 560 101 633 139 q 367 54 486 63 l 340 -81 l 246 -81 l 275 56 m 403 218 q 453 235 432 222 q 487 267 475 247 q 499 315 499 288 q 491 352 499 336 q 471 379 483 368 q 442 396 458 390 l 403 218 m 429 785 q 385 772 406 782 q 353 743 365 763 q 340 693 340 724 q 346 663 340 676 q 364 638 351 649 q 394 618 376 626 l 429 785 z "},"%":{"ha":1189,"x_min":78,"x_max":1139,"o":"m 157 0 l 894 992 l 1054 992 l 319 0 l 157 0 m 269 383 q 127 440 176 383 q 78 600 78 497 q 87 704 78 649 q 116 813 96 760 q 169 910 136 867 q 251 980 203 954 q 363 1006 299 1006 q 506 951 456 1006 q 557 790 557 897 q 548 688 557 743 q 518 578 539 632 q 464 481 497 525 q 383 410 431 436 q 269 383 335 383 m 282 524 q 319 541 301 524 q 349 588 336 558 q 372 654 363 618 q 385 728 381 690 q 390 799 390 765 q 381 848 390 832 q 351 864 371 864 q 317 847 333 864 q 287 802 300 831 q 265 738 274 774 q 250 664 256 703 q 244 589 244 625 q 254 540 244 557 q 282 524 264 524 m 856 -12 q 709 41 758 -12 q 660 192 660 94 q 669 310 660 250 q 700 423 679 369 q 755 519 721 476 q 835 585 789 561 q 944 610 882 610 q 1088 556 1038 610 q 1139 400 1139 503 q 1130 293 1139 350 q 1100 182 1121 236 q 1047 84 1079 128 q 967 14 1014 40 q 856 -12 919 -12 m 864 128 q 901 145 883 128 q 931 192 918 163 q 953 258 944 222 q 967 332 963 294 q 972 403 972 369 q 963 452 972 436 q 933 468 953 468 q 899 451 915 468 q 869 406 882 435 q 847 342 856 378 q 832 268 838 307 q 826 193 826 229 q 836 144 826 161 q 864 128 846 128 z "},"&":{"ha":983,"x_min":46,"x_max":969,"o":"m 339 -14 q 122 53 199 -14 q 46 243 46 119 q 72 366 46 313 q 151 463 97 419 q 285 547 204 507 q 246 635 258 592 q 233 722 233 679 q 272 880 233 817 q 378 975 311 943 q 528 1007 444 1007 q 669 978 615 1007 q 749 901 724 949 q 774 799 774 854 q 744 676 774 731 q 659 582 714 622 q 526 510 604 542 l 658 332 q 721 428 697 381 q 767 532 744 476 l 969 532 q 910 407 942 467 q 842 294 879 347 q 760 194 804 242 l 899 0 l 661 0 l 613 67 q 492 8 558 31 q 339 -14 426 -14 m 369 160 q 426 165 400 160 q 476 180 453 171 q 519 200 500 189 l 367 422 q 310 382 335 404 q 273 331 286 360 q 260 263 260 303 q 273 213 260 236 q 310 174 286 189 q 369 160 335 160 m 449 624 q 501 653 476 638 q 544 687 525 668 q 573 727 563 706 q 583 775 583 749 q 563 831 583 814 q 515 849 543 849 q 463 833 485 849 q 431 792 442 818 q 421 736 421 767 q 429 674 421 706 q 449 624 438 643 z "},"'":{"ha":354,"x_min":136,"x_max":372,"o":"m 136 633 l 185 992 l 372 992 l 269 633 l 136 633 z "},"(":{"ha":471,"x_min":50,"x_max":569,"o":"m 151 -219 q 95 -93 118 -160 q 61 45 72 -26 q 50 190 50 117 q 72 419 50 311 q 138 625 94 526 q 244 815 181 724 q 392 992 308 906 l 569 992 q 434 821 496 911 q 326 631 372 731 q 256 419 281 531 q 231 183 231 307 q 240 43 231 113 q 267 -92 250 -26 q 310 -219 285 -158 l 151 -219 z "},")":{"ha":471,"x_min":-100,"x_max":419,"o":"m -100 -219 q 35 -49 -26 -139 q 143 142 97 42 q 214 353 189 242 q 239 589 239 465 q 230 729 239 660 q 203 865 221 799 q 160 992 185 931 l 318 992 q 375 865 353 932 q 408 728 397 799 q 419 582 419 657 q 397 353 419 461 q 332 147 375 246 q 225 -42 289 49 q 78 -219 161 -133 l -100 -219 z "},"*":{"ha":757,"x_min":117,"x_max":786,"o":"m 486 392 l 425 621 l 292 432 l 151 543 l 338 711 l 117 774 l 175 935 l 404 817 l 426 1067 l 600 1032 l 524 793 l 786 813 l 774 640 l 544 669 l 653 442 l 486 392 z "},"+":{"ha":794,"x_min":74,"x_max":747,"o":"m 485 564 l 747 564 l 747 415 l 485 415 l 485 154 l 336 154 l 336 415 l 74 415 l 74 564 l 336 564 l 336 828 l 485 828 l 485 564 z "},",":{"ha":396,"x_min":-69,"x_max":261,"o":"m -69 -179 q -21 -63 -44 -124 q 24 56 3 -3 q 63 161 46 114 l 256 161 l 261 146 q 210 41 239 97 q 149 -72 181 -15 q 83 -179 117 -128 l -69 -179 z "},"-":{"ha":447,"x_min":28,"x_max":419,"o":"m 28 288 l 64 457 l 419 457 l 383 288 l 28 288 z "},".":{"ha":396,"x_min":17,"x_max":257,"o":"m 122 -18 q 40 12 64 -18 q 17 78 17 42 q 48 170 17 128 q 156 213 79 213 q 229 187 201 213 q 257 114 257 161 q 220 19 257 57 q 122 -18 183 -18 z "},"/":{"ha":585,"x_min":-61,"x_max":688,"o":"m -61 0 l 488 992 l 688 992 l 139 0 l -61 0 z "},":":{"ha":396,"x_min":17,"x_max":381,"o":"m 246 542 q 164 572 188 542 q 140 638 140 601 q 154 702 140 671 q 199 753 168 733 q 279 772 229 772 q 353 747 325 772 q 381 674 381 721 q 344 579 381 617 q 246 542 307 542 m 122 -18 q 40 12 64 -18 q 17 78 17 42 q 48 170 17 128 q 156 213 79 213 q 229 187 201 213 q 257 114 257 161 q 220 19 257 57 q 122 -18 183 -18 z "},";":{"ha":396,"x_min":-69,"x_max":381,"o":"m -69 -179 q -21 -63 -44 -124 q 24 56 3 -3 q 63 161 46 114 l 256 161 l 261 146 q 210 41 239 97 q 149 -72 181 -15 q 83 -179 117 -128 l -69 -179 m 246 542 q 164 572 188 542 q 140 638 140 601 q 154 702 140 671 q 199 753 168 733 q 279 772 229 772 q 353 747 325 772 q 381 674 381 721 q 344 579 381 617 q 246 542 307 542 z "},"<":{"ha":794,"x_min":74,"x_max":747,"o":"m 747 138 l 74 435 l 74 532 l 747 868 l 747 706 l 283 490 l 747 300 l 747 138 z "},"=":{"ha":794,"x_min":74,"x_max":747,"o":"m 74 547 l 74 694 l 747 694 l 747 547 l 74 547 m 74 283 l 74 432 l 747 432 l 747 283 l 74 283 z "},">":{"ha":794,"x_min":74,"x_max":747,"o":"m 74 300 l 538 490 l 74 706 l 74 868 l 747 532 l 747 435 l 74 138 l 74 300 z "},"?":{"ha":638,"x_min":107,"x_max":682,"o":"m 176 329 q 208 442 189 393 q 263 530 228 490 q 353 607 297 569 q 427 660 399 638 q 469 706 456 683 q 482 758 482 729 q 461 817 482 796 q 392 839 440 839 q 294 819 343 839 q 183 771 244 800 l 121 921 q 259 981 183 956 q 422 1006 335 1006 q 613 946 544 1006 q 682 781 682 886 q 656 662 682 711 q 583 574 629 613 q 478 496 536 535 q 413 447 438 469 q 375 397 389 424 q 351 329 361 369 l 176 329 m 213 -18 q 131 12 154 -18 q 107 78 107 42 q 138 170 107 128 q 246 213 169 213 q 319 187 292 213 q 347 114 347 161 q 310 19 347 57 q 213 -18 274 -18 z "},"@":{"ha":1189,"x_min":63,"x_max":1175,"o":"m 543 -126 q 335 -91 425 -126 q 184 8 244 -56 q 93 157 124 72 q 63 339 63 242 q 97 568 63 465 q 192 750 131 671 q 336 883 254 829 q 515 965 418 938 q 714 992 611 992 q 961 942 858 992 q 1119 797 1064 892 q 1175 569 1175 703 q 1160 441 1175 504 q 1118 323 1146 378 q 1049 227 1090 268 q 956 163 1008 186 q 839 139 903 139 q 744 163 785 139 q 692 239 704 188 l 685 239 q 616 166 656 193 q 511 139 576 139 q 382 188 435 139 q 329 349 329 238 q 345 459 329 404 q 391 563 361 514 q 464 648 421 611 q 563 706 507 685 q 683 726 618 726 q 811 715 758 726 q 906 689 864 704 l 833 404 q 821 352 826 374 q 815 308 815 331 q 826 273 815 283 q 854 263 838 263 q 910 280 883 263 q 957 328 936 297 q 993 398 978 358 q 1017 481 1008 438 q 1025 567 1025 524 q 990 725 1025 658 q 882 828 954 792 q 697 864 810 864 q 542 841 615 864 q 408 774 468 818 q 305 668 349 731 q 238 526 261 606 q 214 354 214 447 q 249 179 214 260 q 360 51 283 99 q 560 3 436 3 q 716 18 646 3 q 858 61 786 33 l 858 -65 q 715 -109 793 -92 q 543 -126 636 -126 m 547 263 q 635 313 601 263 q 692 446 669 364 l 731 596 q 706 601 718 599 q 675 603 693 603 q 590 578 626 603 q 531 516 554 554 q 495 435 507 478 q 483 357 483 393 q 503 283 483 304 q 547 263 522 263 z "},"A":{"ha":872,"x_min":-83,"x_max":789,"o":"m -83 0 l 436 992 l 689 992 l 789 0 l 588 0 l 571 236 l 250 236 l 133 0 l -83 0 m 335 413 l 561 413 l 543 668 q 538 750 540 708 q 536 835 535 792 l 533 835 q 503 760 519 797 q 465 681 486 724 l 335 413 z "},"B":{"ha":861,"x_min":36,"x_max":849,"o":"m 36 0 l 246 992 l 535 992 q 700 969 629 992 q 810 899 771 947 q 849 771 849 850 q 823 651 849 703 q 749 566 797 600 q 632 517 701 532 l 632 511 q 740 445 700 493 q 781 324 781 397 q 729 140 781 211 q 590 34 678 68 q 390 0 501 0 l 36 0 m 401 174 q 490 190 453 174 q 549 240 528 207 q 571 322 571 274 q 540 403 571 375 q 447 432 510 432 l 335 432 l 279 174 l 401 174 m 471 599 q 558 612 521 599 q 615 653 594 625 q 635 726 635 682 q 606 796 635 772 q 519 819 578 819 l 417 819 l 369 599 l 471 599 z "},"C":{"ha":850,"x_min":83,"x_max":906,"o":"m 447 -14 q 246 34 326 -14 q 124 169 165 82 q 83 375 83 257 q 103 552 83 463 q 165 723 124 642 q 268 869 206 804 q 417 970 331 933 q 614 1007 504 1007 q 774 990 708 1007 q 906 936 840 972 l 825 767 q 727 813 778 794 q 614 832 676 832 q 495 805 547 832 q 405 731 443 778 q 342 627 367 685 q 306 507 318 569 q 294 386 294 444 q 341 218 294 274 q 489 163 388 163 q 603 178 546 163 q 718 215 661 193 l 718 39 q 607 4 676 22 q 447 -14 538 -14 z "},"D":{"ha":940,"x_min":36,"x_max":897,"o":"m 36 0 l 246 992 l 514 992 q 797 895 696 992 q 897 617 897 799 q 874 408 897 504 q 804 237 850 313 q 691 108 758 161 q 536 28 624 56 q 342 0 449 0 l 36 0 m 351 174 q 474 197 419 174 q 567 260 528 219 q 633 354 607 300 q 672 473 660 408 q 685 606 685 538 q 634 767 685 715 q 494 819 583 819 l 417 819 l 279 174 l 351 174 z "},"E":{"ha":753,"x_min":36,"x_max":800,"o":"m 36 0 l 246 992 l 800 992 l 764 819 l 417 819 l 371 601 l 694 601 l 657 429 l 333 429 l 279 174 l 626 174 l 590 0 l 36 0 z "},"F":{"ha":738,"x_min":36,"x_max":797,"o":"m 36 0 l 246 992 l 797 992 l 761 819 l 417 819 l 363 564 l 683 564 l 646 392 l 325 392 l 243 0 l 36 0 z "},"G":{"ha":958,"x_min":83,"x_max":942,"o":"m 450 -14 q 181 85 278 -14 q 83 372 83 183 q 107 567 83 474 q 178 741 131 661 q 294 881 225 821 q 457 974 364 940 q 664 1007 550 1007 q 808 991 742 1007 q 942 940 875 975 l 864 769 q 764 813 814 797 q 654 829 714 829 q 495 790 563 829 q 383 687 428 751 q 317 544 339 622 q 294 389 294 467 q 315 265 294 315 q 380 188 336 214 q 494 163 424 163 q 555 167 529 163 q 610 179 581 172 l 654 382 l 474 382 l 511 557 l 893 557 l 783 40 q 640 2 715 18 q 450 -14 564 -14 z "},"H":{"ha":972,"x_min":36,"x_max":979,"o":"m 36 0 l 246 992 l 453 992 l 371 603 l 690 603 l 772 992 l 979 992 l 769 0 l 563 0 l 653 428 l 333 428 l 243 0 l 36 0 z "},"I":{"ha":532,"x_min":-40,"x_max":608,"o":"m -40 0 l -15 119 l 111 175 l 247 817 l 144 872 l 169 992 l 608 992 l 583 872 l 454 817 l 318 175 l 424 119 l 399 0 l -40 0 z "},"J":{"ha":460,"x_min":-218,"x_max":468,"o":"m -92 -292 q -164 -286 -135 -292 q -218 -274 -193 -281 l -218 -101 q -167 -111 -194 -107 q -107 -115 -140 -115 q -29 -97 -62 -115 q 27 -41 4 -79 q 63 56 50 -3 l 261 992 l 468 992 l 263 26 q 193 -158 239 -87 q 77 -260 147 -228 q -92 -292 7 -292 z "},"K":{"ha":851,"x_min":36,"x_max":979,"o":"m 36 0 l 246 992 l 453 992 l 349 513 l 454 654 l 735 992 l 979 992 l 576 517 l 774 0 l 544 0 l 401 401 l 317 354 l 243 0 l 36 0 z "},"L":{"ha":719,"x_min":36,"x_max":626,"o":"m 36 0 l 246 992 l 453 992 l 279 174 l 626 174 l 590 0 l 36 0 z "},"M":{"ha":1222,"x_min":36,"x_max":1229,"o":"m 36 0 l 246 992 l 519 992 l 564 250 l 569 250 l 942 992 l 1229 992 l 1019 0 l 829 0 l 928 469 q 951 570 938 517 q 977 676 964 624 q 1001 768 990 728 l 996 768 l 610 0 l 419 0 l 378 768 l 372 768 q 361 688 369 739 q 342 578 353 638 q 319 461 332 518 l 222 0 l 36 0 z "},"N":{"ha":1049,"x_min":36,"x_max":1056,"o":"m 36 0 l 246 992 l 488 992 l 718 261 l 724 261 q 736 337 729 290 q 752 433 743 383 q 769 522 761 483 l 869 992 l 1056 992 l 846 0 l 614 0 l 372 750 l 365 750 q 360 710 364 742 q 349 636 356 679 q 335 548 343 593 q 321 467 328 503 l 222 0 l 36 0 z "},"O":{"ha":1014,"x_min":83,"x_max":971,"o":"m 451 -14 q 249 33 331 -14 q 125 165 167 81 q 83 364 83 250 q 97 519 83 442 q 140 668 111 596 q 210 801 168 740 q 311 909 253 863 q 444 981 369 956 q 608 1007 518 1007 q 880 906 789 1007 q 971 636 971 804 q 958 476 971 556 q 917 324 944 397 q 847 190 889 251 q 747 83 804 128 q 615 12 689 38 q 451 -14 542 -14 m 467 163 q 544 177 507 163 q 615 220 582 192 q 674 290 647 249 q 719 383 700 331 q 749 497 739 435 q 760 631 760 560 q 717 777 760 722 q 592 832 675 832 q 510 815 549 832 q 438 767 471 799 q 378 693 406 736 q 333 598 351 650 q 304 487 314 546 q 294 364 294 428 q 315 253 294 299 q 374 185 335 208 q 467 163 413 163 z "},"P":{"ha":847,"x_min":36,"x_max":854,"o":"m 36 0 l 246 992 l 522 992 q 716 956 643 992 q 822 854 789 919 q 854 703 854 789 q 822 549 854 614 q 731 440 789 483 q 593 374 672 396 q 422 353 514 353 l 317 353 l 243 0 l 36 0 m 439 525 q 548 545 501 525 q 620 604 594 565 q 646 697 646 643 q 613 790 646 760 q 514 819 579 819 l 417 819 l 354 525 l 439 525 z "},"Q":{"ha":1014,"x_min":83,"x_max":971,"o":"m 469 -14 q 460 -14 465 -14 q 451 -14 456 -14 q 249 33 331 -14 q 125 165 167 81 q 83 364 83 250 q 97 519 83 442 q 140 668 111 596 q 210 801 168 740 q 311 909 253 863 q 444 981 369 956 q 608 1007 518 1007 q 880 906 789 1007 q 971 636 971 804 q 959 485 971 560 q 923 341 947 410 q 862 213 899 272 q 775 106 825 153 q 661 31 725 60 l 833 -236 l 590 -236 l 469 -14 m 467 163 q 544 177 507 163 q 615 220 582 192 q 674 290 647 249 q 719 383 700 331 q 749 497 739 435 q 760 631 760 560 q 717 777 760 722 q 592 832 675 832 q 510 815 549 832 q 438 767 471 799 q 378 693 406 736 q 333 598 351 650 q 304 487 314 546 q 294 364 294 428 q 315 253 294 299 q 374 185 335 208 q 467 163 413 163 z "},"R":{"ha":846,"x_min":36,"x_max":811,"o":"m 36 0 l 246 992 l 489 992 q 724 928 638 992 q 811 719 811 864 q 783 582 811 642 q 705 483 754 522 q 593 421 656 443 l 769 0 l 544 0 l 404 381 l 324 381 l 243 0 l 36 0 m 413 551 q 492 561 457 551 q 551 590 526 571 q 588 640 575 610 q 600 708 600 669 q 568 792 600 764 q 467 819 536 819 l 417 819 l 360 551 l 413 551 z "},"S":{"ha":736,"x_min":28,"x_max":753,"o":"m 269 -14 q 133 3 194 -14 q 28 47 71 19 l 28 233 q 149 179 89 199 q 271 160 208 160 q 335 166 306 160 q 385 186 364 172 q 419 220 407 200 q 432 268 432 240 q 417 333 432 307 q 375 382 401 360 q 313 429 349 404 q 232 497 271 460 q 168 585 193 535 q 143 704 143 636 q 167 826 143 771 q 235 921 190 881 q 343 983 281 961 q 483 1006 406 1006 q 626 989 561 1006 q 753 939 692 972 l 679 781 q 578 818 626 806 q 483 831 531 831 q 433 823 456 831 q 392 801 410 815 q 365 765 375 786 q 356 719 356 744 q 370 660 356 685 q 412 613 385 635 q 478 565 439 592 q 569 488 533 529 q 624 399 606 447 q 642 293 642 351 q 613 158 642 215 q 532 62 583 100 q 413 5 481 24 q 269 -14 346 -14 z "},"T":{"ha":738,"x_min":114,"x_max":836,"o":"m 181 0 l 353 817 l 114 817 l 151 992 l 836 992 l 799 817 l 560 817 l 388 0 l 181 0 z "},"U":{"ha":960,"x_min":96,"x_max":972,"o":"m 410 -14 q 237 21 307 -14 q 131 119 167 56 q 96 265 96 182 q 98 315 96 288 q 106 365 100 342 l 239 992 l 446 992 l 314 368 q 306 323 308 344 q 303 283 303 301 q 335 194 303 225 q 431 163 367 163 q 531 185 492 163 q 595 255 571 208 q 633 369 619 301 l 765 992 l 972 992 l 836 350 q 764 163 814 244 q 627 33 714 81 q 410 -14 540 -14 z "},"V":{"ha":819,"x_min":125,"x_max":944,"o":"m 211 0 l 125 992 l 325 992 l 360 394 q 362 332 361 367 q 362 263 363 297 q 358 203 361 229 l 364 203 q 398 298 379 249 q 439 394 417 347 l 731 992 l 944 992 l 438 0 l 211 0 z "},"W":{"ha":1242,"x_min":125,"x_max":1372,"o":"m 156 0 l 125 992 l 319 992 l 324 450 q 322 334 324 399 q 314 215 319 269 l 319 215 q 363 331 339 269 q 404 436 386 393 l 654 992 l 838 992 l 851 436 q 852 375 853 413 q 850 295 851 338 q 846 215 849 253 l 851 215 q 879 297 864 254 q 910 380 894 339 q 939 451 926 421 l 1163 992 l 1372 992 l 933 0 l 699 0 l 688 451 q 685 552 686 513 q 685 624 685 592 q 686 690 685 656 l 681 690 q 644 585 663 635 q 604 488 625 535 l 385 0 l 156 0 z "},"X":{"ha":842,"x_min":-79,"x_max":950,"o":"m -79 0 l 311 518 l 150 992 l 367 992 l 471 640 l 717 992 l 950 992 l 581 500 l 763 0 l 538 0 l 421 368 l 153 0 l -79 0 z "},"Y":{"ha":783,"x_min":126,"x_max":911,"o":"m 206 0 l 286 379 l 126 992 l 338 992 l 425 590 l 679 992 l 911 992 l 492 379 l 411 0 l 206 0 z "},"Z":{"ha":744,"x_min":-42,"x_max":814,"o":"m -42 0 l -15 136 l 511 818 l 143 818 l 179 992 l 814 992 l 786 854 l 256 174 l 660 174 l 624 0 l -42 0 z "},"[":{"ha":460,"x_min":-25,"x_max":554,"o":"m -25 -219 l 233 992 l 554 992 l 524 849 l 378 849 l 181 -76 l 326 -76 l 296 -219 l -25 -219 z "},"\\":{"ha":585,"x_min":150,"x_max":478,"o":"m 297 0 l 150 992 l 326 992 l 478 0 l 297 0 z "},"]":{"ha":460,"x_min":-93,"x_max":485,"o":"m -93 -219 l -62 -76 l 82 -76 l 279 849 l 133 849 l 164 992 l 485 992 l 226 -219 l -93 -219 z "},"^":{"ha":765,"x_min":24,"x_max":731,"o":"m 24 353 l 443 997 l 543 997 l 731 353 l 579 353 l 461 782 l 189 353 l 24 353 z "},"_":{"ha":556,"x_min":-126,"x_max":451,"o":"m -126 -219 l -106 -125 l 451 -125 l 431 -219 l -126 -219 z "},"`":{"ha":447,"x_min":201,"x_max":490,"o":"m 365 842 q 306 906 338 869 q 246 981 274 943 q 201 1050 218 1018 l 201 1064 l 413 1064 q 432 999 421 1033 q 458 928 443 964 q 490 858 474 893 l 490 842 l 365 842 z "},"a":{"ha":825,"x_min":61,"x_max":801,"o":"m 275 -14 q 172 13 221 -14 q 92 101 122 40 q 61 261 61 161 q 77 408 61 335 q 123 547 93 482 q 196 663 153 613 q 294 743 239 714 q 413 772 349 772 q 497 758 461 772 q 558 719 532 744 q 600 661 583 694 l 606 661 l 644 758 l 801 758 l 640 0 l 488 0 l 497 99 l 492 99 q 433 40 465 65 q 363 1 401 15 q 275 -14 324 -14 m 356 151 q 433 185 397 151 q 495 271 469 218 q 532 382 521 324 q 540 437 538 410 q 542 496 542 464 q 517 576 542 544 q 447 607 492 607 q 390 588 417 607 q 341 535 364 568 q 302 458 318 501 q 277 367 286 415 q 268 271 268 319 q 291 181 268 211 q 356 151 314 151 z "},"b":{"ha":826,"x_min":25,"x_max":765,"o":"m 414 -14 q 331 0 367 -14 q 269 39 294 14 q 226 97 243 64 l 221 97 l 182 0 l 25 0 l 249 1056 l 453 1056 l 411 860 q 396 795 406 832 q 375 722 386 758 q 354 657 364 685 l 360 657 q 411 714 385 688 q 472 756 438 740 q 551 772 506 772 q 656 745 607 772 q 735 658 704 718 q 765 497 765 597 q 749 350 765 424 q 703 211 733 276 q 631 95 674 146 q 533 15 588 44 q 414 -14 478 -14 m 379 151 q 436 171 410 151 q 485 224 463 190 q 524 300 508 257 q 549 392 540 343 q 558 488 558 440 q 536 577 558 547 q 469 607 514 607 q 410 590 436 607 q 363 544 383 572 q 328 480 343 515 q 303 406 313 444 q 290 333 294 368 q 285 271 285 299 q 310 184 285 217 q 379 151 336 151 z "},"c":{"ha":671,"x_min":61,"x_max":685,"o":"m 343 -14 q 201 15 265 -14 q 99 104 136 43 q 61 265 61 165 q 78 422 61 347 q 128 561 96 497 q 210 672 161 625 q 322 746 258 719 q 463 772 386 772 q 584 760 531 772 q 685 724 638 747 l 622 568 q 551 595 586 583 q 471 607 515 607 q 385 579 422 607 q 321 504 347 551 q 281 399 294 457 q 268 282 268 342 q 282 210 268 239 q 322 166 296 181 q 385 151 347 151 q 480 167 436 151 q 571 207 524 183 l 571 40 q 469 1 524 15 q 343 -14 414 -14 z "},"d":{"ha":825,"x_min":61,"x_max":864,"o":"m 275 -14 q 172 13 221 -14 q 92 101 122 40 q 61 263 61 161 q 77 410 61 336 q 123 549 93 483 q 196 664 153 614 q 294 743 239 714 q 413 772 349 772 q 490 758 458 772 q 544 718 521 743 q 585 661 567 693 l 590 661 q 592 691 590 665 q 599 751 594 717 q 608 813 603 785 l 660 1056 l 864 1056 l 640 0 l 485 0 l 497 99 l 492 99 q 433 40 465 65 q 363 1 401 15 q 275 -14 324 -14 m 361 151 q 419 169 393 151 q 465 215 444 186 q 499 279 485 243 q 523 353 514 315 q 537 426 532 390 q 542 488 542 461 q 517 574 542 542 q 447 607 492 607 q 390 588 417 607 q 341 535 364 568 q 302 458 318 501 q 277 367 286 415 q 268 271 268 319 q 292 181 268 211 q 361 151 317 151 z "},"e":{"ha":774,"x_min":61,"x_max":739,"o":"m 361 -14 q 205 18 272 -14 q 99 115 138 50 q 61 279 61 181 q 88 463 61 375 q 169 621 115 551 q 301 731 222 690 q 485 772 381 772 q 676 714 613 772 q 739 565 739 656 q 712 457 739 506 q 631 374 685 408 q 496 320 578 339 q 303 301 414 301 l 268 301 q 267 287 267 293 q 267 274 267 281 q 302 176 267 213 q 401 140 338 140 q 510 154 461 140 q 625 199 558 168 l 625 44 q 504 1 565 15 q 361 -14 443 -14 m 321 439 q 449 456 400 439 q 520 501 497 472 q 543 561 543 529 q 524 609 543 593 q 472 625 506 625 q 397 601 435 625 q 331 536 360 578 q 290 439 303 494 l 321 439 z "},"f":{"ha":518,"x_min":-149,"x_max":669,"o":"m -31 -333 q -95 -328 -62 -333 q -149 -317 -128 -324 l -149 -153 q -108 -163 -126 -160 q -71 -167 -90 -167 q 2 -139 -29 -167 q 46 -51 33 -111 l 185 603 l 74 603 l 94 701 l 218 758 l 231 815 q 270 932 246 885 q 329 1008 294 979 q 409 1049 364 1036 q 510 1063 454 1063 q 597 1053 557 1063 q 669 1029 636 1044 l 615 878 q 574 892 596 886 q 525 899 553 899 q 463 872 486 899 q 431 800 439 844 l 422 758 l 571 758 l 538 603 l 389 603 l 243 -82 q 197 -208 229 -151 q 110 -299 165 -265 q -31 -333 56 -333 z "},"g":{"ha":825,"x_min":18,"x_max":801,"o":"m 265 -333 q 125 -320 181 -333 q 18 -285 69 -307 l 18 -107 q 92 -138 54 -125 q 170 -158 129 -151 q 254 -165 211 -165 q 370 -133 325 -165 q 433 -31 415 -100 l 439 -10 q 456 48 446 15 q 472 101 467 81 l 467 101 q 414 44 443 71 q 349 2 385 18 q 265 -14 313 -14 q 165 15 211 -14 q 90 105 118 44 q 61 261 61 165 q 77 408 61 335 q 124 547 93 482 q 197 663 154 613 q 292 743 239 714 q 408 772 346 772 q 492 758 458 772 q 552 720 526 744 q 600 661 578 696 l 606 661 l 644 758 l 801 758 l 636 -18 q 559 -206 611 -137 q 433 -304 507 -275 q 265 -333 360 -333 m 364 151 q 417 167 393 151 q 460 208 440 182 q 496 268 481 235 q 521 339 511 301 q 536 415 531 376 q 542 488 542 453 q 517 574 542 542 q 449 607 492 607 q 390 588 418 607 q 340 535 363 568 q 302 458 318 501 q 277 367 286 415 q 268 271 268 319 q 294 181 268 211 q 364 151 319 151 z "},"h":{"ha":839,"x_min":25,"x_max":768,"o":"m 25 0 l 249 1056 l 453 1056 l 414 872 q 397 801 408 842 q 375 723 386 761 q 354 657 364 685 l 360 657 q 419 717 388 692 q 490 758 451 743 q 572 772 528 772 q 681 745 638 772 q 747 669 725 718 q 768 554 768 621 q 764 498 768 529 q 753 432 760 467 l 663 0 l 458 0 l 551 443 q 560 487 557 467 q 563 524 563 507 q 544 587 563 567 q 489 607 525 607 q 406 567 443 607 q 341 461 368 528 q 296 314 314 394 l 229 0 l 25 0 z "},"i":{"ha":413,"x_min":25,"x_max":443,"o":"m 25 0 l 186 758 l 390 758 l 229 0 l 25 0 m 321 853 q 248 872 278 853 q 218 936 218 890 q 233 1001 218 975 q 275 1042 247 1028 q 342 1056 303 1056 q 413 1038 382 1056 q 443 974 443 1019 q 413 886 443 919 q 321 853 383 853 z "},"j":{"ha":413,"x_min":-179,"x_max":444,"o":"m -61 -333 q -126 -328 -93 -333 q -179 -317 -158 -324 l -179 -153 q -139 -163 -157 -160 q -101 -167 -121 -167 q -50 -155 -74 -167 q -10 -117 -26 -143 q 15 -51 7 -92 l 188 758 l 392 758 l 213 -82 q 167 -208 199 -151 q 80 -299 135 -265 q -61 -333 25 -333 m 322 853 q 249 872 279 853 q 219 936 219 890 q 234 1001 219 975 q 276 1042 249 1028 q 343 1056 304 1056 q 414 1038 383 1056 q 444 974 444 1019 q 415 886 444 919 q 322 853 385 853 z "},"k":{"ha":789,"x_min":25,"x_max":857,"o":"m 25 0 l 249 1056 l 453 1056 l 353 585 q 332 505 346 550 q 311 436 318 460 l 317 436 l 624 758 l 857 758 l 519 417 l 713 0 l 485 0 l 361 285 l 279 236 l 229 0 l 25 0 z "},"l":{"ha":413,"x_min":25,"x_max":453,"o":"m 25 0 l 249 1056 l 453 1056 l 229 0 l 25 0 z "},"m":{"ha":1257,"x_min":25,"x_max":1186,"o":"m 25 0 l 186 758 l 342 758 l 328 618 l 333 618 q 398 699 363 664 q 476 753 433 733 q 572 772 519 772 q 693 731 650 772 q 750 618 736 690 l 756 618 q 820 699 785 664 q 900 753 856 733 q 997 772 944 772 q 1139 713 1092 772 q 1186 554 1186 654 q 1182 498 1186 529 q 1171 432 1178 467 l 1081 0 l 876 0 l 969 443 q 978 487 975 467 q 981 524 981 507 q 964 587 981 567 q 914 607 947 607 q 849 585 879 607 q 795 522 819 563 q 752 429 771 482 q 721 315 733 376 l 656 0 l 451 0 l 544 443 q 553 487 550 467 q 556 524 556 507 q 539 587 556 567 q 489 607 522 607 q 424 584 454 607 q 370 521 394 561 q 327 428 346 481 q 296 314 308 375 l 229 0 l 25 0 z "},"n":{"ha":839,"x_min":25,"x_max":768,"o":"m 25 0 l 186 758 l 342 758 l 328 618 l 333 618 q 398 699 363 664 q 476 753 433 733 q 572 772 519 772 q 681 745 638 772 q 747 669 725 718 q 768 554 768 621 q 764 498 768 529 q 753 432 760 467 l 663 0 l 458 0 l 551 443 q 560 487 557 467 q 563 524 563 507 q 544 587 563 567 q 489 607 525 607 q 406 567 443 607 q 341 461 368 528 q 296 314 314 394 l 229 0 l 25 0 z "},"o":{"ha":813,"x_min":61,"x_max":751,"o":"m 351 -14 q 201 22 267 -14 q 98 122 135 57 q 61 278 61 188 q 77 432 61 358 q 125 567 93 506 q 206 675 157 629 q 319 747 254 721 q 464 772 383 772 q 617 737 553 772 q 716 634 681 701 q 751 472 751 567 q 736 324 751 396 q 690 190 721 251 q 611 83 658 129 q 499 12 564 38 q 351 -14 433 -14 m 368 153 q 429 170 401 153 q 479 218 457 188 q 516 289 501 249 q 538 376 531 329 q 546 472 546 424 q 537 541 546 511 q 506 588 528 571 q 449 606 485 606 q 382 585 411 606 q 331 530 353 564 q 295 453 310 496 q 274 365 281 410 q 267 278 267 319 q 292 185 267 217 q 368 153 317 153 z "},"p":{"ha":826,"x_min":-46,"x_max":765,"o":"m -46 -333 l 186 758 l 342 758 l 331 643 l 336 643 q 391 706 360 676 q 463 753 422 735 q 551 772 503 772 q 656 745 607 772 q 735 658 704 718 q 765 496 765 597 q 749 349 765 422 q 703 210 733 275 q 631 94 674 144 q 533 15 588 44 q 414 -14 478 -14 q 336 1 368 -14 q 282 41 304 15 q 242 97 260 67 l 236 97 q 225 -4 232 42 q 207 -103 218 -50 l 158 -333 l -46 -333 m 379 151 q 436 171 410 151 q 485 224 463 190 q 524 300 508 257 q 549 392 540 343 q 558 488 558 440 q 536 577 558 547 q 469 607 514 607 q 410 590 436 607 q 363 545 383 574 q 328 481 343 517 q 303 407 313 444 q 290 334 294 369 q 285 271 285 299 q 310 184 285 217 q 379 151 336 151 z "},"q":{"ha":825,"x_min":61,"x_max":801,"o":"m 415 -104 q 431 -42 421 -79 q 452 33 440 -6 q 472 101 464 72 l 467 101 q 414 44 443 71 q 349 2 385 18 q 265 -14 313 -14 q 169 13 215 -14 q 92 101 122 40 q 61 261 61 161 q 77 408 61 335 q 123 547 93 482 q 196 663 153 613 q 294 743 239 714 q 413 772 349 772 q 492 759 458 772 q 551 721 525 746 q 600 661 578 696 l 606 661 l 644 758 l 801 758 l 569 -333 l 365 -333 l 415 -104 m 363 151 q 420 169 394 151 q 466 215 446 186 q 500 279 486 243 q 524 353 514 315 q 538 426 533 390 q 542 488 542 461 q 517 574 542 542 q 447 607 492 607 q 390 588 417 607 q 341 535 364 568 q 302 458 318 501 q 277 367 286 415 q 268 271 268 319 q 293 181 268 211 q 363 151 318 151 z "},"r":{"ha":585,"x_min":25,"x_max":636,"o":"m 25 0 l 186 758 l 342 758 l 328 618 l 335 618 q 401 701 365 667 q 480 753 438 735 q 571 772 522 772 q 606 770 588 772 q 636 765 625 768 l 592 568 q 563 576 581 572 q 524 579 544 579 q 451 564 486 579 q 388 519 417 549 q 336 444 358 489 q 301 339 314 399 l 229 0 l 25 0 z "},"s":{"ha":657,"x_min":15,"x_max":629,"o":"m 243 -14 q 117 -3 171 -14 q 15 31 63 7 l 15 199 q 121 153 67 169 q 232 138 175 138 q 292 147 264 138 q 338 174 321 156 q 356 219 356 192 q 347 253 356 239 q 313 286 338 268 q 242 331 289 304 q 162 385 194 357 q 112 448 129 413 q 94 531 94 483 q 129 663 94 610 q 228 744 164 717 q 383 772 293 772 q 510 758 449 772 q 629 708 571 743 l 563 563 q 477 603 522 586 q 388 619 432 619 q 328 603 354 619 q 301 556 301 588 q 311 523 301 538 q 343 494 321 508 q 404 458 365 479 q 486 406 450 435 q 542 340 522 378 q 563 250 563 301 q 523 105 563 164 q 412 16 483 46 q 243 -14 340 -14 z "},"t":{"ha":569,"x_min":64,"x_max":596,"o":"m 278 -14 q 135 24 189 -14 q 81 161 81 63 q 83 197 81 178 q 89 238 85 217 l 167 603 l 64 603 l 83 703 l 217 760 l 306 919 l 438 919 l 404 758 l 596 758 l 563 603 l 371 603 l 293 238 q 290 218 292 228 q 289 201 289 208 q 306 163 289 175 q 349 151 322 151 q 402 158 376 151 q 458 175 428 164 l 458 22 q 381 -3 426 7 q 278 -14 335 -14 z "},"u":{"ha":839,"x_min":75,"x_max":815,"o":"m 268 -14 q 160 13 203 -14 q 96 89 117 40 q 75 204 75 138 q 79 269 75 229 q 92 349 83 308 l 178 758 l 382 758 l 289 315 q 281 272 283 293 q 278 235 278 251 q 297 172 278 192 q 351 151 315 151 q 435 191 399 151 q 500 297 472 231 q 544 444 528 364 l 611 758 l 815 758 l 654 0 l 499 0 l 513 140 l 506 140 q 442 60 476 96 q 364 6 407 25 q 268 -14 321 -14 z "},"v":{"ha":711,"x_min":69,"x_max":792,"o":"m 163 0 l 69 758 l 269 758 l 300 361 q 302 317 301 344 q 303 259 303 289 q 304 204 304 229 l 311 204 q 330 256 319 228 q 351 312 340 285 q 371 356 363 339 l 572 758 l 792 758 l 382 0 l 163 0 z "},"w":{"ha":1094,"x_min":85,"x_max":1165,"o":"m 119 0 l 85 758 l 275 758 l 278 422 q 277 312 278 367 q 271 193 276 257 l 276 193 q 301 270 286 228 q 330 347 317 313 q 349 394 343 382 l 506 758 l 728 758 l 728 394 q 727 299 728 347 q 721 193 726 250 l 728 193 q 752 268 738 225 q 782 353 767 311 q 808 422 797 396 l 957 758 l 1165 758 l 806 0 l 582 0 l 578 353 q 578 423 578 382 q 581 507 579 464 q 585 583 583 550 l 576 583 q 551 509 565 550 q 522 431 536 468 q 497 367 508 393 l 339 0 l 119 0 z "},"x":{"ha":738,"x_min":-68,"x_max":806,"o":"m -68 0 l 257 389 l 104 758 l 322 758 l 400 532 l 565 758 l 806 758 l 489 378 l 654 0 l 433 0 l 349 232 l 169 0 l -68 0 z "},"y":{"ha":721,"x_min":-96,"x_max":793,"o":"m 4 -333 q -56 -330 -32 -333 q -96 -321 -79 -326 l -96 -158 q -59 -164 -78 -161 q -17 -167 -40 -167 q 90 -129 49 -167 q 163 -33 132 -92 l 181 0 l 69 758 l 269 758 l 307 407 q 313 340 311 376 q 315 270 314 304 q 315 208 315 236 l 321 208 q 340 260 331 232 q 363 322 350 288 q 394 393 376 356 l 571 758 l 793 758 l 332 -108 q 241 -235 292 -185 q 131 -309 190 -285 q 4 -333 72 -333 z "},"z":{"ha":632,"x_min":-32,"x_max":656,"o":"m -32 0 l -8 122 l 382 600 l 113 600 l 147 758 l 656 758 l 626 622 l 243 158 l 540 158 l 507 0 l -32 0 z "},"{":{"ha":493,"x_min":-6,"x_max":589,"o":"m 321 -219 q 143 -172 196 -219 q 90 -51 90 -125 q 93 -7 90 -28 q 100 33 96 14 l 126 158 q 133 189 129 174 q 136 217 136 204 q 100 288 136 264 q -6 311 64 311 l 25 467 q 156 495 107 467 q 218 589 204 524 l 260 782 q 306 898 275 851 q 390 968 336 944 q 532 992 444 992 l 589 992 l 556 839 q 473 819 504 838 q 429 743 442 801 l 385 542 q 320 429 368 467 q 197 382 272 392 l 197 376 q 283 320 254 358 q 311 229 311 282 q 308 193 311 211 q 301 153 306 175 l 276 32 q 274 13 275 22 q 272 -3 272 4 q 295 -53 272 -39 q 357 -67 318 -67 l 357 -219 l 321 -219 z "},"|":{"ha":765,"x_min":308,"x_max":457,"o":"m 308 -315 l 308 1051 l 457 1051 l 457 -315 l 308 -315 z "},"}":{"ha":493,"x_min":-68,"x_max":500,"o":"m -68 -67 q -7 -58 -33 -65 q 38 -30 19 -50 q 65 29 57 -10 l 110 231 q 174 343 126 306 q 297 390 222 381 l 297 396 q 212 452 240 414 q 183 543 183 490 q 186 579 183 561 q 193 619 189 597 l 218 740 q 222 760 221 751 q 222 775 222 768 q 197 825 222 811 q 124 839 172 839 l 151 992 l 174 992 q 308 970 257 992 q 381 911 358 949 q 404 824 404 874 q 401 780 404 801 q 394 739 399 758 l 368 614 q 362 583 365 599 q 358 556 358 568 q 394 485 358 508 q 500 461 431 461 l 469 306 q 340 277 388 306 q 276 183 292 249 l 235 -10 q 189 -126 219 -79 q 104 -196 158 -172 q -37 -219 50 -219 l -68 -219 l -68 -67 z "},"~":{"ha":794,"x_min":74,"x_max":747,"o":"m 386 418 q 299 448 335 440 q 232 456 264 456 q 151 432 193 456 q 74 374 108 408 l 74 531 q 152 585 108 567 q 247 604 196 604 q 328 597 288 604 q 435 561 369 589 q 522 531 486 539 q 589 524 558 524 q 671 547 629 524 q 747 606 713 571 l 747 449 q 669 394 713 413 q 574 375 626 375 q 492 383 533 375 q 386 418 451 392 z "}," ":{"ha":361,"x_min":0,"x_max":0,"o":""},"¡":{"ha":397,"x_min":-50,"x_max":372,"o":"m -50 -251 l 124 411 l 288 411 l 181 -251 l -50 -251 m 233 528 q 160 553 188 528 q 132 626 132 579 q 169 721 132 683 q 267 758 206 758 q 349 728 325 758 q 372 663 372 699 q 341 570 372 613 q 233 528 310 528 z "},"¢":{"ha":765,"x_min":111,"x_max":735,"o":"m 296 129 q 163 215 215 151 q 111 396 111 278 q 126 541 111 471 q 169 672 140 611 q 239 781 197 733 q 335 858 281 828 q 456 899 389 889 l 478 1006 l 606 1006 l 582 899 q 663 882 626 893 q 735 854 700 871 l 672 699 q 601 726 636 714 q 521 738 565 738 q 435 710 472 738 q 371 635 397 682 q 331 530 344 588 q 318 413 318 472 q 349 315 318 349 q 435 282 379 282 q 530 298 486 282 q 621 338 574 314 l 621 171 q 528 134 578 149 q 418 117 479 119 l 390 -14 l 263 -14 l 296 129 z "},"£":{"ha":765,"x_min":-8,"x_max":842,"o":"m 25 167 q 99 199 65 178 q 156 257 132 221 q 190 346 179 293 l 206 417 l 75 417 l 106 565 l 236 565 l 269 733 q 330 882 288 821 q 438 975 372 943 q 592 1007 503 1007 q 730 990 665 1007 q 842 949 794 972 l 765 792 q 683 824 725 811 q 604 838 642 838 q 521 810 553 838 q 475 721 489 783 l 443 565 l 646 565 l 615 417 l 413 417 l 400 360 q 349 246 386 292 q 258 176 311 200 l 703 176 l 665 0 l -8 0 l 25 167 z "},"¤":{"ha":765,"x_min":78,"x_max":718,"o":"m 531 257 q 467 232 501 242 q 397 222 433 222 q 326 231 360 222 q 263 257 292 239 l 178 174 l 79 272 l 165 357 q 138 421 147 388 q 129 490 129 454 q 139 560 129 526 q 165 624 149 594 l 78 710 l 178 810 l 264 724 q 328 750 293 740 q 397 760 363 760 q 467 751 433 760 q 531 722 500 742 l 617 810 l 718 713 l 631 625 q 657 562 647 597 q 667 490 667 526 q 658 419 667 453 q 631 356 649 386 l 715 271 l 617 172 l 531 257 m 397 363 q 463 380 433 363 q 510 426 493 397 q 528 490 528 456 q 510 556 528 526 q 463 602 493 585 q 397 619 433 619 q 333 602 363 619 q 287 556 304 585 q 269 490 269 526 q 287 426 269 456 q 333 380 304 397 q 397 363 363 363 z "},"¥":{"ha":765,"x_min":60,"x_max":875,"o":"m 199 0 l 231 150 l 60 150 l 85 271 l 256 271 l 275 364 l 104 364 l 131 485 l 264 485 l 133 992 l 335 992 l 413 592 l 664 992 l 875 992 l 532 485 l 669 485 l 643 364 l 472 364 l 453 271 l 624 271 l 599 150 l 428 150 l 396 0 l 199 0 z "},"¦":{"ha":765,"x_min":308,"x_max":457,"o":"m 308 499 l 308 1051 l 457 1051 l 457 499 l 308 499 m 308 -315 l 308 238 l 457 238 l 457 -315 l 308 -315 z "},"§":{"ha":675,"x_min":14,"x_max":697,"o":"m 242 -14 q 110 1 167 -14 q 14 38 54 15 l 14 189 q 122 139 63 160 q 247 118 182 118 q 345 142 314 118 q 376 204 376 165 q 366 240 376 224 q 332 272 356 256 q 268 307 308 288 q 178 363 215 333 q 121 431 140 393 q 101 513 101 468 q 119 594 101 558 q 167 661 136 631 q 239 717 197 692 q 192 774 211 740 q 172 847 172 808 q 210 965 172 917 q 313 1038 247 1013 q 464 1063 379 1063 q 588 1047 532 1063 q 697 1003 644 1031 l 642 872 q 557 912 604 894 q 450 929 510 929 q 400 922 422 929 q 365 899 378 914 q 353 857 353 883 q 381 807 353 829 q 467 758 408 785 q 558 704 522 735 q 613 637 594 674 q 631 556 631 600 q 612 466 631 504 q 563 401 593 428 q 500 353 533 374 q 544 295 526 329 q 561 221 561 261 q 520 93 561 146 q 408 13 479 40 q 242 -14 336 -14 m 393 415 q 441 461 419 432 q 463 531 463 490 q 449 577 463 556 q 408 617 435 599 q 343 650 382 635 q 303 622 321 639 q 276 583 286 604 q 267 538 267 561 q 279 495 267 515 q 319 456 292 475 q 393 415 347 436 z "},"¨":{"ha":769,"x_min":282,"x_max":729,"o":"m 628 863 q 566 879 590 863 q 542 938 542 896 q 569 1017 542 990 q 644 1044 596 1044 q 704 1028 679 1044 q 729 971 729 1013 q 705 892 729 922 q 628 863 681 863 m 368 863 q 306 879 331 863 q 282 938 282 896 q 309 1017 282 990 q 385 1044 336 1044 q 427 1038 408 1044 q 458 1015 446 1031 q 469 971 469 999 q 445 892 469 922 q 368 863 421 863 z "},"©":{"ha":1156,"x_min":68,"x_max":1088,"o":"m 578 -14 q 374 24 467 -14 q 212 130 281 61 q 106 292 143 199 q 68 496 68 385 q 106 694 68 601 q 214 856 144 786 q 376 966 283 926 q 578 1006 469 1006 q 776 968 683 1006 q 938 862 868 931 q 1048 700 1008 793 q 1088 496 1088 607 q 1050 292 1088 385 q 944 130 1013 199 q 782 24 875 61 q 578 -14 689 -14 m 599 178 q 387 265 457 178 q 317 496 317 353 q 350 660 317 589 q 447 773 383 732 q 604 814 511 814 q 692 803 647 814 q 775 772 736 792 l 735 679 q 667 706 700 697 q 606 715 635 715 q 478 657 524 715 q 433 496 433 599 q 473 333 433 390 q 604 275 513 275 q 676 284 636 275 q 750 307 715 293 l 750 211 q 682 188 717 197 q 599 178 647 178 m 578 75 q 738 106 664 75 q 869 194 813 138 q 958 327 926 250 q 990 496 990 404 q 959 660 990 583 q 872 794 928 736 q 741 885 817 853 q 578 918 665 918 q 413 887 489 918 q 281 799 338 856 q 194 665 225 743 q 163 496 163 588 q 193 327 163 404 q 279 194 224 250 q 410 106 335 138 q 578 75 486 75 z "},"ª":{"ha":524,"x_min":103,"x_max":594,"o":"m 250 507 q 178 524 213 507 q 124 582 144 542 q 103 689 103 622 q 116 788 103 735 q 157 890 129 842 q 230 969 185 938 q 338 1000 275 1000 q 410 982 382 1000 q 458 931 439 964 l 464 931 l 490 992 l 594 992 l 488 515 l 388 515 l 393 578 l 388 578 q 329 526 363 546 q 250 507 296 507 m 300 610 q 344 625 325 610 q 378 665 364 640 q 401 719 392 690 q 415 775 410 747 q 419 824 419 803 q 406 876 419 856 q 360 896 392 896 q 311 877 333 896 q 274 827 289 858 q 250 758 258 796 q 242 685 242 721 q 256 629 242 649 q 300 610 269 610 z "},"«":{"ha":781,"x_min":49,"x_max":781,"o":"m 186 61 l 49 374 l 49 386 l 321 700 l 450 594 l 261 368 l 353 131 l 186 61 m 517 61 l 379 374 l 379 386 l 651 700 l 781 594 l 592 368 l 683 131 l 517 61 z "},"¬":{"ha":794,"x_min":74,"x_max":747,"o":"m 747 564 l 747 168 l 599 168 l 599 415 l 74 415 l 74 564 l 747 564 z "},"­":{"ha":447,"x_min":28,"x_max":419,"o":"m 28 288 l 64 457 l 419 457 l 383 288 l 28 288 z "},"®":{"ha":1156,"x_min":68,"x_max":1088,"o":"m 381 192 l 381 806 l 565 806 q 732 758 679 806 q 785 619 785 710 q 751 516 785 554 q 676 461 718 478 l 838 192 l 711 192 l 579 425 l 493 425 l 493 192 l 381 192 m 563 518 q 644 546 617 518 q 671 617 671 574 q 647 688 671 665 q 561 710 622 710 l 493 710 l 493 518 l 563 518 m 578 -14 q 374 24 467 -14 q 212 130 281 61 q 106 292 143 199 q 68 496 68 385 q 106 694 68 601 q 214 856 144 786 q 376 966 283 926 q 578 1006 469 1006 q 776 968 683 1006 q 938 862 868 931 q 1048 700 1008 793 q 1088 496 1088 607 q 1050 292 1088 385 q 944 130 1013 199 q 782 24 875 61 q 578 -14 689 -14 m 578 75 q 738 106 664 75 q 869 194 813 138 q 958 327 926 250 q 990 496 990 404 q 959 660 990 583 q 872 794 928 736 q 741 885 817 853 q 578 918 665 918 q 413 887 489 918 q 281 799 338 856 q 194 665 225 743 q 163 496 163 588 q 193 327 163 404 q 279 194 224 250 q 410 106 335 138 q 578 75 486 75 z "},"¯":{"ha":694,"x_min":121,"x_max":854,"o":"m 121 1056 l 151 1192 l 854 1192 l 824 1056 l 121 1056 z "},"°":{"ha":594,"x_min":54,"x_max":539,"o":"m 297 538 q 172 567 226 538 q 85 650 117 597 q 54 771 54 703 q 85 892 54 839 q 172 975 117 944 q 297 1006 226 1006 q 424 976 369 1006 q 508 893 478 946 q 539 771 539 840 q 508 650 539 703 q 424 567 478 597 q 297 538 369 538 m 297 667 q 372 695 342 667 q 403 771 403 724 q 372 849 403 821 q 297 878 342 878 q 223 849 254 878 q 192 771 192 821 q 223 695 192 724 q 297 667 254 667 z "},"±":{"ha":794,"x_min":74,"x_max":747,"o":"m 74 0 l 74 149 l 747 149 l 747 0 l 74 0 m 485 606 l 747 606 l 747 457 l 485 457 l 485 196 l 336 196 l 336 457 l 74 457 l 74 606 l 336 606 l 336 869 l 485 869 l 485 606 z "},"²":{"ha":526,"x_min":78,"x_max":588,"o":"m 78 576 l 101 689 l 286 838 q 361 900 331 874 q 407 950 392 926 q 422 999 422 974 q 405 1040 422 1026 q 364 1054 388 1054 q 303 1040 335 1054 q 236 999 272 1026 l 168 1106 q 274 1165 218 1144 q 404 1185 331 1185 q 502 1165 461 1185 q 565 1112 543 1146 q 588 1033 588 1078 q 566 935 588 976 q 502 858 544 894 q 397 776 460 822 l 310 713 l 544 713 l 517 576 l 78 576 z "},"³":{"ha":526,"x_min":100,"x_max":589,"o":"m 281 565 q 181 576 229 565 q 100 603 133 586 l 100 733 q 183 698 140 711 q 272 685 225 685 q 356 705 321 685 q 390 765 390 725 q 373 808 390 790 q 313 825 356 825 l 226 825 l 250 933 l 311 933 q 376 942 349 933 q 419 967 404 950 q 433 1010 433 985 q 416 1051 433 1038 q 368 1064 399 1064 q 305 1052 338 1064 q 240 1019 272 1040 l 185 1121 q 285 1168 233 1153 q 397 1183 336 1183 q 510 1163 468 1183 q 570 1110 551 1143 q 589 1040 589 1078 q 546 934 589 969 q 442 883 503 899 l 442 878 q 522 835 499 865 q 546 760 546 804 q 508 649 546 692 q 408 585 469 606 q 281 565 347 565 z "},"´":{"ha":447,"x_min":157,"x_max":535,"o":"m 157 858 q 207 920 181 885 q 260 994 233 956 q 307 1064 286 1032 l 535 1064 l 535 1053 q 491 1006 519 1035 q 428 947 463 978 q 359 889 393 917 q 299 842 325 861 l 157 842 l 157 858 z "},"μ":{"ha":889,"x_min":-46,"x_max":824,"o":"m -46 -333 l 188 758 l 392 758 l 299 315 q 288 225 288 261 q 306 170 289 189 q 360 151 322 151 q 441 187 404 151 q 506 290 478 222 q 554 451 535 357 l 619 758 l 824 758 l 713 240 q 717 176 703 193 q 753 160 731 160 q 776 163 763 160 q 794 167 789 165 l 760 4 q 735 -4 753 0 q 698 -11 718 -8 q 663 -14 678 -14 q 584 -1 617 -14 q 535 44 551 11 q 521 140 519 78 l 513 140 q 468 65 492 94 q 422 17 444 35 q 379 -7 400 0 q 342 -14 358 -14 q 277 2 300 -14 q 239 47 254 18 l 235 47 q 228 3 233 33 q 217 -59 224 -26 q 204 -117 210 -92 l 158 -333 l -46 -333 z "},"¶":{"ha":910,"x_min":100,"x_max":815,"o":"m 483 379 q 438 370 463 374 q 385 367 414 367 q 268 384 321 367 q 178 441 215 401 q 120 546 140 481 q 100 707 100 611 q 122 874 100 807 q 185 981 144 940 q 281 1038 225 1021 q 406 1056 338 1056 l 815 1056 l 815 -176 l 706 -176 l 706 919 l 593 919 l 593 -176 l 483 -176 l 483 379 z "},"·":{"ha":396,"x_min":89,"x_max":329,"o":"m 194 375 q 113 405 136 375 q 89 471 89 435 q 120 563 89 521 q 228 606 151 606 q 301 580 274 606 q 329 507 329 554 q 292 413 329 450 q 194 375 256 375 z "},"¸":{"ha":285,"x_min":-140,"x_max":178,"o":"m -37 -333 q -97 -328 -69 -333 q -140 -318 -125 -324 l -140 -204 q -102 -215 -125 -210 q -56 -219 -79 -219 q -17 -213 -32 -219 q 6 -194 -1 -207 q 14 -164 14 -182 q -8 -125 14 -140 q -82 -104 -29 -110 l -17 0 l 108 0 l 82 -49 q 150 -90 122 -62 q 178 -169 178 -118 q 156 -253 178 -215 q 86 -312 133 -290 q -37 -333 39 -333 z "},"¹":{"ha":526,"x_min":126,"x_max":538,"o":"m 301 846 q 322 926 311 889 q 339 986 332 963 q 310 965 326 976 q 285 946 294 953 l 196 890 l 126 1003 l 397 1171 l 538 1171 l 411 576 l 244 576 l 301 846 z "},"º":{"ha":511,"x_min":115,"x_max":554,"o":"m 299 507 q 162 558 208 507 q 115 701 115 610 q 132 816 115 763 q 181 911 149 869 q 261 976 213 953 q 374 1000 310 1000 q 513 945 471 1000 q 554 807 554 890 q 542 710 554 763 q 501 612 529 658 q 423 536 472 565 q 299 507 374 507 m 311 618 q 355 636 336 618 q 386 684 374 654 q 405 749 399 714 q 411 817 411 783 q 398 871 411 853 q 360 889 385 889 q 315 870 335 889 q 283 822 296 851 q 264 758 271 792 q 257 693 257 724 q 271 636 257 654 q 311 618 285 618 z "},"»":{"ha":781,"x_min":0,"x_max":732,"o":"m 460 61 l 331 167 l 519 393 l 428 631 l 594 700 l 732 388 l 732 375 l 460 61 m 129 61 l 0 167 l 189 393 l 97 631 l 264 700 l 401 388 l 401 375 l 129 61 z "},"¼":{"ha":1158,"x_min":99,"x_max":1110,"o":"m 149 0 l 886 992 l 1046 992 l 311 0 l 149 0 m 274 665 q 294 745 283 708 q 311 806 304 782 q 283 784 299 796 q 257 765 267 772 l 168 710 l 99 822 l 369 990 l 510 990 l 383 396 l 217 396 l 274 665 m 821 1 l 843 104 l 590 104 l 611 222 l 933 600 l 1110 600 l 1028 218 l 1108 218 l 1085 104 l 1004 104 l 982 1 l 821 1 m 749 218 l 867 218 l 894 329 q 906 374 901 357 q 921 425 911 392 q 902 399 913 413 q 881 372 892 385 q 863 350 871 360 l 749 218 z "},"½":{"ha":1238,"x_min":99,"x_max":1179,"o":"m 146 0 l 883 992 l 1043 992 l 308 0 l 146 0 m 274 665 q 294 745 283 708 q 311 806 304 782 q 283 784 299 796 q 257 765 267 772 l 168 710 l 99 822 l 369 990 l 510 990 l 383 396 l 217 396 l 274 665 m 669 -1 l 693 111 l 878 260 q 953 322 922 296 q 999 372 983 349 q 1014 421 1014 396 q 997 463 1014 449 q 956 476 979 476 q 895 463 926 476 q 828 421 864 449 l 760 528 q 866 587 810 567 q 996 607 922 607 q 1094 588 1053 607 q 1157 534 1135 568 q 1179 456 1179 500 q 1158 358 1179 399 q 1094 281 1136 317 q 989 199 1051 244 l 901 135 l 1136 135 l 1108 -1 l 669 -1 z "},"¾":{"ha":1199,"x_min":65,"x_max":1150,"o":"m 246 386 q 147 397 194 386 q 65 424 99 407 l 65 554 q 148 519 106 532 q 238 506 190 506 q 321 526 286 506 q 356 586 356 546 q 338 628 356 611 q 278 646 321 646 l 192 646 l 215 754 l 276 754 q 342 763 314 754 q 384 788 369 771 q 399 831 399 806 q 381 872 399 858 q 333 885 364 885 q 270 873 303 885 q 206 840 238 861 l 150 942 q 250 989 199 974 q 363 1004 301 1004 q 475 984 433 1004 q 535 931 517 964 q 554 861 554 899 q 511 755 554 790 q 407 704 468 719 l 407 699 q 488 656 464 686 q 511 581 511 625 q 473 469 511 513 q 374 406 435 426 q 246 386 313 386 m 189 0 l 926 992 l 1086 992 l 351 0 l 189 0 m 861 0 l 883 103 l 631 103 l 651 221 l 974 599 l 1150 599 l 1068 217 l 1149 217 l 1125 103 l 1044 103 l 1022 0 l 861 0 m 789 217 l 907 217 l 935 328 q 947 373 942 356 q 961 424 951 390 q 942 397 953 411 q 922 371 932 383 q 903 349 911 358 l 789 217 z "},"¿":{"ha":638,"x_min":-39,"x_max":536,"o":"m 467 413 q 435 300 456 349 q 381 212 415 251 q 290 135 346 172 q 217 81 246 104 q 174 35 188 58 q 161 -17 161 13 q 183 -76 161 -54 q 251 -97 204 -97 q 350 -78 300 -97 q 460 -29 400 -58 l 522 -179 q 384 -239 460 -214 q 221 -264 308 -264 q 30 -204 99 -264 q -39 -39 -39 -144 q -12 80 -39 31 q 61 168 15 129 q 165 246 107 207 q 231 297 207 274 q 268 347 254 319 q 292 413 282 374 l 467 413 m 431 760 q 513 730 489 760 q 536 664 536 700 q 505 572 536 614 q 397 529 474 529 q 324 555 351 529 q 296 628 296 581 q 333 722 296 685 q 431 760 369 760 z "},"À":{"ha":872,"x_min":-83,"x_max":789,"o":"m -83 0 l 436 992 l 689 992 l 789 0 l 588 0 l 571 236 l 250 236 l 133 0 l -83 0 m 335 413 l 561 413 l 543 668 q 538 750 540 708 q 536 835 535 792 l 533 835 q 503 760 519 797 q 465 681 486 724 l 335 413 m 575 1075 q 515 1140 547 1103 q 456 1214 483 1176 q 411 1283 428 1251 l 411 1297 l 622 1297 q 642 1232 631 1267 q 668 1162 653 1197 q 700 1092 683 1126 l 700 1075 l 575 1075 z "},"Á":{"ha":872,"x_min":-83,"x_max":850,"o":"m -83 0 l 436 992 l 689 992 l 789 0 l 588 0 l 571 236 l 250 236 l 133 0 l -83 0 m 335 413 l 561 413 l 543 668 q 538 750 540 708 q 536 835 535 792 l 533 835 q 503 760 519 797 q 465 681 486 724 l 335 413 m 472 1092 q 522 1153 496 1118 q 575 1227 549 1189 q 622 1297 601 1265 l 850 1297 l 850 1286 q 806 1240 835 1268 q 743 1181 778 1211 q 674 1122 708 1150 q 614 1075 640 1094 l 472 1075 l 472 1092 z "},"Â":{"ha":872,"x_min":-83,"x_max":847,"o":"m -83 0 l 436 992 l 689 992 l 789 0 l 588 0 l 571 236 l 250 236 l 133 0 l -83 0 m 335 413 l 561 413 l 543 668 q 538 750 540 708 q 536 835 535 792 l 533 835 q 503 760 519 797 q 465 681 486 724 l 335 413 m 299 1092 q 364 1154 326 1118 q 438 1228 401 1190 q 499 1297 475 1267 l 728 1297 q 763 1228 742 1265 q 806 1155 783 1190 q 847 1092 829 1119 l 847 1075 l 713 1075 q 678 1108 697 1089 q 639 1149 658 1128 q 603 1189 619 1169 q 524 1128 563 1156 q 446 1075 486 1101 l 299 1075 l 299 1092 z "},"Ã":{"ha":872,"x_min":-83,"x_max":883,"o":"m -83 0 l 436 992 l 689 992 l 789 0 l 588 0 l 571 236 l 250 236 l 133 0 l -83 0 m 335 413 l 561 413 l 543 668 q 538 750 540 708 q 536 835 535 792 l 533 835 q 503 760 519 797 q 465 681 486 724 l 335 413 m 315 1074 q 356 1193 329 1147 q 421 1261 383 1239 q 506 1283 458 1283 q 565 1273 539 1283 q 613 1248 592 1263 q 655 1223 635 1233 q 696 1213 675 1213 q 736 1230 719 1213 q 767 1285 753 1247 l 883 1285 q 840 1165 868 1211 q 775 1097 813 1118 q 689 1075 738 1075 q 630 1085 656 1075 q 583 1110 604 1096 q 541 1135 561 1125 q 499 1146 521 1146 q 461 1127 478 1146 q 435 1074 444 1108 l 315 1074 z "},"Ä":{"ha":872,"x_min":-83,"x_max":824,"o":"m -83 0 l 436 992 l 689 992 l 789 0 l 588 0 l 571 236 l 250 236 l 133 0 l -83 0 m 335 413 l 561 413 l 543 668 q 538 750 540 708 q 536 835 535 792 l 533 835 q 503 760 519 797 q 465 681 486 724 l 335 413 m 722 1096 q 660 1113 685 1096 q 636 1171 636 1129 q 663 1251 636 1224 q 739 1278 690 1278 q 799 1262 774 1278 q 824 1204 824 1246 q 799 1126 824 1156 q 722 1096 775 1096 m 463 1096 q 401 1113 425 1096 q 376 1171 376 1129 q 403 1251 376 1224 q 479 1278 431 1278 q 522 1271 503 1278 q 552 1248 540 1264 q 564 1204 564 1232 q 540 1126 564 1156 q 463 1096 515 1096 z "},"Å":{"ha":872,"x_min":-83,"x_max":789,"o":"m -83 0 l 436 992 l 689 992 l 789 0 l 588 0 l 571 236 l 250 236 l 133 0 l -83 0 m 335 413 l 561 413 l 543 668 q 538 750 540 708 q 536 835 535 792 l 533 835 q 503 760 519 797 q 465 681 486 724 l 335 413 m 600 1074 q 478 1117 525 1074 q 432 1235 432 1160 q 478 1353 432 1310 q 600 1396 525 1396 q 722 1353 672 1396 q 772 1236 772 1310 q 723 1117 772 1160 q 600 1074 674 1074 m 600 1169 q 647 1187 628 1169 q 665 1235 665 1204 q 647 1283 665 1265 q 600 1300 628 1300 q 553 1283 572 1300 q 535 1235 535 1265 q 551 1187 535 1204 q 600 1169 568 1169 z "},"Æ":{"ha":1243,"x_min":-83,"x_max":1290,"o":"m -83 0 l 542 992 l 1290 992 l 1254 819 l 907 819 l 861 601 l 1185 601 l 1147 429 l 824 429 l 769 174 l 1117 174 l 1081 0 l 526 0 l 576 236 l 288 236 l 139 0 l -83 0 m 399 413 l 614 413 l 700 819 l 646 819 l 399 413 z "},"Ç":{"ha":850,"x_min":83,"x_max":906,"o":"m 447 -14 q 246 34 326 -14 q 124 169 165 82 q 83 375 83 257 q 103 552 83 463 q 165 723 124 642 q 268 869 206 804 q 417 970 331 933 q 614 1007 504 1007 q 774 990 708 1007 q 906 936 840 972 l 825 767 q 727 813 778 794 q 614 832 676 832 q 495 805 547 832 q 405 731 443 778 q 342 627 367 685 q 306 507 318 569 q 294 386 294 444 q 341 218 294 274 q 489 163 388 163 q 603 178 546 163 q 718 215 661 193 l 718 39 q 607 4 676 22 q 447 -14 538 -14 m 367 -333 q 307 -328 335 -333 q 264 -318 279 -324 l 264 -204 q 302 -215 279 -210 q 349 -219 325 -219 q 388 -213 372 -219 q 410 -194 403 -207 q 418 -164 418 -182 q 397 -125 418 -140 q 322 -104 375 -110 l 388 0 l 513 0 l 486 -49 q 554 -90 526 -62 q 582 -169 582 -118 q 560 -253 582 -215 q 490 -312 538 -290 q 367 -333 443 -333 z "},"È":{"ha":753,"x_min":36,"x_max":800,"o":"m 36 0 l 246 992 l 800 992 l 764 819 l 417 819 l 371 601 l 694 601 l 657 429 l 333 429 l 279 174 l 626 174 l 590 0 l 36 0 m 519 1075 q 460 1140 492 1103 q 400 1214 428 1176 q 356 1283 372 1251 l 356 1297 l 567 1297 q 586 1232 575 1267 q 613 1162 597 1197 q 644 1092 628 1126 l 644 1075 l 519 1075 z "},"É":{"ha":753,"x_min":36,"x_max":800,"o":"m 36 0 l 246 992 l 800 992 l 764 819 l 417 819 l 371 601 l 694 601 l 657 429 l 333 429 l 279 174 l 626 174 l 590 0 l 36 0 m 417 1092 q 467 1153 440 1118 q 519 1227 493 1189 q 567 1297 546 1265 l 794 1297 l 794 1286 q 751 1240 779 1268 q 688 1181 722 1211 q 619 1122 653 1150 q 558 1075 585 1094 l 417 1075 l 417 1092 z "},"Ê":{"ha":753,"x_min":36,"x_max":800,"o":"m 36 0 l 246 992 l 800 992 l 764 819 l 417 819 l 371 601 l 694 601 l 657 429 l 333 429 l 279 174 l 626 174 l 590 0 l 36 0 m 243 1092 q 308 1154 271 1118 q 383 1228 346 1190 q 443 1297 419 1267 l 672 1297 q 707 1228 686 1265 q 751 1155 728 1190 q 792 1092 774 1119 l 792 1075 l 657 1075 q 622 1108 642 1089 q 583 1149 603 1128 q 547 1189 564 1169 q 469 1128 507 1156 q 390 1075 431 1101 l 243 1075 l 243 1092 z "},"Ë":{"ha":753,"x_min":36,"x_max":800,"o":"m 36 0 l 246 992 l 800 992 l 764 819 l 417 819 l 371 601 l 694 601 l 657 429 l 333 429 l 279 174 l 626 174 l 590 0 l 36 0 m 667 1096 q 605 1113 629 1096 q 581 1171 581 1129 q 608 1251 581 1224 q 683 1278 635 1278 q 743 1262 718 1278 q 768 1204 768 1246 q 744 1126 768 1156 q 667 1096 719 1096 m 407 1096 q 345 1113 369 1096 q 321 1171 321 1129 q 348 1251 321 1224 q 424 1278 375 1278 q 466 1271 447 1278 q 497 1248 485 1264 q 508 1204 508 1232 q 484 1126 508 1156 q 407 1096 460 1096 z "},"Ì":{"ha":532,"x_min":-40,"x_max":608,"o":"m -40 0 l -15 119 l 111 175 l 247 817 l 144 872 l 169 992 l 608 992 l 583 872 l 454 817 l 318 175 l 424 119 l 399 0 l -40 0 m 396 1075 q 336 1140 368 1103 q 276 1214 304 1176 q 232 1283 249 1251 l 232 1297 l 443 1297 q 463 1232 451 1267 q 489 1162 474 1197 q 521 1092 504 1126 l 521 1075 l 396 1075 z "},"Í":{"ha":532,"x_min":-40,"x_max":671,"o":"m -40 0 l -15 119 l 111 175 l 247 817 l 144 872 l 169 992 l 608 992 l 583 872 l 454 817 l 318 175 l 424 119 l 399 0 l -40 0 m 293 1092 q 343 1153 317 1118 q 396 1227 369 1189 q 443 1297 422 1265 l 671 1297 l 671 1286 q 627 1240 656 1268 q 564 1181 599 1211 q 495 1122 529 1150 q 435 1075 461 1094 l 293 1075 l 293 1092 z "},"Î":{"ha":532,"x_min":-40,"x_max":668,"o":"m -40 0 l -15 119 l 111 175 l 247 817 l 144 872 l 169 992 l 608 992 l 583 872 l 454 817 l 318 175 l 424 119 l 399 0 l -40 0 m 119 1092 q 185 1154 147 1118 q 259 1228 222 1190 q 319 1297 296 1267 l 549 1297 q 583 1228 563 1265 q 627 1155 604 1190 q 668 1092 650 1119 l 668 1075 l 533 1075 q 499 1108 518 1089 q 460 1149 479 1128 q 424 1189 440 1169 q 345 1128 383 1156 q 267 1075 307 1101 l 119 1075 l 119 1092 z "},"Ï":{"ha":532,"x_min":-40,"x_max":644,"o":"m -40 0 l -15 119 l 111 175 l 247 817 l 144 872 l 169 992 l 608 992 l 583 872 l 454 817 l 318 175 l 424 119 l 399 0 l -40 0 m 543 1096 q 481 1113 506 1096 q 457 1171 457 1129 q 484 1251 457 1224 q 560 1278 511 1278 q 619 1262 594 1278 q 644 1204 644 1246 q 620 1126 644 1156 q 543 1096 596 1096 m 283 1096 q 222 1113 246 1096 q 197 1171 197 1129 q 224 1251 197 1224 q 300 1278 251 1278 q 342 1271 324 1278 q 373 1248 361 1264 q 385 1204 385 1232 q 360 1126 385 1156 q 283 1096 336 1096 z "},"Ð":{"ha":940,"x_min":25,"x_max":897,"o":"m 25 404 l 63 576 l 526 576 l 490 404 l 25 404 m 36 0 l 246 992 l 514 992 q 797 895 696 992 q 897 617 897 799 q 874 408 897 504 q 804 237 850 313 q 691 108 758 161 q 536 28 624 56 q 342 0 449 0 l 36 0 m 351 174 q 474 197 419 174 q 567 260 528 219 q 633 354 607 300 q 672 473 660 408 q 685 606 685 538 q 634 767 685 715 q 494 819 583 819 l 417 819 l 279 174 l 351 174 z "},"Ñ":{"ha":1049,"x_min":36,"x_max":1056,"o":"m 36 0 l 246 992 l 488 992 l 718 261 l 724 261 q 736 337 729 290 q 752 433 743 383 q 769 522 761 483 l 869 992 l 1056 992 l 846 0 l 614 0 l 372 750 l 365 750 q 360 710 364 742 q 349 636 356 679 q 335 548 343 593 q 321 467 328 503 l 222 0 l 36 0 m 411 1074 q 452 1193 425 1147 q 517 1261 479 1239 q 601 1283 554 1283 q 661 1273 635 1283 q 709 1248 688 1263 q 751 1223 731 1233 q 792 1213 771 1213 q 832 1230 815 1213 q 863 1285 849 1247 l 979 1285 q 936 1165 964 1211 q 871 1097 908 1118 q 785 1075 833 1075 q 726 1085 751 1075 q 678 1110 700 1096 q 637 1135 657 1125 q 594 1146 617 1146 q 557 1127 574 1146 q 531 1074 540 1108 l 411 1074 z "},"Ò":{"ha":1014,"x_min":83,"x_max":971,"o":"m 451 -14 q 249 33 331 -14 q 125 165 167 81 q 83 364 83 250 q 97 519 83 442 q 140 668 111 596 q 210 801 168 740 q 311 909 253 863 q 444 981 369 956 q 608 1007 518 1007 q 880 906 789 1007 q 971 636 971 804 q 958 476 971 556 q 917 324 944 397 q 847 190 889 251 q 747 83 804 128 q 615 12 689 38 q 451 -14 542 -14 m 467 163 q 544 177 507 163 q 615 220 582 192 q 674 290 647 249 q 719 383 700 331 q 749 497 739 435 q 760 631 760 560 q 717 777 760 722 q 592 832 675 832 q 510 815 549 832 q 438 767 471 799 q 378 693 406 736 q 333 598 351 650 q 304 487 314 546 q 294 364 294 428 q 315 253 294 299 q 374 185 335 208 q 467 163 413 163 m 646 1075 q 586 1140 618 1103 q 526 1214 554 1176 q 482 1283 499 1251 l 482 1297 l 693 1297 q 713 1232 701 1267 q 739 1162 724 1197 q 771 1092 754 1126 l 771 1075 l 646 1075 z "},"Ó":{"ha":1014,"x_min":83,"x_max":971,"o":"m 451 -14 q 249 33 331 -14 q 125 165 167 81 q 83 364 83 250 q 97 519 83 442 q 140 668 111 596 q 210 801 168 740 q 311 909 253 863 q 444 981 369 956 q 608 1007 518 1007 q 880 906 789 1007 q 971 636 971 804 q 958 476 971 556 q 917 324 944 397 q 847 190 889 251 q 747 83 804 128 q 615 12 689 38 q 451 -14 542 -14 m 467 163 q 544 177 507 163 q 615 220 582 192 q 674 290 647 249 q 719 383 700 331 q 749 497 739 435 q 760 631 760 560 q 717 777 760 722 q 592 832 675 832 q 510 815 549 832 q 438 767 471 799 q 378 693 406 736 q 333 598 351 650 q 304 487 314 546 q 294 364 294 428 q 315 253 294 299 q 374 185 335 208 q 467 163 413 163 m 543 1092 q 593 1153 567 1118 q 646 1227 619 1189 q 693 1297 672 1265 l 921 1297 l 921 1286 q 877 1240 906 1268 q 814 1181 849 1211 q 745 1122 779 1150 q 685 1075 711 1094 l 543 1075 l 543 1092 z "},"Ô":{"ha":1014,"x_min":83,"x_max":971,"o":"m 451 -14 q 249 33 331 -14 q 125 165 167 81 q 83 364 83 250 q 97 519 83 442 q 140 668 111 596 q 210 801 168 740 q 311 909 253 863 q 444 981 369 956 q 608 1007 518 1007 q 880 906 789 1007 q 971 636 971 804 q 958 476 971 556 q 917 324 944 397 q 847 190 889 251 q 747 83 804 128 q 615 12 689 38 q 451 -14 542 -14 m 467 163 q 544 177 507 163 q 615 220 582 192 q 674 290 647 249 q 719 383 700 331 q 749 497 739 435 q 760 631 760 560 q 717 777 760 722 q 592 832 675 832 q 510 815 549 832 q 438 767 471 799 q 378 693 406 736 q 333 598 351 650 q 304 487 314 546 q 294 364 294 428 q 315 253 294 299 q 374 185 335 208 q 467 163 413 163 m 369 1092 q 435 1154 397 1118 q 509 1228 472 1190 q 569 1297 546 1267 l 799 1297 q 833 1228 813 1265 q 877 1155 854 1190 q 918 1092 900 1119 l 918 1075 l 783 1075 q 749 1108 768 1089 q 710 1149 729 1128 q 674 1189 690 1169 q 595 1128 633 1156 q 517 1075 557 1101 l 369 1075 l 369 1092 z "},"Õ":{"ha":1014,"x_min":83,"x_max":971,"o":"m 451 -14 q 249 33 331 -14 q 125 165 167 81 q 83 364 83 250 q 97 519 83 442 q 140 668 111 596 q 210 801 168 740 q 311 909 253 863 q 444 981 369 956 q 608 1007 518 1007 q 880 906 789 1007 q 971 636 971 804 q 958 476 971 556 q 917 324 944 397 q 847 190 889 251 q 747 83 804 128 q 615 12 689 38 q 451 -14 542 -14 m 467 163 q 544 177 507 163 q 615 220 582 192 q 674 290 647 249 q 719 383 700 331 q 749 497 739 435 q 760 631 760 560 q 717 777 760 722 q 592 832 675 832 q 510 815 549 832 q 438 767 471 799 q 378 693 406 736 q 333 598 351 650 q 304 487 314 546 q 294 364 294 428 q 315 253 294 299 q 374 185 335 208 q 467 163 413 163 m 386 1074 q 427 1193 400 1147 q 492 1261 454 1239 q 576 1283 529 1283 q 636 1273 610 1283 q 684 1248 663 1263 q 726 1223 706 1233 q 767 1213 746 1213 q 807 1230 790 1213 q 838 1285 824 1247 l 954 1285 q 911 1165 939 1211 q 846 1097 883 1118 q 760 1075 808 1075 q 701 1085 726 1075 q 653 1110 675 1096 q 612 1135 632 1125 q 569 1146 592 1146 q 532 1127 549 1146 q 506 1074 515 1108 l 386 1074 z "},"Ö":{"ha":1014,"x_min":83,"x_max":971,"o":"m 451 -14 q 249 33 331 -14 q 125 165 167 81 q 83 364 83 250 q 97 519 83 442 q 140 668 111 596 q 210 801 168 740 q 311 909 253 863 q 444 981 369 956 q 608 1007 518 1007 q 880 906 789 1007 q 971 636 971 804 q 958 476 971 556 q 917 324 944 397 q 847 190 889 251 q 747 83 804 128 q 615 12 689 38 q 451 -14 542 -14 m 467 163 q 544 177 507 163 q 615 220 582 192 q 674 290 647 249 q 719 383 700 331 q 749 497 739 435 q 760 631 760 560 q 717 777 760 722 q 592 832 675 832 q 510 815 549 832 q 438 767 471 799 q 378 693 406 736 q 333 598 351 650 q 304 487 314 546 q 294 364 294 428 q 315 253 294 299 q 374 185 335 208 q 467 163 413 163 m 801 1096 q 740 1113 764 1096 q 715 1171 715 1129 q 742 1251 715 1224 q 818 1278 769 1278 q 878 1262 853 1278 q 903 1204 903 1246 q 878 1126 903 1156 q 801 1096 854 1096 m 542 1096 q 480 1113 504 1096 q 456 1171 456 1129 q 483 1251 456 1224 q 558 1278 510 1278 q 601 1271 582 1278 q 631 1248 619 1264 q 643 1204 643 1232 q 619 1126 643 1156 q 542 1096 594 1096 z "},"×":{"ha":794,"x_min":101,"x_max":719,"o":"m 615 799 l 719 697 l 513 490 l 717 285 l 615 182 l 408 386 l 204 183 l 103 286 l 304 490 l 101 694 l 204 799 l 408 596 l 615 799 z "},"Ø":{"ha":1014,"x_min":68,"x_max":989,"o":"m 172 -58 l 68 19 l 150 122 q 100 231 117 169 q 83 364 83 292 q 97 519 83 442 q 140 668 111 596 q 210 801 168 740 q 311 909 253 863 q 444 981 369 956 q 608 1007 518 1007 q 723 994 671 1007 q 815 956 775 981 l 886 1044 l 989 965 l 910 867 q 956 762 942 819 q 971 636 971 704 q 958 476 971 556 q 917 324 944 397 q 847 190 889 251 q 747 83 804 128 q 615 12 689 38 q 451 -14 542 -14 q 339 -1 390 -14 q 246 35 288 11 l 172 -58 m 469 158 q 550 174 511 158 q 622 217 589 189 q 681 288 654 246 q 728 382 708 329 q 758 497 747 435 q 768 631 768 560 q 767 658 768 642 q 765 685 767 674 l 365 183 q 412 165 385 172 q 469 158 439 158 m 697 807 q 651 828 678 819 q 590 836 624 836 q 504 819 544 836 q 431 770 464 801 q 370 695 397 739 q 325 599 343 651 q 297 487 307 546 q 288 364 288 428 q 290 331 288 349 q 293 296 292 314 l 697 807 z "},"Ù":{"ha":960,"x_min":96,"x_max":972,"o":"m 410 -14 q 237 21 307 -14 q 131 119 167 56 q 96 265 96 182 q 98 315 96 288 q 106 365 100 342 l 239 992 l 446 992 l 314 368 q 306 323 308 344 q 303 283 303 301 q 335 194 303 225 q 431 163 367 163 q 531 185 492 163 q 595 255 571 208 q 633 369 619 301 l 765 992 l 972 992 l 836 350 q 764 163 814 244 q 627 33 714 81 q 410 -14 540 -14 m 614 1075 q 554 1140 586 1103 q 494 1214 522 1176 q 450 1283 467 1251 l 450 1297 l 661 1297 q 681 1232 669 1267 q 707 1162 692 1197 q 739 1092 722 1126 l 739 1075 l 614 1075 z "},"Ú":{"ha":960,"x_min":96,"x_max":972,"o":"m 410 -14 q 237 21 307 -14 q 131 119 167 56 q 96 265 96 182 q 98 315 96 288 q 106 365 100 342 l 239 992 l 446 992 l 314 368 q 306 323 308 344 q 303 283 303 301 q 335 194 303 225 q 431 163 367 163 q 531 185 492 163 q 595 255 571 208 q 633 369 619 301 l 765 992 l 972 992 l 836 350 q 764 163 814 244 q 627 33 714 81 q 410 -14 540 -14 m 511 1092 q 561 1153 535 1118 q 614 1227 588 1189 q 661 1297 640 1265 l 889 1297 l 889 1286 q 845 1240 874 1268 q 782 1181 817 1211 q 713 1122 747 1150 q 653 1075 679 1094 l 511 1075 l 511 1092 z "},"Û":{"ha":960,"x_min":96,"x_max":972,"o":"m 410 -14 q 237 21 307 -14 q 131 119 167 56 q 96 265 96 182 q 98 315 96 288 q 106 365 100 342 l 239 992 l 446 992 l 314 368 q 306 323 308 344 q 303 283 303 301 q 335 194 303 225 q 431 163 367 163 q 531 185 492 163 q 595 255 571 208 q 633 369 619 301 l 765 992 l 972 992 l 836 350 q 764 163 814 244 q 627 33 714 81 q 410 -14 540 -14 m 338 1092 q 403 1154 365 1118 q 477 1228 440 1190 q 538 1297 514 1267 l 767 1297 q 801 1228 781 1265 q 845 1155 822 1190 q 886 1092 868 1119 l 886 1075 l 751 1075 q 717 1108 736 1089 q 678 1149 697 1128 q 642 1189 658 1169 q 563 1128 601 1156 q 485 1075 525 1101 l 338 1075 l 338 1092 z "},"Ü":{"ha":960,"x_min":96,"x_max":972,"o":"m 410 -14 q 237 21 307 -14 q 131 119 167 56 q 96 265 96 182 q 98 315 96 288 q 106 365 100 342 l 239 992 l 446 992 l 314 368 q 306 323 308 344 q 303 283 303 301 q 335 194 303 225 q 431 163 367 163 q 531 185 492 163 q 595 255 571 208 q 633 369 619 301 l 765 992 l 972 992 l 836 350 q 764 163 814 244 q 627 33 714 81 q 410 -14 540 -14 m 769 1096 q 708 1113 732 1096 q 683 1171 683 1129 q 710 1251 683 1224 q 786 1278 738 1278 q 846 1262 821 1278 q 871 1204 871 1246 q 847 1126 871 1156 q 769 1096 822 1096 m 510 1096 q 448 1113 472 1096 q 424 1171 424 1129 q 451 1251 424 1224 q 526 1278 478 1278 q 569 1271 550 1278 q 599 1248 588 1264 q 611 1204 611 1232 q 587 1126 611 1156 q 510 1096 563 1096 z "},"Ý":{"ha":783,"x_min":126,"x_max":911,"o":"m 206 0 l 286 379 l 126 992 l 338 992 l 425 590 l 679 992 l 911 992 l 492 379 l 411 0 l 206 0 m 414 1092 q 464 1153 438 1118 q 517 1227 490 1189 q 564 1297 543 1265 l 792 1297 l 792 1286 q 748 1240 776 1268 q 685 1181 719 1211 q 616 1122 650 1150 q 556 1075 582 1094 l 414 1075 l 414 1092 z "},"Þ":{"ha":842,"x_min":36,"x_max":808,"o":"m 36 0 l 246 992 l 453 992 l 419 836 l 476 836 q 670 800 597 836 q 776 699 743 764 q 808 547 808 633 q 776 393 808 458 q 685 285 743 328 q 547 220 626 242 q 376 199 468 199 l 285 199 l 243 0 l 36 0 m 393 371 q 502 391 456 371 q 574 449 549 411 q 600 542 600 488 q 567 634 600 604 q 468 664 533 664 l 385 664 l 322 371 l 393 371 z "},"ß":{"ha":915,"x_min":-176,"x_max":882,"o":"m -68 -333 q -124 -328 -93 -333 q -176 -317 -156 -324 l -176 -153 q -136 -163 -154 -160 q -99 -167 -118 -167 q -27 -139 -57 -167 q 17 -46 3 -111 l 189 772 q 256 935 210 871 q 380 1031 301 1000 q 574 1063 458 1063 q 799 1001 717 1063 q 882 839 882 940 q 865 740 882 781 q 813 667 847 699 q 728 606 779 635 q 670 567 693 585 q 647 522 647 549 q 653 501 647 513 q 675 475 660 489 q 715 442 690 461 q 806 353 772 399 q 839 238 839 307 q 803 108 839 165 q 699 19 768 51 q 526 -14 629 -14 q 413 -3 463 -14 q 325 28 363 7 l 325 190 q 408 153 363 168 q 500 138 453 138 q 601 160 569 138 q 632 218 632 183 q 624 253 632 238 q 596 289 615 269 q 540 335 576 308 q 458 415 488 375 q 429 508 429 456 q 447 587 429 554 q 497 644 465 619 q 569 693 528 669 q 622 727 600 710 q 655 765 643 744 q 667 810 667 785 q 640 876 667 851 q 556 901 613 901 q 467 880 500 901 q 417 824 435 858 q 392 750 400 790 l 219 -76 q 171 -210 204 -151 q 80 -301 138 -268 q -68 -333 22 -333 z "},"à":{"ha":825,"x_min":61,"x_max":801,"o":"m 275 -14 q 172 13 221 -14 q 92 101 122 40 q 61 261 61 161 q 77 408 61 335 q 123 547 93 482 q 196 663 153 613 q 294 743 239 714 q 413 772 349 772 q 497 758 461 772 q 558 719 532 744 q 600 661 583 694 l 606 661 l 644 758 l 801 758 l 640 0 l 488 0 l 497 99 l 492 99 q 433 40 465 65 q 363 1 401 15 q 275 -14 324 -14 m 356 151 q 433 185 397 151 q 495 271 469 218 q 532 382 521 324 q 540 437 538 410 q 542 496 542 464 q 517 576 542 544 q 447 607 492 607 q 390 588 417 607 q 341 535 364 568 q 302 458 318 501 q 277 367 286 415 q 268 271 268 319 q 291 181 268 211 q 356 151 314 151 m 501 842 q 442 906 474 869 q 382 981 410 943 q 338 1050 354 1018 l 338 1064 l 549 1064 q 568 999 557 1033 q 594 928 579 964 q 626 858 610 893 l 626 842 l 501 842 z "},"á":{"ha":825,"x_min":61,"x_max":801,"o":"m 275 -14 q 172 13 221 -14 q 92 101 122 40 q 61 261 61 161 q 77 408 61 335 q 123 547 93 482 q 196 663 153 613 q 294 743 239 714 q 413 772 349 772 q 497 758 461 772 q 558 719 532 744 q 600 661 583 694 l 606 661 l 644 758 l 801 758 l 640 0 l 488 0 l 497 99 l 492 99 q 433 40 465 65 q 363 1 401 15 q 275 -14 324 -14 m 356 151 q 433 185 397 151 q 495 271 469 218 q 532 382 521 324 q 540 437 538 410 q 542 496 542 464 q 517 576 542 544 q 447 607 492 607 q 390 588 417 607 q 341 535 364 568 q 302 458 318 501 q 277 367 286 415 q 268 271 268 319 q 291 181 268 211 q 356 151 314 151 m 399 858 q 449 920 422 885 q 501 994 475 956 q 549 1064 528 1032 l 776 1064 l 776 1053 q 733 1006 761 1035 q 669 947 704 978 q 601 889 635 917 q 540 842 567 861 l 399 842 l 399 858 z "},"â":{"ha":825,"x_min":61,"x_max":801,"o":"m 275 -14 q 172 13 221 -14 q 92 101 122 40 q 61 261 61 161 q 77 408 61 335 q 123 547 93 482 q 196 663 153 613 q 294 743 239 714 q 413 772 349 772 q 497 758 461 772 q 558 719 532 744 q 600 661 583 694 l 606 661 l 644 758 l 801 758 l 640 0 l 488 0 l 497 99 l 492 99 q 433 40 465 65 q 363 1 401 15 q 275 -14 324 -14 m 356 151 q 433 185 397 151 q 495 271 469 218 q 532 382 521 324 q 540 437 538 410 q 542 496 542 464 q 517 576 542 544 q 447 607 492 607 q 390 588 417 607 q 341 535 364 568 q 302 458 318 501 q 277 367 286 415 q 268 271 268 319 q 291 181 268 211 q 356 151 314 151 m 225 858 q 290 921 253 885 q 365 995 328 957 q 425 1064 401 1033 l 654 1064 q 689 994 668 1032 q 733 922 710 957 q 774 858 756 886 l 774 842 l 639 842 q 604 875 624 856 q 565 915 585 894 q 529 956 546 936 q 451 895 489 922 q 372 842 413 868 l 225 842 l 225 858 z "},"ã":{"ha":825,"x_min":61,"x_max":810,"o":"m 275 -14 q 172 13 221 -14 q 92 101 122 40 q 61 261 61 161 q 77 408 61 335 q 123 547 93 482 q 196 663 153 613 q 294 743 239 714 q 413 772 349 772 q 497 758 461 772 q 558 719 532 744 q 600 661 583 694 l 606 661 l 644 758 l 801 758 l 640 0 l 488 0 l 497 99 l 492 99 q 433 40 465 65 q 363 1 401 15 q 275 -14 324 -14 m 356 151 q 433 185 397 151 q 495 271 469 218 q 532 382 521 324 q 540 437 538 410 q 542 496 542 464 q 517 576 542 544 q 447 607 492 607 q 390 588 417 607 q 341 535 364 568 q 302 458 318 501 q 277 367 286 415 q 268 271 268 319 q 291 181 268 211 q 356 151 314 151 m 242 840 q 283 960 256 914 q 347 1028 310 1006 q 432 1050 385 1050 q 492 1040 465 1050 q 540 1015 518 1029 q 581 990 561 1000 q 622 979 601 979 q 663 997 646 979 q 693 1051 679 1014 l 810 1051 q 767 931 794 978 q 701 863 739 885 q 615 842 664 842 q 556 852 582 842 q 509 877 531 863 q 467 902 488 892 q 425 913 447 913 q 388 894 404 913 q 361 840 371 875 l 242 840 z "},"ä":{"ha":825,"x_min":61,"x_max":801,"o":"m 275 -14 q 172 13 221 -14 q 92 101 122 40 q 61 261 61 161 q 77 408 61 335 q 123 547 93 482 q 196 663 153 613 q 294 743 239 714 q 413 772 349 772 q 497 758 461 772 q 558 719 532 744 q 600 661 583 694 l 606 661 l 644 758 l 801 758 l 640 0 l 488 0 l 497 99 l 492 99 q 433 40 465 65 q 363 1 401 15 q 275 -14 324 -14 m 356 151 q 433 185 397 151 q 495 271 469 218 q 532 382 521 324 q 540 437 538 410 q 542 496 542 464 q 517 576 542 544 q 447 607 492 607 q 390 588 417 607 q 341 535 364 568 q 302 458 318 501 q 277 367 286 415 q 268 271 268 319 q 291 181 268 211 q 356 151 314 151 m 649 863 q 587 879 611 863 q 563 938 563 896 q 590 1017 563 990 q 665 1044 617 1044 q 725 1028 700 1044 q 750 971 750 1013 q 726 892 750 922 q 649 863 701 863 m 389 863 q 327 879 351 863 q 303 938 303 896 q 330 1017 303 990 q 406 1044 357 1044 q 448 1038 429 1044 q 478 1015 467 1031 q 490 971 490 999 q 466 892 490 922 q 389 863 442 863 z "},"å":{"ha":825,"x_min":61,"x_max":801,"o":"m 275 -14 q 172 13 221 -14 q 92 101 122 40 q 61 261 61 161 q 77 408 61 335 q 123 547 93 482 q 196 663 153 613 q 294 743 239 714 q 413 772 349 772 q 497 758 461 772 q 558 719 532 744 q 600 661 583 694 l 606 661 l 644 758 l 801 758 l 640 0 l 488 0 l 497 99 l 492 99 q 433 40 465 65 q 363 1 401 15 q 275 -14 324 -14 m 356 151 q 433 185 397 151 q 495 271 469 218 q 532 382 521 324 q 540 437 538 410 q 542 496 542 464 q 517 576 542 544 q 447 607 492 607 q 390 588 417 607 q 341 535 364 568 q 302 458 318 501 q 277 367 286 415 q 268 271 268 319 q 291 181 268 211 q 356 151 314 151 m 526 840 q 405 883 451 840 q 358 1001 358 926 q 405 1119 358 1076 q 526 1163 451 1163 q 649 1119 599 1163 q 699 1003 699 1076 q 649 883 699 926 q 526 840 600 840 m 526 936 q 573 953 554 936 q 592 1001 592 971 q 573 1049 592 1032 q 526 1067 554 1067 q 480 1049 499 1067 q 461 1001 461 1032 q 478 953 461 971 q 526 936 494 936 z "},"æ":{"ha":1211,"x_min":61,"x_max":1176,"o":"m 271 -14 q 161 17 208 -14 q 88 110 114 49 q 61 261 61 172 q 78 415 61 340 q 125 555 94 490 q 198 669 156 619 q 294 745 240 718 q 408 772 347 772 q 488 760 456 772 q 546 722 521 747 q 592 661 571 697 l 599 661 l 638 758 l 765 758 l 753 697 q 838 753 785 733 q 949 772 892 772 q 1117 714 1058 772 q 1176 565 1176 656 q 1149 457 1176 506 q 1069 374 1122 408 q 933 320 1015 339 q 740 301 851 301 l 706 301 q 704 288 704 293 q 704 275 704 282 q 736 181 704 221 q 850 140 768 140 q 959 158 901 140 q 1063 199 1017 175 l 1063 44 q 947 3 1010 19 q 818 -14 885 -14 q 697 5 744 -14 q 617 64 649 24 l 606 0 l 478 0 l 488 99 l 481 99 q 424 40 454 65 q 356 1 393 15 q 271 -14 319 -14 m 351 151 q 407 167 381 151 q 455 212 433 183 q 493 278 476 240 q 519 360 510 317 q 531 423 526 390 q 535 488 535 456 q 513 574 535 542 q 443 607 490 607 q 385 588 413 607 q 337 535 358 568 q 300 458 315 501 q 276 367 285 415 q 268 271 268 319 q 293 179 268 207 q 351 151 318 151 m 758 439 q 886 456 838 439 q 958 501 935 472 q 981 561 981 529 q 962 609 981 593 q 910 625 943 625 q 835 601 872 625 q 769 536 797 578 q 728 439 740 494 l 758 439 z "},"ç":{"ha":671,"x_min":61,"x_max":685,"o":"m 343 -14 q 201 15 265 -14 q 99 104 136 43 q 61 265 61 165 q 78 422 61 347 q 128 561 96 497 q 210 672 161 625 q 322 746 258 719 q 463 772 386 772 q 584 760 531 772 q 685 724 638 747 l 622 568 q 551 595 586 583 q 471 607 515 607 q 385 579 422 607 q 321 504 347 551 q 281 399 294 457 q 268 282 268 342 q 282 210 268 239 q 322 166 296 181 q 385 151 347 151 q 480 167 436 151 q 571 207 524 183 l 571 40 q 469 1 524 15 q 343 -14 414 -14 m 238 -333 q 178 -328 206 -333 q 135 -318 150 -324 l 135 -204 q 173 -215 150 -210 q 219 -219 196 -219 q 258 -213 243 -219 q 281 -194 274 -207 q 289 -164 289 -182 q 267 -125 289 -140 q 193 -104 246 -110 l 258 0 l 383 0 l 357 -49 q 425 -90 397 -62 q 453 -169 453 -118 q 431 -253 453 -215 q 361 -312 408 -290 q 238 -333 314 -333 z "},"è":{"ha":774,"x_min":61,"x_max":739,"o":"m 361 -14 q 205 18 272 -14 q 99 115 138 50 q 61 279 61 181 q 88 463 61 375 q 169 621 115 551 q 301 731 222 690 q 485 772 381 772 q 676 714 613 772 q 739 565 739 656 q 712 457 739 506 q 631 374 685 408 q 496 320 578 339 q 303 301 414 301 l 268 301 q 267 287 267 293 q 267 274 267 281 q 302 176 267 213 q 401 140 338 140 q 510 154 461 140 q 625 199 558 168 l 625 44 q 504 1 565 15 q 361 -14 443 -14 m 321 439 q 449 456 400 439 q 520 501 497 472 q 543 561 543 529 q 524 609 543 593 q 472 625 506 625 q 397 601 435 625 q 331 536 360 578 q 290 439 303 494 l 321 439 m 485 842 q 425 906 457 869 q 365 981 393 943 q 321 1050 338 1018 l 321 1064 l 532 1064 q 551 999 540 1033 q 578 928 563 964 q 610 858 593 893 l 610 842 l 485 842 z "},"é":{"ha":774,"x_min":61,"x_max":760,"o":"m 361 -14 q 205 18 272 -14 q 99 115 138 50 q 61 279 61 181 q 88 463 61 375 q 169 621 115 551 q 301 731 222 690 q 485 772 381 772 q 676 714 613 772 q 739 565 739 656 q 712 457 739 506 q 631 374 685 408 q 496 320 578 339 q 303 301 414 301 l 268 301 q 267 287 267 293 q 267 274 267 281 q 302 176 267 213 q 401 140 338 140 q 510 154 461 140 q 625 199 558 168 l 625 44 q 504 1 565 15 q 361 -14 443 -14 m 321 439 q 449 456 400 439 q 520 501 497 472 q 543 561 543 529 q 524 609 543 593 q 472 625 506 625 q 397 601 435 625 q 331 536 360 578 q 290 439 303 494 l 321 439 m 382 858 q 432 920 406 885 q 485 994 458 956 q 532 1064 511 1032 l 760 1064 l 760 1053 q 716 1006 744 1035 q 653 947 688 978 q 584 889 618 917 q 524 842 550 861 l 382 842 l 382 858 z "},"ê":{"ha":774,"x_min":61,"x_max":757,"o":"m 361 -14 q 205 18 272 -14 q 99 115 138 50 q 61 279 61 181 q 88 463 61 375 q 169 621 115 551 q 301 731 222 690 q 485 772 381 772 q 676 714 613 772 q 739 565 739 656 q 712 457 739 506 q 631 374 685 408 q 496 320 578 339 q 303 301 414 301 l 268 301 q 267 287 267 293 q 267 274 267 281 q 302 176 267 213 q 401 140 338 140 q 510 154 461 140 q 625 199 558 168 l 625 44 q 504 1 565 15 q 361 -14 443 -14 m 321 439 q 449 456 400 439 q 520 501 497 472 q 543 561 543 529 q 524 609 543 593 q 472 625 506 625 q 397 601 435 625 q 331 536 360 578 q 290 439 303 494 l 321 439 m 208 858 q 274 921 236 885 q 348 995 311 957 q 408 1064 385 1033 l 638 1064 q 672 994 651 1032 q 716 922 693 957 q 757 858 739 886 l 757 842 l 622 842 q 588 875 607 856 q 549 915 568 894 q 513 956 529 936 q 434 895 472 922 q 356 842 396 868 l 208 842 l 208 858 z "},"ë":{"ha":774,"x_min":61,"x_max":739,"o":"m 361 -14 q 205 18 272 -14 q 99 115 138 50 q 61 279 61 181 q 88 463 61 375 q 169 621 115 551 q 301 731 222 690 q 485 772 381 772 q 676 714 613 772 q 739 565 739 656 q 712 457 739 506 q 631 374 685 408 q 496 320 578 339 q 303 301 414 301 l 268 301 q 267 287 267 293 q 267 274 267 281 q 302 176 267 213 q 401 140 338 140 q 510 154 461 140 q 625 199 558 168 l 625 44 q 504 1 565 15 q 361 -14 443 -14 m 321 439 q 449 456 400 439 q 520 501 497 472 q 543 561 543 529 q 524 609 543 593 q 472 625 506 625 q 397 601 435 625 q 331 536 360 578 q 290 439 303 494 l 321 439 m 632 863 q 570 879 594 863 q 546 938 546 896 q 573 1017 546 990 q 649 1044 600 1044 q 708 1028 683 1044 q 733 971 733 1013 q 709 892 733 922 q 632 863 685 863 m 372 863 q 310 879 335 863 q 286 938 286 896 q 313 1017 286 990 q 389 1044 340 1044 q 431 1038 413 1044 q 462 1015 450 1031 q 474 971 474 999 q 449 892 474 922 q 372 863 425 863 z "},"ì":{"ha":413,"x_min":25,"x_max":421,"o":"m 25 0 l 186 758 l 390 758 l 229 0 l 25 0 m 296 842 q 236 906 268 869 q 176 981 204 943 q 132 1050 149 1018 l 132 1064 l 343 1064 q 363 999 351 1033 q 389 928 374 964 q 421 858 404 893 l 421 842 l 296 842 z "},"í":{"ha":413,"x_min":25,"x_max":571,"o":"m 25 0 l 186 758 l 390 758 l 229 0 l 25 0 m 193 858 q 243 920 217 885 q 296 994 269 956 q 343 1064 322 1032 l 571 1064 l 571 1053 q 527 1006 556 1035 q 464 947 499 978 q 395 889 429 917 q 335 842 361 861 l 193 842 l 193 858 z "},"î":{"ha":413,"x_min":19,"x_max":568,"o":"m 25 0 l 186 758 l 390 758 l 229 0 l 25 0 m 19 858 q 85 921 47 885 q 159 995 122 957 q 219 1064 196 1033 l 449 1064 q 483 994 463 1032 q 527 922 504 957 q 568 858 550 886 l 568 842 l 433 842 q 399 875 418 856 q 360 915 379 894 q 324 956 340 936 q 245 895 283 922 q 167 842 207 868 l 19 842 l 19 858 z "},"ï":{"ha":413,"x_min":25,"x_max":544,"o":"m 25 0 l 186 758 l 390 758 l 229 0 l 25 0 m 443 863 q 381 879 406 863 q 357 938 357 896 q 384 1017 357 990 q 460 1044 411 1044 q 519 1028 494 1044 q 544 971 544 1013 q 520 892 544 922 q 443 863 496 863 m 183 863 q 122 879 146 863 q 97 938 97 896 q 124 1017 97 990 q 200 1044 151 1044 q 242 1038 224 1044 q 273 1015 261 1031 q 285 971 285 999 q 260 892 285 922 q 183 863 236 863 z "},"ð":{"ha":801,"x_min":49,"x_max":785,"o":"m 349 -14 q 194 16 261 -14 q 88 110 126 46 q 49 275 49 174 q 72 428 49 356 q 140 556 96 500 q 249 643 185 611 q 394 675 313 675 q 506 649 464 675 q 572 590 549 624 l 579 590 q 556 702 574 647 q 500 794 539 757 l 343 706 l 283 806 l 419 882 q 382 910 404 897 q 335 936 360 924 l 415 1063 q 502 1017 461 1042 q 572 968 543 992 l 733 1057 l 785 954 l 654 882 q 713 781 692 835 q 744 667 735 728 q 753 539 753 607 q 738 367 753 449 q 692 215 724 285 q 614 94 661 146 q 501 15 567 43 q 349 -14 435 -14 m 358 139 q 413 154 388 139 q 459 197 439 169 q 494 258 479 224 q 516 331 508 292 q 524 408 524 369 q 517 453 524 432 q 499 489 511 474 q 467 513 486 504 q 424 522 449 522 q 350 499 382 522 q 297 436 318 475 q 265 350 275 397 q 254 256 254 303 q 281 170 254 201 q 358 139 307 139 z "},"ñ":{"ha":839,"x_min":25,"x_max":819,"o":"m 25 0 l 186 758 l 342 758 l 328 618 l 333 618 q 398 699 363 664 q 476 753 433 733 q 572 772 519 772 q 681 745 638 772 q 747 669 725 718 q 768 554 768 621 q 764 498 768 529 q 753 432 760 467 l 663 0 l 458 0 l 551 443 q 560 487 557 467 q 563 524 563 507 q 544 587 563 567 q 489 607 525 607 q 406 567 443 607 q 341 461 368 528 q 296 314 314 394 l 229 0 l 25 0 m 251 840 q 292 960 265 914 q 357 1028 319 1006 q 442 1050 394 1050 q 501 1040 475 1050 q 549 1015 528 1029 q 591 990 571 1000 q 632 979 611 979 q 672 997 656 979 q 703 1051 689 1014 l 819 1051 q 776 931 804 978 q 711 863 749 885 q 625 842 674 842 q 566 852 592 842 q 519 877 540 863 q 477 902 497 892 q 435 913 457 913 q 397 894 414 913 q 371 840 381 875 l 251 840 z "},"ò":{"ha":813,"x_min":61,"x_max":751,"o":"m 351 -14 q 201 22 267 -14 q 98 122 135 57 q 61 278 61 188 q 77 432 61 358 q 125 567 93 506 q 206 675 157 629 q 319 747 254 721 q 464 772 383 772 q 617 737 553 772 q 716 634 681 701 q 751 472 751 567 q 736 324 751 396 q 690 190 721 251 q 611 83 658 129 q 499 12 564 38 q 351 -14 433 -14 m 368 153 q 429 170 401 153 q 479 218 457 188 q 516 289 501 249 q 538 376 531 329 q 546 472 546 424 q 537 541 546 511 q 506 588 528 571 q 449 606 485 606 q 382 585 411 606 q 331 530 353 564 q 295 453 310 496 q 274 365 281 410 q 267 278 267 319 q 292 185 267 217 q 368 153 317 153 m 485 842 q 425 906 457 869 q 365 981 393 943 q 321 1050 338 1018 l 321 1064 l 532 1064 q 551 999 540 1033 q 578 928 563 964 q 610 858 593 893 l 610 842 l 485 842 z "},"ó":{"ha":813,"x_min":61,"x_max":760,"o":"m 351 -14 q 201 22 267 -14 q 98 122 135 57 q 61 278 61 188 q 77 432 61 358 q 125 567 93 506 q 206 675 157 629 q 319 747 254 721 q 464 772 383 772 q 617 737 553 772 q 716 634 681 701 q 751 472 751 567 q 736 324 751 396 q 690 190 721 251 q 611 83 658 129 q 499 12 564 38 q 351 -14 433 -14 m 368 153 q 429 170 401 153 q 479 218 457 188 q 516 289 501 249 q 538 376 531 329 q 546 472 546 424 q 537 541 546 511 q 506 588 528 571 q 449 606 485 606 q 382 585 411 606 q 331 530 353 564 q 295 453 310 496 q 274 365 281 410 q 267 278 267 319 q 292 185 267 217 q 368 153 317 153 m 382 858 q 432 920 406 885 q 485 994 458 956 q 532 1064 511 1032 l 760 1064 l 760 1053 q 716 1006 744 1035 q 653 947 688 978 q 584 889 618 917 q 524 842 550 861 l 382 842 l 382 858 z "},"ô":{"ha":813,"x_min":61,"x_max":757,"o":"m 351 -14 q 201 22 267 -14 q 98 122 135 57 q 61 278 61 188 q 77 432 61 358 q 125 567 93 506 q 206 675 157 629 q 319 747 254 721 q 464 772 383 772 q 617 737 553 772 q 716 634 681 701 q 751 472 751 567 q 736 324 751 396 q 690 190 721 251 q 611 83 658 129 q 499 12 564 38 q 351 -14 433 -14 m 368 153 q 429 170 401 153 q 479 218 457 188 q 516 289 501 249 q 538 376 531 329 q 546 472 546 424 q 537 541 546 511 q 506 588 528 571 q 449 606 485 606 q 382 585 411 606 q 331 530 353 564 q 295 453 310 496 q 274 365 281 410 q 267 278 267 319 q 292 185 267 217 q 368 153 317 153 m 208 858 q 274 921 236 885 q 348 995 311 957 q 408 1064 385 1033 l 638 1064 q 672 994 651 1032 q 716 922 693 957 q 757 858 739 886 l 757 842 l 622 842 q 588 875 607 856 q 549 915 568 894 q 513 956 529 936 q 434 895 472 922 q 356 842 396 868 l 208 842 l 208 858 z "},"õ":{"ha":813,"x_min":61,"x_max":793,"o":"m 351 -14 q 201 22 267 -14 q 98 122 135 57 q 61 278 61 188 q 77 432 61 358 q 125 567 93 506 q 206 675 157 629 q 319 747 254 721 q 464 772 383 772 q 617 737 553 772 q 716 634 681 701 q 751 472 751 567 q 736 324 751 396 q 690 190 721 251 q 611 83 658 129 q 499 12 564 38 q 351 -14 433 -14 m 368 153 q 429 170 401 153 q 479 218 457 188 q 516 289 501 249 q 538 376 531 329 q 546 472 546 424 q 537 541 546 511 q 506 588 528 571 q 449 606 485 606 q 382 585 411 606 q 331 530 353 564 q 295 453 310 496 q 274 365 281 410 q 267 278 267 319 q 292 185 267 217 q 368 153 317 153 m 225 840 q 266 960 239 914 q 331 1028 293 1006 q 415 1050 368 1050 q 475 1040 449 1050 q 523 1015 501 1029 q 565 990 544 1000 q 606 979 585 979 q 646 997 629 979 q 676 1051 663 1014 l 793 1051 q 750 931 778 978 q 685 863 722 885 q 599 842 647 842 q 540 852 565 842 q 492 877 514 863 q 451 902 471 892 q 408 913 431 913 q 371 894 388 913 q 344 840 354 875 l 225 840 z "},"ö":{"ha":813,"x_min":61,"x_max":751,"o":"m 351 -14 q 201 22 267 -14 q 98 122 135 57 q 61 278 61 188 q 77 432 61 358 q 125 567 93 506 q 206 675 157 629 q 319 747 254 721 q 464 772 383 772 q 617 737 553 772 q 716 634 681 701 q 751 472 751 567 q 736 324 751 396 q 690 190 721 251 q 611 83 658 129 q 499 12 564 38 q 351 -14 433 -14 m 368 153 q 429 170 401 153 q 479 218 457 188 q 516 289 501 249 q 538 376 531 329 q 546 472 546 424 q 537 541 546 511 q 506 588 528 571 q 449 606 485 606 q 382 585 411 606 q 331 530 353 564 q 295 453 310 496 q 274 365 281 410 q 267 278 267 319 q 292 185 267 217 q 368 153 317 153 m 632 863 q 570 879 594 863 q 546 938 546 896 q 573 1017 546 990 q 649 1044 600 1044 q 708 1028 683 1044 q 733 971 733 1013 q 709 892 733 922 q 632 863 685 863 m 372 863 q 310 879 335 863 q 286 938 286 896 q 313 1017 286 990 q 389 1044 340 1044 q 431 1038 413 1044 q 462 1015 450 1031 q 474 971 474 999 q 449 892 474 922 q 372 863 425 863 z "},"÷":{"ha":794,"x_min":74,"x_max":747,"o":"m 74 415 l 74 564 l 747 564 l 747 415 l 74 415 m 410 150 q 343 174 371 150 q 315 253 315 199 q 343 333 315 310 q 410 356 371 356 q 476 333 447 356 q 504 253 504 310 q 476 174 504 199 q 410 150 447 150 m 410 624 q 343 648 371 624 q 315 726 315 672 q 343 806 315 783 q 410 829 371 829 q 476 806 447 829 q 504 726 504 783 q 476 648 504 672 q 410 624 447 624 z "},"ø":{"ha":813,"x_min":29,"x_max":764,"o":"m 125 -69 l 29 4 l 110 104 q 74 183 86 140 q 61 278 61 226 q 77 432 61 358 q 125 567 93 506 q 206 675 157 629 q 319 747 254 721 q 464 772 383 772 q 547 763 508 772 q 618 735 586 754 l 665 794 l 764 719 l 707 649 q 740 569 729 614 q 751 472 751 525 q 736 324 751 396 q 690 190 721 251 q 611 83 658 129 q 499 12 564 38 q 351 -14 433 -14 q 269 -4 308 -14 q 199 22 231 6 l 125 -69 m 368 146 q 435 165 406 146 q 485 214 464 183 q 519 283 506 244 q 541 360 533 321 q 551 435 549 400 q 553 449 553 442 q 553 463 553 457 l 310 161 q 333 151 317 156 q 368 146 350 146 m 508 596 q 483 608 500 603 q 449 613 467 613 q 378 594 408 613 q 328 546 349 576 q 293 478 307 515 q 272 400 279 440 q 263 322 265 360 q 261 306 261 314 q 261 289 261 297 l 508 596 z "},"ù":{"ha":839,"x_min":75,"x_max":815,"o":"m 268 -14 q 160 13 203 -14 q 96 89 117 40 q 75 204 75 138 q 79 269 75 229 q 92 349 83 308 l 178 758 l 382 758 l 289 315 q 281 272 283 293 q 278 235 278 251 q 297 172 278 192 q 351 151 315 151 q 435 191 399 151 q 500 297 472 231 q 544 444 528 364 l 611 758 l 815 758 l 654 0 l 499 0 l 513 140 l 506 140 q 442 60 476 96 q 364 6 407 25 q 268 -14 321 -14 m 508 842 q 449 906 481 869 q 389 981 417 943 q 344 1050 361 1018 l 344 1064 l 556 1064 q 575 999 564 1033 q 601 928 586 964 q 633 858 617 893 l 633 842 l 508 842 z "},"ú":{"ha":839,"x_min":75,"x_max":815,"o":"m 268 -14 q 160 13 203 -14 q 96 89 117 40 q 75 204 75 138 q 79 269 75 229 q 92 349 83 308 l 178 758 l 382 758 l 289 315 q 281 272 283 293 q 278 235 278 251 q 297 172 278 192 q 351 151 315 151 q 435 191 399 151 q 500 297 472 231 q 544 444 528 364 l 611 758 l 815 758 l 654 0 l 499 0 l 513 140 l 506 140 q 442 60 476 96 q 364 6 407 25 q 268 -14 321 -14 m 406 858 q 456 920 429 885 q 508 994 482 956 q 556 1064 535 1032 l 783 1064 l 783 1053 q 740 1006 768 1035 q 676 947 711 978 q 608 889 642 917 q 547 842 574 861 l 406 842 l 406 858 z "},"û":{"ha":839,"x_min":75,"x_max":815,"o":"m 268 -14 q 160 13 203 -14 q 96 89 117 40 q 75 204 75 138 q 79 269 75 229 q 92 349 83 308 l 178 758 l 382 758 l 289 315 q 281 272 283 293 q 278 235 278 251 q 297 172 278 192 q 351 151 315 151 q 435 191 399 151 q 500 297 472 231 q 544 444 528 364 l 611 758 l 815 758 l 654 0 l 499 0 l 513 140 l 506 140 q 442 60 476 96 q 364 6 407 25 q 268 -14 321 -14 m 232 858 q 297 921 260 885 q 372 995 335 957 q 432 1064 408 1033 l 661 1064 q 696 994 675 1032 q 740 922 717 957 q 781 858 763 886 l 781 842 l 646 842 q 611 875 631 856 q 572 915 592 894 q 536 956 553 936 q 458 895 496 922 q 379 842 419 868 l 232 842 l 232 858 z "},"ü":{"ha":839,"x_min":75,"x_max":815,"o":"m 268 -14 q 160 13 203 -14 q 96 89 117 40 q 75 204 75 138 q 79 269 75 229 q 92 349 83 308 l 178 758 l 382 758 l 289 315 q 281 272 283 293 q 278 235 278 251 q 297 172 278 192 q 351 151 315 151 q 435 191 399 151 q 500 297 472 231 q 544 444 528 364 l 611 758 l 815 758 l 654 0 l 499 0 l 513 140 l 506 140 q 442 60 476 96 q 364 6 407 25 q 268 -14 321 -14 m 656 863 q 594 879 618 863 q 569 938 569 896 q 597 1017 569 990 q 672 1044 624 1044 q 732 1028 707 1044 q 757 971 757 1013 q 733 892 757 922 q 656 863 708 863 m 396 863 q 334 879 358 863 q 310 938 310 896 q 337 1017 310 990 q 413 1044 364 1044 q 455 1038 436 1044 q 485 1015 474 1031 q 497 971 497 999 q 473 892 497 922 q 396 863 449 863 z "},"ý":{"ha":721,"x_min":-96,"x_max":793,"o":"m 4 -333 q -56 -330 -32 -333 q -96 -321 -79 -326 l -96 -158 q -59 -164 -78 -161 q -17 -167 -40 -167 q 90 -129 49 -167 q 163 -33 132 -92 l 181 0 l 69 758 l 269 758 l 307 407 q 313 340 311 376 q 315 270 314 304 q 315 208 315 236 l 321 208 q 340 260 331 232 q 363 322 350 288 q 394 393 376 356 l 571 758 l 793 758 l 332 -108 q 241 -235 292 -185 q 131 -309 190 -285 q 4 -333 72 -333 m 321 858 q 371 920 344 885 q 424 994 397 956 q 471 1064 450 1032 l 699 1064 l 699 1053 q 655 1006 683 1035 q 592 947 626 978 q 523 889 557 917 q 463 842 489 861 l 321 842 l 321 858 z "},"þ":{"ha":826,"x_min":-46,"x_max":765,"o":"m -46 -333 l 249 1056 l 453 1056 l 408 847 q 383 751 399 804 q 354 657 368 697 l 360 657 q 420 721 389 696 q 485 759 451 746 q 551 772 518 772 q 706 704 646 772 q 765 496 765 636 q 752 358 765 429 q 712 221 739 288 q 644 101 685 154 q 549 17 604 49 q 425 -14 494 -14 q 344 1 379 -14 q 285 41 310 15 q 242 97 260 67 l 236 97 q 225 -4 232 42 q 207 -103 218 -50 l 158 -333 l -46 -333 m 379 151 q 439 171 411 151 q 489 224 467 190 q 526 300 511 257 q 550 392 542 343 q 558 488 558 440 q 533 577 558 547 q 463 607 507 607 q 386 575 419 607 q 330 491 353 543 q 294 379 307 439 q 290 343 292 361 q 286 307 288 325 q 285 271 285 289 q 308 184 285 217 q 379 151 331 151 z "},"ÿ":{"ha":721,"x_min":-96,"x_max":793,"o":"m 4 -333 q -56 -330 -32 -333 q -96 -321 -79 -326 l -96 -158 q -59 -164 -78 -161 q -17 -167 -40 -167 q 90 -129 49 -167 q 163 -33 132 -92 l 181 0 l 69 758 l 269 758 l 307 407 q 313 340 311 376 q 315 270 314 304 q 315 208 315 236 l 321 208 q 340 260 331 232 q 363 322 350 288 q 394 393 376 356 l 571 758 l 793 758 l 332 -108 q 241 -235 292 -185 q 131 -309 190 -285 q 4 -333 72 -333 m 571 863 q 509 879 533 863 q 485 938 485 896 q 512 1017 485 990 q 588 1044 539 1044 q 647 1028 622 1044 q 672 971 672 1013 q 648 892 672 922 q 571 863 624 863 m 311 863 q 249 879 274 863 q 225 938 225 896 q 252 1017 225 990 q 328 1044 279 1044 q 370 1038 351 1044 q 401 1015 389 1031 q 413 971 413 999 q 388 892 413 922 q 311 863 364 863 z "},"Ā":{"ha":872,"x_min":-83,"x_max":818,"o":"m -83 0 l 436 992 l 689 992 l 789 0 l 588 0 l 571 236 l 250 236 l 133 0 l -83 0 m 335 413 l 561 413 l 543 668 q 538 750 540 708 q 536 835 535 792 l 533 835 q 503 760 519 797 q 465 681 486 724 l 335 413 m 368 1075 l 399 1218 l 818 1218 l 788 1075 l 368 1075 z "},"ā":{"ha":825,"x_min":61,"x_max":801,"o":"m 275 -14 q 172 13 221 -14 q 92 101 122 40 q 61 261 61 161 q 77 408 61 335 q 123 547 93 482 q 196 663 153 613 q 294 743 239 714 q 413 772 349 772 q 497 758 461 772 q 558 719 532 744 q 600 661 583 694 l 606 661 l 644 758 l 801 758 l 640 0 l 488 0 l 497 99 l 492 99 q 433 40 465 65 q 363 1 401 15 q 275 -14 324 -14 m 356 151 q 433 185 397 151 q 495 271 469 218 q 532 382 521 324 q 540 437 538 410 q 542 496 542 464 q 517 576 542 544 q 447 607 492 607 q 390 588 417 607 q 341 535 364 568 q 302 458 318 501 q 277 367 286 415 q 268 271 268 319 q 291 181 268 211 q 356 151 314 151 m 294 842 l 325 985 l 744 985 l 714 842 l 294 842 z "},"Ă":{"ha":872,"x_min":-83,"x_max":846,"o":"m -83 0 l 436 992 l 689 992 l 789 0 l 588 0 l 571 236 l 250 236 l 133 0 l -83 0 m 335 413 l 561 413 l 543 668 q 538 750 540 708 q 536 835 535 792 l 533 835 q 503 760 519 797 q 465 681 486 724 l 335 413 m 579 1075 q 450 1102 499 1075 q 381 1172 401 1129 q 360 1260 360 1214 q 361 1285 360 1275 q 364 1304 363 1294 l 482 1304 q 493 1256 482 1275 q 527 1228 504 1238 q 586 1219 550 1219 q 673 1238 639 1219 q 718 1304 707 1257 l 846 1304 q 763 1135 828 1194 q 579 1075 699 1075 z "},"ă":{"ha":825,"x_min":61,"x_max":801,"o":"m 275 -14 q 172 13 221 -14 q 92 101 122 40 q 61 261 61 161 q 77 408 61 335 q 123 547 93 482 q 196 663 153 613 q 294 743 239 714 q 413 772 349 772 q 497 758 461 772 q 558 719 532 744 q 600 661 583 694 l 606 661 l 644 758 l 801 758 l 640 0 l 488 0 l 497 99 l 492 99 q 433 40 465 65 q 363 1 401 15 q 275 -14 324 -14 m 356 151 q 433 185 397 151 q 495 271 469 218 q 532 382 521 324 q 540 437 538 410 q 542 496 542 464 q 517 576 542 544 q 447 607 492 607 q 390 588 417 607 q 341 535 364 568 q 302 458 318 501 q 277 367 286 415 q 268 271 268 319 q 291 181 268 211 q 356 151 314 151 m 506 842 q 376 869 425 842 q 307 938 328 896 q 286 1026 286 981 q 288 1051 286 1042 q 290 1071 289 1061 l 408 1071 q 419 1023 408 1042 q 453 995 431 1004 q 513 986 476 986 q 599 1005 565 986 q 644 1071 633 1024 l 772 1071 q 690 901 754 961 q 506 842 625 842 z "},"Ą":{"ha":872,"x_min":-83,"x_max":789,"o":"m -83 0 l 436 992 l 689 992 l 789 0 l 588 0 l 571 236 l 250 236 l 133 0 l -83 0 m 335 413 l 561 413 l 543 668 q 538 750 540 708 q 536 835 535 792 l 533 835 q 503 760 519 797 q 465 681 486 724 l 335 413 m 589 -333 q 479 -297 519 -333 q 439 -201 439 -261 q 458 -121 439 -156 q 509 -56 476 -86 q 585 0 542 -26 l 719 0 q 658 -53 688 -26 q 609 -108 628 -79 q 590 -169 590 -136 q 601 -199 590 -187 q 631 -210 613 -210 q 666 -206 650 -210 q 700 -197 682 -203 l 700 -317 q 649 -328 675 -324 q 589 -333 622 -333 z "},"ą":{"ha":825,"x_min":61,"x_max":801,"o":"m 275 -14 q 172 13 221 -14 q 92 101 122 40 q 61 261 61 161 q 77 408 61 335 q 123 547 93 482 q 196 663 153 613 q 294 743 239 714 q 413 772 349 772 q 497 758 461 772 q 558 719 532 744 q 600 661 583 694 l 606 661 l 644 758 l 801 758 l 640 0 l 488 0 l 497 99 l 492 99 q 433 40 465 65 q 363 1 401 15 q 275 -14 324 -14 m 356 151 q 433 185 397 151 q 495 271 469 218 q 532 382 521 324 q 540 437 538 410 q 542 496 542 464 q 517 576 542 544 q 447 607 492 607 q 390 588 417 607 q 341 535 364 568 q 302 458 318 501 q 277 367 286 415 q 268 271 268 319 q 291 181 268 211 q 356 151 314 151 m 492 -333 q 382 -297 422 -333 q 342 -201 342 -261 q 360 -121 342 -156 q 412 -56 379 -86 q 488 0 444 -26 l 622 0 q 560 -53 590 -26 q 512 -108 531 -79 q 493 -169 493 -136 q 504 -199 493 -187 q 533 -210 515 -210 q 569 -206 553 -210 q 603 -197 585 -203 l 603 -317 q 551 -328 578 -324 q 492 -333 525 -333 z "},"Ć":{"ha":850,"x_min":83,"x_max":906,"o":"m 447 -14 q 246 34 326 -14 q 124 169 165 82 q 83 375 83 257 q 103 552 83 463 q 165 723 124 642 q 268 869 206 804 q 417 970 331 933 q 614 1007 504 1007 q 774 990 708 1007 q 906 936 840 972 l 825 767 q 727 813 778 794 q 614 832 676 832 q 495 805 547 832 q 405 731 443 778 q 342 627 367 685 q 306 507 318 569 q 294 386 294 444 q 341 218 294 274 q 489 163 388 163 q 603 178 546 163 q 718 215 661 193 l 718 39 q 607 4 676 22 q 447 -14 538 -14 m 511 1092 q 561 1153 535 1118 q 614 1227 588 1189 q 661 1297 640 1265 l 889 1297 l 889 1286 q 845 1240 874 1268 q 782 1181 817 1211 q 713 1122 747 1150 q 653 1075 679 1094 l 511 1075 l 511 1092 z "},"ć":{"ha":671,"x_min":61,"x_max":739,"o":"m 343 -14 q 201 15 265 -14 q 99 104 136 43 q 61 265 61 165 q 78 422 61 347 q 128 561 96 497 q 210 672 161 625 q 322 746 258 719 q 463 772 386 772 q 584 760 531 772 q 685 724 638 747 l 622 568 q 551 595 586 583 q 471 607 515 607 q 385 579 422 607 q 321 504 347 551 q 281 399 294 457 q 268 282 268 342 q 282 210 268 239 q 322 166 296 181 q 385 151 347 151 q 480 167 436 151 q 571 207 524 183 l 571 40 q 469 1 524 15 q 343 -14 414 -14 m 361 858 q 411 920 385 885 q 464 994 438 956 q 511 1064 490 1032 l 739 1064 l 739 1053 q 695 1006 724 1035 q 632 947 667 978 q 563 889 597 917 q 503 842 529 861 l 361 842 l 361 858 z "},"Ĉ":{"ha":850,"x_min":83,"x_max":906,"o":"m 447 -14 q 246 34 326 -14 q 124 169 165 82 q 83 375 83 257 q 103 552 83 463 q 165 723 124 642 q 268 869 206 804 q 417 970 331 933 q 614 1007 504 1007 q 774 990 708 1007 q 906 936 840 972 l 825 767 q 727 813 778 794 q 614 832 676 832 q 495 805 547 832 q 405 731 443 778 q 342 627 367 685 q 306 507 318 569 q 294 386 294 444 q 341 218 294 274 q 489 163 388 163 q 603 178 546 163 q 718 215 661 193 l 718 39 q 607 4 676 22 q 447 -14 538 -14 m 338 1092 q 403 1154 365 1118 q 477 1228 440 1190 q 538 1297 514 1267 l 767 1297 q 801 1228 781 1265 q 845 1155 822 1190 q 886 1092 868 1119 l 886 1075 l 751 1075 q 717 1108 736 1089 q 678 1149 697 1128 q 642 1189 658 1169 q 563 1128 601 1156 q 485 1075 525 1101 l 338 1075 l 338 1092 z "},"ĉ":{"ha":671,"x_min":61,"x_max":736,"o":"m 343 -14 q 201 15 265 -14 q 99 104 136 43 q 61 265 61 165 q 78 422 61 347 q 128 561 96 497 q 210 672 161 625 q 322 746 258 719 q 463 772 386 772 q 584 760 531 772 q 685 724 638 747 l 622 568 q 551 595 586 583 q 471 607 515 607 q 385 579 422 607 q 321 504 347 551 q 281 399 294 457 q 268 282 268 342 q 282 210 268 239 q 322 166 296 181 q 385 151 347 151 q 480 167 436 151 q 571 207 524 183 l 571 40 q 469 1 524 15 q 343 -14 414 -14 m 188 858 q 253 921 215 885 q 327 995 290 957 q 388 1064 364 1033 l 617 1064 q 651 994 631 1032 q 695 922 672 957 q 736 858 718 886 l 736 842 l 601 842 q 567 875 586 856 q 528 915 547 894 q 492 956 508 936 q 413 895 451 922 q 335 842 375 868 l 188 842 l 188 858 z "},"Ċ":{"ha":850,"x_min":83,"x_max":906,"o":"m 447 -14 q 246 34 326 -14 q 124 169 165 82 q 83 375 83 257 q 103 552 83 463 q 165 723 124 642 q 268 869 206 804 q 417 970 331 933 q 614 1007 504 1007 q 774 990 708 1007 q 906 936 840 972 l 825 767 q 727 813 778 794 q 614 832 676 832 q 495 805 547 832 q 405 731 443 778 q 342 627 367 685 q 306 507 318 569 q 294 386 294 444 q 341 218 294 274 q 489 163 388 163 q 603 178 546 163 q 718 215 661 193 l 718 39 q 607 4 676 22 q 447 -14 538 -14 m 631 1086 q 558 1105 588 1086 q 528 1169 528 1124 q 560 1258 528 1228 q 651 1289 593 1289 q 702 1281 679 1289 q 739 1256 725 1274 q 753 1207 753 1238 q 723 1119 753 1153 q 631 1086 693 1086 z "},"ċ":{"ha":671,"x_min":61,"x_max":685,"o":"m 343 -14 q 201 15 265 -14 q 99 104 136 43 q 61 265 61 165 q 78 422 61 347 q 128 561 96 497 q 210 672 161 625 q 322 746 258 719 q 463 772 386 772 q 584 760 531 772 q 685 724 638 747 l 622 568 q 551 595 586 583 q 471 607 515 607 q 385 579 422 607 q 321 504 347 551 q 281 399 294 457 q 268 282 268 342 q 282 210 268 239 q 322 166 296 181 q 385 151 347 151 q 480 167 436 151 q 571 207 524 183 l 571 40 q 469 1 524 15 q 343 -14 414 -14 m 481 853 q 408 872 438 853 q 378 936 378 890 q 410 1025 378 994 q 501 1056 443 1056 q 552 1048 529 1056 q 589 1022 575 1040 q 603 974 603 1004 q 573 886 603 919 q 481 853 543 853 z "},"Č":{"ha":850,"x_min":83,"x_max":938,"o":"m 447 -14 q 246 34 326 -14 q 124 169 165 82 q 83 375 83 257 q 103 552 83 463 q 165 723 124 642 q 268 869 206 804 q 417 970 331 933 q 614 1007 504 1007 q 774 990 708 1007 q 906 936 840 972 l 825 767 q 727 813 778 794 q 614 832 676 832 q 495 805 547 832 q 405 731 443 778 q 342 627 367 685 q 306 507 318 569 q 294 386 294 444 q 341 218 294 274 q 489 163 388 163 q 603 178 546 163 q 718 215 661 193 l 718 39 q 607 4 676 22 q 447 -14 538 -14 m 508 1075 q 474 1145 494 1108 q 431 1218 453 1182 q 389 1281 408 1254 l 389 1297 l 524 1297 q 560 1264 540 1283 q 599 1224 579 1244 q 633 1183 618 1203 q 712 1244 674 1217 q 790 1297 750 1271 l 938 1297 l 938 1281 q 872 1219 910 1256 q 799 1144 835 1182 q 738 1075 763 1106 l 508 1075 z "},"č":{"ha":671,"x_min":61,"x_max":788,"o":"m 343 -14 q 201 15 265 -14 q 99 104 136 43 q 61 265 61 165 q 78 422 61 347 q 128 561 96 497 q 210 672 161 625 q 322 746 258 719 q 463 772 386 772 q 584 760 531 772 q 685 724 638 747 l 622 568 q 551 595 586 583 q 471 607 515 607 q 385 579 422 607 q 321 504 347 551 q 281 399 294 457 q 268 282 268 342 q 282 210 268 239 q 322 166 296 181 q 385 151 347 151 q 480 167 436 151 q 571 207 524 183 l 571 40 q 469 1 524 15 q 343 -14 414 -14 m 358 842 q 324 912 344 875 q 281 985 303 949 q 239 1047 258 1021 l 239 1064 l 374 1064 q 410 1031 390 1050 q 449 990 429 1011 q 483 950 468 969 q 562 1010 524 983 q 640 1064 600 1038 l 788 1064 l 788 1047 q 722 985 760 1022 q 649 910 685 949 q 588 842 613 872 l 358 842 z "},"Ď":{"ha":940,"x_min":36,"x_max":928,"o":"m 36 0 l 246 992 l 514 992 q 797 895 696 992 q 897 617 897 799 q 874 408 897 504 q 804 237 850 313 q 691 108 758 161 q 536 28 624 56 q 342 0 449 0 l 36 0 m 351 174 q 474 197 419 174 q 567 260 528 219 q 633 354 607 300 q 672 473 660 408 q 685 606 685 538 q 634 767 685 715 q 494 819 583 819 l 417 819 l 279 174 l 351 174 m 499 1075 q 464 1145 485 1108 q 421 1218 443 1182 q 379 1281 399 1254 l 379 1297 l 514 1297 q 550 1264 531 1283 q 589 1224 569 1244 q 624 1183 608 1203 q 702 1244 664 1217 q 781 1297 740 1271 l 928 1297 l 928 1281 q 863 1219 900 1256 q 789 1144 825 1182 q 728 1075 753 1106 l 499 1075 z "},"ď":{"ha":938,"x_min":61,"x_max":1150,"o":"m 874 851 q 903 915 888 879 q 934 989 919 951 q 958 1056 949 1026 l 1150 1056 l 1150 1042 q 1109 976 1133 1011 q 1056 904 1085 940 q 996 833 1026 868 l 874 833 l 874 851 m 275 -14 q 172 13 221 -14 q 92 101 122 40 q 61 263 61 161 q 77 410 61 336 q 123 549 93 483 q 196 664 153 614 q 294 743 239 714 q 413 772 349 772 q 490 758 458 772 q 544 718 521 743 q 585 661 567 693 l 590 661 q 592 691 590 665 q 599 751 594 717 q 608 813 603 785 l 660 1056 l 864 1056 l 640 0 l 485 0 l 497 99 l 492 99 q 433 40 465 65 q 363 1 401 15 q 275 -14 324 -14 m 361 151 q 419 169 393 151 q 465 215 444 186 q 499 279 485 243 q 523 353 514 315 q 537 426 532 390 q 542 488 542 461 q 517 574 542 542 q 447 607 492 607 q 390 588 417 607 q 341 535 364 568 q 302 458 318 501 q 277 367 286 415 q 268 271 268 319 q 292 181 268 211 q 361 151 317 151 z "},"Đ":{"ha":940,"x_min":25,"x_max":897,"o":"m 25 404 l 63 576 l 526 576 l 490 404 l 25 404 m 36 0 l 246 992 l 514 992 q 797 895 696 992 q 897 617 897 799 q 874 408 897 504 q 804 237 850 313 q 691 108 758 161 q 536 28 624 56 q 342 0 449 0 l 36 0 m 351 174 q 474 197 419 174 q 567 260 528 219 q 633 354 607 300 q 672 473 660 408 q 685 606 685 538 q 634 767 685 715 q 494 819 583 819 l 417 819 l 279 174 l 351 174 z "},"đ":{"ha":825,"x_min":61,"x_max":944,"o":"m 282 -14 q 169 16 219 -14 q 90 108 119 46 q 61 263 61 169 q 75 389 61 324 q 116 515 89 454 q 184 625 143 576 q 280 702 225 674 q 404 731 335 731 q 484 717 451 731 q 540 681 517 704 q 579 629 564 658 l 585 629 q 586 663 585 642 q 591 707 588 683 q 597 750 594 731 l 608 811 l 408 811 l 436 946 l 636 946 l 660 1056 l 864 1056 l 840 946 l 944 946 l 917 811 l 811 811 l 640 0 l 488 0 l 497 99 l 492 99 q 437 44 467 69 q 369 2 407 18 q 282 -14 331 -14 m 364 151 q 417 165 393 151 q 460 203 440 179 q 494 259 479 228 q 520 325 510 290 q 535 394 531 360 q 540 457 540 428 q 518 535 540 506 q 447 565 496 565 q 388 549 415 565 q 338 502 360 532 q 300 435 315 472 q 276 355 285 397 q 268 271 268 313 q 294 181 268 211 q 364 151 319 151 z "},"Ē":{"ha":753,"x_min":36,"x_max":800,"o":"m 36 0 l 246 992 l 800 992 l 764 819 l 417 819 l 371 601 l 694 601 l 657 429 l 333 429 l 279 174 l 626 174 l 590 0 l 36 0 m 313 1075 l 343 1218 l 763 1218 l 732 1075 l 313 1075 z "},"ē":{"ha":774,"x_min":61,"x_max":739,"o":"m 361 -14 q 205 18 272 -14 q 99 115 138 50 q 61 279 61 181 q 88 463 61 375 q 169 621 115 551 q 301 731 222 690 q 485 772 381 772 q 676 714 613 772 q 739 565 739 656 q 712 457 739 506 q 631 374 685 408 q 496 320 578 339 q 303 301 414 301 l 268 301 q 267 287 267 293 q 267 274 267 281 q 302 176 267 213 q 401 140 338 140 q 510 154 461 140 q 625 199 558 168 l 625 44 q 504 1 565 15 q 361 -14 443 -14 m 321 439 q 449 456 400 439 q 520 501 497 472 q 543 561 543 529 q 524 609 543 593 q 472 625 506 625 q 397 601 435 625 q 331 536 360 578 q 290 439 303 494 l 321 439 m 278 842 l 308 985 l 728 985 l 697 842 l 278 842 z "},"Ĕ":{"ha":753,"x_min":36,"x_max":800,"o":"m 36 0 l 246 992 l 800 992 l 764 819 l 417 819 l 371 601 l 694 601 l 657 429 l 333 429 l 279 174 l 626 174 l 590 0 l 36 0 m 524 1075 q 394 1102 443 1075 q 325 1172 346 1129 q 304 1260 304 1214 q 306 1285 304 1275 q 308 1304 307 1294 l 426 1304 q 438 1256 426 1275 q 472 1228 449 1238 q 531 1219 494 1219 q 617 1238 583 1219 q 663 1304 651 1257 l 790 1304 q 708 1135 772 1194 q 524 1075 643 1075 z "},"ĕ":{"ha":774,"x_min":61,"x_max":756,"o":"m 361 -14 q 205 18 272 -14 q 99 115 138 50 q 61 279 61 181 q 88 463 61 375 q 169 621 115 551 q 301 731 222 690 q 485 772 381 772 q 676 714 613 772 q 739 565 739 656 q 712 457 739 506 q 631 374 685 408 q 496 320 578 339 q 303 301 414 301 l 268 301 q 267 287 267 293 q 267 274 267 281 q 302 176 267 213 q 401 140 338 140 q 510 154 461 140 q 625 199 558 168 l 625 44 q 504 1 565 15 q 361 -14 443 -14 m 321 439 q 449 456 400 439 q 520 501 497 472 q 543 561 543 529 q 524 609 543 593 q 472 625 506 625 q 397 601 435 625 q 331 536 360 578 q 290 439 303 494 l 321 439 m 489 842 q 360 869 408 842 q 290 938 311 896 q 269 1026 269 981 q 271 1051 269 1042 q 274 1071 272 1061 l 392 1071 q 403 1023 392 1042 q 437 995 414 1004 q 496 986 460 986 q 583 1005 549 986 q 628 1071 617 1024 l 756 1071 q 673 901 738 961 q 489 842 608 842 z "},"Ė":{"ha":753,"x_min":36,"x_max":800,"o":"m 36 0 l 246 992 l 800 992 l 764 819 l 417 819 l 371 601 l 694 601 l 657 429 l 333 429 l 279 174 l 626 174 l 590 0 l 36 0 m 536 1086 q 463 1105 493 1086 q 433 1169 433 1124 q 466 1258 433 1228 q 557 1289 499 1289 q 608 1281 585 1289 q 644 1256 631 1274 q 658 1207 658 1238 q 628 1119 658 1153 q 536 1086 599 1086 z "},"ė":{"ha":774,"x_min":61,"x_max":739,"o":"m 361 -14 q 205 18 272 -14 q 99 115 138 50 q 61 279 61 181 q 88 463 61 375 q 169 621 115 551 q 301 731 222 690 q 485 772 381 772 q 676 714 613 772 q 739 565 739 656 q 712 457 739 506 q 631 374 685 408 q 496 320 578 339 q 303 301 414 301 l 268 301 q 267 287 267 293 q 267 274 267 281 q 302 176 267 213 q 401 140 338 140 q 510 154 461 140 q 625 199 558 168 l 625 44 q 504 1 565 15 q 361 -14 443 -14 m 321 439 q 449 456 400 439 q 520 501 497 472 q 543 561 543 529 q 524 609 543 593 q 472 625 506 625 q 397 601 435 625 q 331 536 360 578 q 290 439 303 494 l 321 439 m 501 853 q 428 872 458 853 q 399 936 399 890 q 431 1025 399 994 q 522 1056 464 1056 q 573 1048 550 1056 q 610 1022 596 1040 q 624 974 624 1004 q 594 886 624 919 q 501 853 564 853 z "},"Ę":{"ha":753,"x_min":36,"x_max":800,"o":"m 36 0 l 246 992 l 800 992 l 764 819 l 417 819 l 371 601 l 694 601 l 657 429 l 333 429 l 279 174 l 626 174 l 590 0 l 36 0 m 410 -333 q 300 -297 340 -333 q 260 -201 260 -261 q 278 -121 260 -156 q 330 -56 297 -86 q 406 0 363 -26 l 540 0 q 478 -53 508 -26 q 430 -108 449 -79 q 411 -169 411 -136 q 422 -199 411 -187 q 451 -210 433 -210 q 487 -206 471 -210 q 521 -197 503 -203 l 521 -317 q 469 -328 496 -324 q 410 -333 443 -333 z "},"ę":{"ha":774,"x_min":61,"x_max":739,"o":"m 425 -333 q 315 -297 356 -333 q 275 -201 275 -261 q 294 -121 275 -156 q 346 -56 313 -86 q 421 0 379 -26 l 589 33 q 503 -38 540 -4 q 447 -104 467 -72 q 426 -169 426 -136 q 438 -199 426 -187 q 467 -210 449 -210 q 502 -206 486 -210 q 536 -197 518 -203 l 536 -317 q 485 -328 511 -324 q 425 -333 458 -333 m 361 -14 q 205 18 272 -14 q 99 115 138 50 q 61 279 61 181 q 88 463 61 375 q 169 621 115 551 q 301 731 222 690 q 485 772 381 772 q 676 714 613 772 q 739 565 739 656 q 712 457 739 506 q 631 374 685 408 q 496 320 578 339 q 303 301 414 301 l 268 301 q 267 287 267 293 q 267 274 267 281 q 302 176 267 213 q 401 140 338 140 q 510 154 461 140 q 625 199 558 168 l 625 44 q 504 1 565 15 q 361 -14 443 -14 m 321 439 q 449 456 400 439 q 520 501 497 472 q 543 561 543 529 q 524 609 543 593 q 472 625 506 625 q 397 601 435 625 q 331 536 360 578 q 290 439 303 494 l 321 439 z "},"Ě":{"ha":753,"x_min":36,"x_max":843,"o":"m 36 0 l 246 992 l 800 992 l 764 819 l 417 819 l 371 601 l 694 601 l 657 429 l 333 429 l 279 174 l 626 174 l 590 0 l 36 0 m 414 1075 q 379 1145 400 1108 q 336 1218 358 1182 q 294 1281 314 1254 l 294 1297 l 429 1297 q 465 1264 446 1283 q 504 1224 485 1244 q 539 1183 524 1203 q 617 1244 579 1217 q 696 1297 656 1271 l 843 1297 l 843 1281 q 778 1219 815 1256 q 704 1144 740 1182 q 643 1075 668 1106 l 414 1075 z "},"ě":{"ha":774,"x_min":61,"x_max":808,"o":"m 361 -14 q 205 18 272 -14 q 99 115 138 50 q 61 279 61 181 q 88 463 61 375 q 169 621 115 551 q 301 731 222 690 q 485 772 381 772 q 676 714 613 772 q 739 565 739 656 q 712 457 739 506 q 631 374 685 408 q 496 320 578 339 q 303 301 414 301 l 268 301 q 267 287 267 293 q 267 274 267 281 q 302 176 267 213 q 401 140 338 140 q 510 154 461 140 q 625 199 558 168 l 625 44 q 504 1 565 15 q 361 -14 443 -14 m 321 439 q 449 456 400 439 q 520 501 497 472 q 543 561 543 529 q 524 609 543 593 q 472 625 506 625 q 397 601 435 625 q 331 536 360 578 q 290 439 303 494 l 321 439 m 379 842 q 344 912 365 875 q 301 985 324 949 q 260 1047 279 1021 l 260 1064 l 394 1064 q 431 1031 411 1050 q 469 990 450 1011 q 504 950 489 969 q 583 1010 544 983 q 661 1064 621 1038 l 808 1064 l 808 1047 q 743 985 781 1022 q 669 910 706 949 q 608 842 633 872 l 379 842 z "},"Ĝ":{"ha":958,"x_min":83,"x_max":942,"o":"m 450 -14 q 181 85 278 -14 q 83 372 83 183 q 107 567 83 474 q 178 741 131 661 q 294 881 225 821 q 457 974 364 940 q 664 1007 550 1007 q 808 991 742 1007 q 942 940 875 975 l 864 769 q 764 813 814 797 q 654 829 714 829 q 495 790 563 829 q 383 687 428 751 q 317 544 339 622 q 294 389 294 467 q 315 265 294 315 q 380 188 336 214 q 494 163 424 163 q 555 167 529 163 q 610 179 581 172 l 654 382 l 474 382 l 511 557 l 893 557 l 783 40 q 640 2 715 18 q 450 -14 564 -14 m 363 1092 q 428 1154 390 1118 q 502 1228 465 1190 q 563 1297 539 1267 l 792 1297 q 826 1228 806 1265 q 870 1155 847 1190 q 911 1092 893 1119 l 911 1075 l 776 1075 q 742 1108 761 1089 q 703 1149 722 1128 q 667 1189 683 1169 q 588 1128 626 1156 q 510 1075 550 1101 l 363 1075 l 363 1092 z "},"ĝ":{"ha":825,"x_min":18,"x_max":801,"o":"m 265 -333 q 125 -320 181 -333 q 18 -285 69 -307 l 18 -107 q 92 -138 54 -125 q 170 -158 129 -151 q 254 -165 211 -165 q 370 -133 325 -165 q 433 -31 415 -100 l 439 -10 q 456 48 446 15 q 472 101 467 81 l 467 101 q 414 44 443 71 q 349 2 385 18 q 265 -14 313 -14 q 165 15 211 -14 q 90 105 118 44 q 61 261 61 165 q 77 408 61 335 q 124 547 93 482 q 197 663 154 613 q 292 743 239 714 q 408 772 346 772 q 492 758 458 772 q 552 720 526 744 q 600 661 578 696 l 606 661 l 644 758 l 801 758 l 636 -18 q 559 -206 611 -137 q 433 -304 507 -275 q 265 -333 360 -333 m 364 151 q 417 167 393 151 q 460 208 440 182 q 496 268 481 235 q 521 339 511 301 q 536 415 531 376 q 542 488 542 453 q 517 574 542 542 q 449 607 492 607 q 390 588 418 607 q 340 535 363 568 q 302 458 318 501 q 277 367 286 415 q 268 271 268 319 q 294 181 268 211 q 364 151 319 151 m 221 858 q 286 921 249 885 q 360 995 324 957 q 421 1064 397 1033 l 650 1064 q 685 994 664 1032 q 728 922 706 957 q 769 858 751 886 l 769 842 l 635 842 q 600 875 619 856 q 561 915 581 894 q 525 956 542 936 q 447 895 485 922 q 368 842 408 868 l 221 842 l 221 858 z "},"Ğ":{"ha":958,"x_min":83,"x_max":942,"o":"m 450 -14 q 181 85 278 -14 q 83 372 83 183 q 107 567 83 474 q 178 741 131 661 q 294 881 225 821 q 457 974 364 940 q 664 1007 550 1007 q 808 991 742 1007 q 942 940 875 975 l 864 769 q 764 813 814 797 q 654 829 714 829 q 495 790 563 829 q 383 687 428 751 q 317 544 339 622 q 294 389 294 467 q 315 265 294 315 q 380 188 336 214 q 494 163 424 163 q 555 167 529 163 q 610 179 581 172 l 654 382 l 474 382 l 511 557 l 893 557 l 783 40 q 640 2 715 18 q 450 -14 564 -14 m 643 1075 q 514 1102 563 1075 q 444 1172 465 1129 q 424 1260 424 1214 q 425 1285 424 1275 q 428 1304 426 1294 l 546 1304 q 557 1256 546 1275 q 591 1228 568 1238 q 650 1219 614 1219 q 737 1238 703 1219 q 782 1304 771 1257 l 910 1304 q 827 1135 892 1194 q 643 1075 763 1075 z "},"ğ":{"ha":825,"x_min":18,"x_max":801,"o":"m 265 -333 q 125 -320 181 -333 q 18 -285 69 -307 l 18 -107 q 92 -138 54 -125 q 170 -158 129 -151 q 254 -165 211 -165 q 370 -133 325 -165 q 433 -31 415 -100 l 439 -10 q 456 48 446 15 q 472 101 467 81 l 467 101 q 414 44 443 71 q 349 2 385 18 q 265 -14 313 -14 q 165 15 211 -14 q 90 105 118 44 q 61 261 61 165 q 77 408 61 335 q 124 547 93 482 q 197 663 154 613 q 292 743 239 714 q 408 772 346 772 q 492 758 458 772 q 552 720 526 744 q 600 661 578 696 l 606 661 l 644 758 l 801 758 l 636 -18 q 559 -206 611 -137 q 433 -304 507 -275 q 265 -333 360 -333 m 364 151 q 417 167 393 151 q 460 208 440 182 q 496 268 481 235 q 521 339 511 301 q 536 415 531 376 q 542 488 542 453 q 517 574 542 542 q 449 607 492 607 q 390 588 418 607 q 340 535 363 568 q 302 458 318 501 q 277 367 286 415 q 268 271 268 319 q 294 181 268 211 q 364 151 319 151 m 501 842 q 372 869 421 842 q 303 938 324 896 q 282 1026 282 981 q 283 1051 282 1042 q 286 1071 285 1061 l 404 1071 q 415 1023 404 1042 q 449 995 426 1004 q 508 986 472 986 q 595 1005 561 986 q 640 1071 629 1024 l 768 1071 q 685 901 750 961 q 501 842 621 842 z "},"Ġ":{"ha":958,"x_min":83,"x_max":942,"o":"m 450 -14 q 181 85 278 -14 q 83 372 83 183 q 107 567 83 474 q 178 741 131 661 q 294 881 225 821 q 457 974 364 940 q 664 1007 550 1007 q 808 991 742 1007 q 942 940 875 975 l 864 769 q 764 813 814 797 q 654 829 714 829 q 495 790 563 829 q 383 687 428 751 q 317 544 339 622 q 294 389 294 467 q 315 265 294 315 q 380 188 336 214 q 494 163 424 163 q 555 167 529 163 q 610 179 581 172 l 654 382 l 474 382 l 511 557 l 893 557 l 783 40 q 640 2 715 18 q 450 -14 564 -14 m 656 1086 q 583 1105 613 1086 q 553 1169 553 1124 q 585 1258 553 1228 q 676 1289 618 1289 q 727 1281 704 1289 q 764 1256 750 1274 q 778 1207 778 1238 q 748 1119 778 1153 q 656 1086 718 1086 z "},"ġ":{"ha":825,"x_min":18,"x_max":801,"o":"m 265 -333 q 125 -320 181 -333 q 18 -285 69 -307 l 18 -107 q 92 -138 54 -125 q 170 -158 129 -151 q 254 -165 211 -165 q 370 -133 325 -165 q 433 -31 415 -100 l 439 -10 q 456 48 446 15 q 472 101 467 81 l 467 101 q 414 44 443 71 q 349 2 385 18 q 265 -14 313 -14 q 165 15 211 -14 q 90 105 118 44 q 61 261 61 165 q 77 408 61 335 q 124 547 93 482 q 197 663 154 613 q 292 743 239 714 q 408 772 346 772 q 492 758 458 772 q 552 720 526 744 q 600 661 578 696 l 606 661 l 644 758 l 801 758 l 636 -18 q 559 -206 611 -137 q 433 -304 507 -275 q 265 -333 360 -333 m 364 151 q 417 167 393 151 q 460 208 440 182 q 496 268 481 235 q 521 339 511 301 q 536 415 531 376 q 542 488 542 453 q 517 574 542 542 q 449 607 492 607 q 390 588 418 607 q 340 535 363 568 q 302 458 318 501 q 277 367 286 415 q 268 271 268 319 q 294 181 268 211 q 364 151 319 151 m 514 853 q 441 872 471 853 q 411 936 411 890 q 444 1025 411 994 q 535 1056 476 1056 q 585 1048 563 1056 q 622 1022 608 1040 q 636 974 636 1004 q 606 886 636 919 q 514 853 576 853 z "},"Ģ":{"ha":958,"x_min":83,"x_max":942,"o":"m 450 -14 q 181 85 278 -14 q 83 372 83 183 q 107 567 83 474 q 178 741 131 661 q 294 881 225 821 q 457 974 364 940 q 664 1007 550 1007 q 808 991 742 1007 q 942 940 875 975 l 864 769 q 764 813 814 797 q 654 829 714 829 q 495 790 563 829 q 383 687 428 751 q 317 544 339 622 q 294 389 294 467 q 315 265 294 315 q 380 188 336 214 q 494 163 424 163 q 555 167 529 163 q 610 179 581 172 l 654 382 l 474 382 l 511 557 l 893 557 l 783 40 q 640 2 715 18 q 450 -14 564 -14 m 282 -289 q 312 -225 296 -261 q 342 -151 328 -189 q 367 -85 357 -114 l 558 -85 l 558 -99 q 517 -165 542 -129 q 464 -236 493 -200 q 404 -307 435 -272 l 282 -307 l 282 -289 z "},"ģ":{"ha":825,"x_min":18,"x_max":801,"o":"m 399 856 q 440 922 415 886 q 493 994 464 957 q 553 1064 522 1031 l 675 1064 l 675 1046 q 646 983 663 1019 q 615 909 629 946 q 590 842 600 872 l 399 842 l 399 856 m 265 -333 q 125 -320 181 -333 q 18 -285 69 -307 l 18 -107 q 92 -138 54 -125 q 170 -158 129 -151 q 254 -165 211 -165 q 370 -133 325 -165 q 433 -31 415 -100 l 439 -10 q 456 48 446 15 q 472 101 467 81 l 467 101 q 414 44 443 71 q 349 2 385 18 q 265 -14 313 -14 q 165 15 211 -14 q 90 105 118 44 q 61 261 61 165 q 77 408 61 335 q 124 547 93 482 q 197 663 154 613 q 292 743 239 714 q 408 772 346 772 q 492 758 458 772 q 552 720 526 744 q 600 661 578 696 l 606 661 l 644 758 l 801 758 l 636 -18 q 559 -206 611 -137 q 433 -304 507 -275 q 265 -333 360 -333 m 364 151 q 417 167 393 151 q 460 208 440 182 q 496 268 481 235 q 521 339 511 301 q 536 415 531 376 q 542 488 542 453 q 517 574 542 542 q 449 607 492 607 q 390 588 418 607 q 340 535 363 568 q 302 458 318 501 q 277 367 286 415 q 268 271 268 319 q 294 181 268 211 q 364 151 319 151 z "},"Ĥ":{"ha":972,"x_min":36,"x_max":979,"o":"m 36 0 l 246 992 l 453 992 l 371 603 l 690 603 l 772 992 l 979 992 l 769 0 l 563 0 l 653 428 l 333 428 l 243 0 l 36 0 m 343 1092 q 408 1154 371 1118 q 483 1228 446 1190 q 543 1297 519 1267 l 772 1297 q 807 1228 786 1265 q 851 1155 828 1190 q 892 1092 874 1119 l 892 1075 l 757 1075 q 722 1108 742 1089 q 683 1149 703 1128 q 647 1189 664 1169 q 569 1128 607 1156 q 490 1075 531 1101 l 343 1075 l 343 1092 z "},"ĥ":{"ha":839,"x_min":25,"x_max":768,"o":"m 25 0 l 249 1056 l 453 1056 l 414 872 q 397 801 408 842 q 375 723 386 761 q 354 657 364 685 l 360 657 q 419 717 388 692 q 490 758 451 743 q 572 772 528 772 q 681 745 638 772 q 747 669 725 718 q 768 554 768 621 q 764 498 768 529 q 753 432 760 467 l 663 0 l 458 0 l 551 443 q 560 487 557 467 q 563 524 563 507 q 544 587 563 567 q 489 607 525 607 q 406 567 443 607 q 341 461 368 528 q 296 314 314 394 l 229 0 l 25 0 m 85 1156 q 150 1218 113 1182 q 224 1292 188 1254 q 285 1361 261 1331 l 514 1361 q 549 1292 528 1329 q 592 1219 569 1254 q 633 1156 615 1183 l 633 1139 l 499 1139 q 464 1172 483 1153 q 425 1213 444 1192 q 389 1253 406 1233 q 310 1192 349 1219 q 232 1139 272 1165 l 85 1139 l 85 1156 z "},"Ħ":{"ha":972,"x_min":36,"x_max":1072,"o":"m 36 0 l 189 725 l 69 725 l 97 860 l 218 860 l 246 992 l 453 992 l 425 860 l 744 860 l 772 992 l 979 992 l 951 860 l 1072 860 l 1044 725 l 922 725 l 769 0 l 563 0 l 653 428 l 333 428 l 243 0 l 36 0 m 371 603 l 690 603 l 715 725 l 396 725 l 371 603 z "},"ħ":{"ha":839,"x_min":25,"x_max":760,"o":"m 25 0 l 197 811 l 88 811 l 117 946 l 225 946 l 249 1056 l 453 1056 l 431 946 l 633 946 l 604 811 l 401 811 q 381 731 392 769 q 363 664 371 693 q 347 615 354 635 l 353 615 q 413 676 381 650 q 482 716 444 701 q 564 731 519 731 q 673 703 629 731 q 738 628 717 676 q 760 513 760 579 q 756 456 760 488 q 744 390 751 425 l 663 0 l 458 0 l 543 401 q 551 445 549 425 q 554 482 554 465 q 536 545 554 525 q 482 565 518 565 q 398 526 436 565 q 333 419 360 486 q 288 272 306 353 l 229 0 l 25 0 z "},"Ĩ":{"ha":532,"x_min":-40,"x_max":704,"o":"m -40 0 l -15 119 l 111 175 l 247 817 l 144 872 l 169 992 l 608 992 l 583 872 l 454 817 l 318 175 l 424 119 l 399 0 l -40 0 m 136 1074 q 177 1193 150 1147 q 242 1261 204 1239 q 326 1283 279 1283 q 386 1273 360 1283 q 434 1248 413 1263 q 476 1223 456 1233 q 517 1213 496 1213 q 557 1230 540 1213 q 588 1285 574 1247 l 704 1285 q 661 1165 689 1211 q 596 1097 633 1118 q 510 1075 558 1075 q 451 1085 476 1075 q 403 1110 425 1096 q 362 1135 382 1125 q 319 1146 342 1146 q 282 1127 299 1146 q 256 1074 265 1108 l 136 1074 z "},"ĩ":{"ha":413,"x_min":25,"x_max":604,"o":"m 25 0 l 186 758 l 390 758 l 229 0 l 25 0 m 36 840 q 77 960 50 914 q 142 1028 104 1006 q 226 1050 179 1050 q 286 1040 260 1050 q 334 1015 313 1029 q 376 990 356 1000 q 417 979 396 979 q 457 997 440 979 q 488 1051 474 1014 l 604 1051 q 561 931 589 978 q 496 863 533 885 q 410 842 458 842 q 351 852 376 842 q 303 877 325 863 q 262 902 282 892 q 219 913 242 913 q 182 894 199 913 q 156 840 165 875 l 36 840 z "},"Ī":{"ha":532,"x_min":-40,"x_max":639,"o":"m -40 0 l -15 119 l 111 175 l 247 817 l 144 872 l 169 992 l 608 992 l 583 872 l 454 817 l 318 175 l 424 119 l 399 0 l -40 0 m 189 1075 l 219 1218 l 639 1218 l 608 1075 l 189 1075 z "},"ī":{"ha":413,"x_min":25,"x_max":539,"o":"m 25 0 l 186 758 l 390 758 l 229 0 l 25 0 m 89 842 l 119 985 l 539 985 l 508 842 l 89 842 z "},"Ĭ":{"ha":532,"x_min":-40,"x_max":667,"o":"m -40 0 l -15 119 l 111 175 l 247 817 l 144 872 l 169 992 l 608 992 l 583 872 l 454 817 l 318 175 l 424 119 l 399 0 l -40 0 m 400 1075 q 271 1102 319 1075 q 201 1172 222 1129 q 181 1260 181 1214 q 182 1285 181 1275 q 185 1304 183 1294 l 303 1304 q 314 1256 303 1275 q 348 1228 325 1238 q 407 1219 371 1219 q 494 1238 460 1219 q 539 1304 528 1257 l 667 1304 q 584 1135 649 1194 q 400 1075 519 1075 z "},"ĭ":{"ha":413,"x_min":25,"x_max":567,"o":"m 25 0 l 186 758 l 390 758 l 229 0 l 25 0 m 300 842 q 171 869 219 842 q 101 938 122 896 q 81 1026 81 981 q 82 1051 81 1042 q 85 1071 83 1061 l 203 1071 q 214 1023 203 1042 q 248 995 225 1004 q 307 986 271 986 q 394 1005 360 986 q 439 1071 428 1024 l 567 1071 q 484 901 549 961 q 300 842 419 842 z "},"Į":{"ha":532,"x_min":-40,"x_max":608,"o":"m -40 0 l -15 119 l 111 175 l 247 817 l 144 872 l 169 992 l 608 992 l 583 872 l 454 817 l 318 175 l 424 119 l 399 0 l -40 0 m 189 -333 q 79 -297 119 -333 q 39 -201 39 -261 q 58 -121 39 -156 q 109 -56 76 -86 q 185 0 142 -26 l 319 0 q 258 -53 288 -26 q 209 -108 228 -79 q 190 -169 190 -136 q 201 -199 190 -187 q 231 -210 213 -210 q 266 -206 250 -210 q 300 -197 282 -203 l 300 -317 q 249 -328 275 -324 q 189 -333 222 -333 z "},"į":{"ha":413,"x_min":-50,"x_max":443,"o":"m 25 0 l 186 758 l 390 758 l 229 0 l 25 0 m 321 853 q 248 872 278 853 q 218 936 218 890 q 233 1001 218 975 q 275 1042 247 1028 q 342 1056 303 1056 q 413 1038 382 1056 q 443 974 443 1019 q 413 886 443 919 q 321 853 383 853 m 100 -333 q -10 -297 31 -333 q -50 -201 -50 -261 q -31 -121 -50 -156 q 20 -56 -12 -86 q 96 0 53 -26 l 231 0 q 169 -53 199 -26 q 120 -108 139 -79 q 101 -169 101 -136 q 113 -199 101 -187 q 142 -210 124 -210 q 177 -206 161 -210 q 211 -197 193 -203 l 211 -317 q 160 -328 186 -324 q 100 -333 133 -333 z "},"İ":{"ha":532,"x_min":-40,"x_max":608,"o":"m -40 0 l -15 119 l 111 175 l 247 817 l 144 872 l 169 992 l 608 992 l 583 872 l 454 817 l 318 175 l 424 119 l 399 0 l -40 0 m 413 1086 q 340 1105 369 1086 q 310 1169 310 1124 q 342 1258 310 1228 q 433 1289 375 1289 q 484 1281 461 1289 q 521 1256 507 1274 q 535 1207 535 1238 q 505 1119 535 1153 q 413 1086 475 1086 z "},"Ĳ":{"ha":992,"x_min":-40,"x_max":1000,"o":"m -40 0 l -15 119 l 111 175 l 247 817 l 144 872 l 169 992 l 608 992 l 583 872 l 454 817 l 318 175 l 424 119 l 399 0 l -40 0 m 440 -292 q 368 -286 397 -292 q 314 -274 339 -281 l 314 -101 q 365 -111 338 -107 q 425 -115 392 -115 q 503 -97 469 -115 q 559 -41 536 -79 q 594 56 582 -3 l 793 992 l 1000 992 l 794 26 q 725 -158 771 -87 q 609 -260 679 -228 q 440 -292 539 -292 z "},"ĳ":{"ha":825,"x_min":25,"x_max":857,"o":"m 25 0 l 186 758 l 390 758 l 229 0 l 25 0 m 321 853 q 248 872 278 853 q 218 936 218 890 q 233 1001 218 975 q 275 1042 247 1028 q 342 1056 303 1056 q 413 1038 382 1056 q 443 974 443 1019 q 413 886 443 919 q 321 853 383 853 m 351 -333 q 287 -328 319 -333 q 233 -317 254 -324 l 233 -153 q 274 -163 256 -160 q 311 -167 292 -167 q 363 -155 339 -167 q 403 -117 386 -143 q 428 -51 419 -92 l 600 758 l 804 758 l 625 -82 q 579 -208 611 -151 q 492 -299 547 -265 q 351 -333 438 -333 m 735 853 q 662 872 692 853 q 632 936 632 890 q 647 1001 632 975 q 689 1042 661 1028 q 756 1056 717 1056 q 826 1038 796 1056 q 857 974 857 1019 q 827 886 857 919 q 735 853 797 853 z "},"Ĵ":{"ha":460,"x_min":-218,"x_max":642,"o":"m -92 -292 q -164 -286 -135 -292 q -218 -274 -193 -281 l -218 -101 q -167 -111 -194 -107 q -107 -115 -140 -115 q -29 -97 -62 -115 q 27 -41 4 -79 q 63 56 50 -3 l 261 992 l 468 992 l 263 26 q 193 -158 239 -87 q 77 -260 147 -228 q -92 -292 7 -292 m 93 1092 q 158 1154 121 1118 q 233 1228 196 1190 q 293 1297 269 1267 l 522 1297 q 557 1228 536 1265 q 601 1155 578 1190 q 642 1092 624 1119 l 642 1075 l 507 1075 q 472 1108 492 1089 q 433 1149 453 1128 q 397 1189 414 1169 q 319 1128 357 1156 q 240 1075 281 1101 l 93 1075 l 93 1092 z "},"ĵ":{"ha":413,"x_min":-178,"x_max":567,"o":"m -60 -333 q -124 -328 -92 -333 q -178 -317 -157 -324 l -178 -153 q -137 -163 -156 -160 q -100 -167 -119 -167 q -49 -155 -72 -167 q -8 -117 -25 -143 q 17 -51 8 -92 l 189 758 l 393 758 l 214 -82 q 168 -208 200 -151 q 81 -299 136 -265 q -60 -333 26 -333 m 18 858 q 83 921 46 885 q 158 995 121 957 q 218 1064 194 1033 l 447 1064 q 482 994 461 1032 q 526 922 503 957 q 567 858 549 886 l 567 842 l 432 842 q 397 875 417 856 q 358 915 378 894 q 322 956 339 936 q 244 895 282 922 q 165 842 206 868 l 18 842 l 18 858 z "},"Ķ":{"ha":851,"x_min":36,"x_max":979,"o":"m 36 0 l 246 992 l 453 992 l 349 513 l 454 654 l 735 992 l 979 992 l 576 517 l 774 0 l 544 0 l 401 401 l 317 354 l 243 0 l 36 0 m 199 -289 q 228 -225 213 -261 q 259 -151 244 -189 q 283 -85 274 -114 l 475 -85 l 475 -99 q 434 -165 458 -129 q 381 -236 410 -200 q 321 -307 351 -272 l 199 -307 l 199 -289 z "},"ķ":{"ha":789,"x_min":25,"x_max":857,"o":"m 25 0 l 249 1056 l 453 1056 l 353 585 q 332 505 346 550 q 311 436 318 460 l 317 436 l 624 758 l 857 758 l 519 417 l 713 0 l 485 0 l 361 285 l 279 236 l 229 0 l 25 0 m 164 -289 q 194 -225 178 -261 q 224 -151 210 -189 q 249 -85 239 -114 l 440 -85 l 440 -99 q 399 -165 424 -129 q 346 -236 375 -200 q 286 -307 317 -272 l 164 -307 l 164 -289 z "},"ĸ":{"ha":789,"x_min":25,"x_max":857,"o":"m 25 0 l 186 758 l 390 758 l 353 592 q 332 512 344 556 q 308 432 319 468 l 314 432 l 624 758 l 857 758 l 519 417 l 713 0 l 485 0 l 361 285 l 279 236 l 229 0 l 25 0 z "},"Ĺ":{"ha":719,"x_min":36,"x_max":674,"o":"m 36 0 l 246 992 l 453 992 l 279 174 l 626 174 l 590 0 l 36 0 m 296 1092 q 346 1153 319 1118 q 399 1227 372 1189 q 446 1297 425 1265 l 674 1297 l 674 1286 q 630 1240 658 1268 q 567 1181 601 1211 q 498 1122 532 1150 q 438 1075 464 1094 l 296 1075 l 296 1092 z "},"ĺ":{"ha":413,"x_min":25,"x_max":636,"o":"m 25 0 l 249 1056 l 453 1056 l 229 0 l 25 0 m 258 1156 q 308 1217 282 1182 q 361 1291 335 1253 q 408 1361 388 1329 l 636 1361 l 636 1350 q 592 1303 621 1332 q 529 1244 564 1275 q 460 1186 494 1214 q 400 1139 426 1158 l 258 1139 l 258 1156 z "},"Ļ":{"ha":719,"x_min":36,"x_max":626,"o":"m 36 0 l 246 992 l 453 992 l 279 174 l 626 174 l 590 0 l 36 0 m 136 -289 q 166 -225 150 -261 q 197 -151 182 -189 q 221 -85 211 -114 l 413 -85 l 413 -99 q 372 -165 396 -129 q 318 -236 347 -200 q 258 -307 289 -272 l 136 -307 l 136 -289 z "},"ļ":{"ha":413,"x_min":-53,"x_max":453,"o":"m 25 0 l 249 1056 l 453 1056 l 229 0 l 25 0 m -53 -289 q -23 -225 -39 -261 q 8 -151 -7 -189 q 32 -85 22 -114 l 224 -85 l 224 -99 q 183 -165 207 -129 q 129 -236 158 -200 q 69 -307 100 -272 l -53 -307 l -53 -289 z "},"Ľ":{"ha":719,"x_min":36,"x_max":796,"o":"m 519 785 q 549 849 533 813 q 580 922 565 885 q 604 989 594 960 l 796 989 l 796 975 q 755 909 779 944 q 701 838 731 874 q 642 767 672 801 l 519 767 l 519 785 m 36 0 l 246 992 l 453 992 l 279 174 l 626 174 l 590 0 l 36 0 z "},"ľ":{"ha":521,"x_min":25,"x_max":733,"o":"m 457 851 q 487 915 471 879 q 517 989 503 951 q 542 1056 532 1026 l 733 1056 l 733 1042 q 692 976 717 1011 q 639 904 668 940 q 579 833 610 868 l 457 833 l 457 851 m 25 0 l 249 1056 l 453 1056 l 229 0 l 25 0 z "},"Ŀ":{"ha":719,"x_min":36,"x_max":696,"o":"m 36 0 l 246 992 l 453 992 l 279 174 l 626 174 l 590 0 l 36 0 m 574 407 q 501 426 531 407 q 471 490 471 444 q 503 579 471 549 q 594 610 536 610 q 645 602 622 610 q 682 576 668 594 q 696 528 696 558 q 666 440 696 474 q 574 407 636 407 z "},"ŀ":{"ha":603,"x_min":25,"x_max":639,"o":"m 25 0 l 249 1056 l 453 1056 l 229 0 l 25 0 m 517 369 q 444 388 474 369 q 414 453 414 407 q 447 542 414 511 q 538 572 479 572 q 588 565 565 572 q 625 539 611 557 q 639 490 639 521 q 609 403 639 436 q 517 369 579 369 z "},"Ł":{"ha":719,"x_min":-1,"x_max":626,"o":"m 38 0 l 107 326 l 68 306 l -1 443 l 149 524 l 247 992 l 453 992 l 381 649 l 476 701 l 549 564 l 338 450 l 279 174 l 626 174 l 590 0 l 38 0 z "},"ł":{"ha":454,"x_min":0,"x_max":494,"o":"m 43 0 l 110 317 l 69 294 l 0 432 l 151 514 l 267 1056 l 468 1056 l 379 635 l 422 660 l 494 522 l 338 438 l 244 0 l 43 0 z "},"Ń":{"ha":1049,"x_min":36,"x_max":1056,"o":"m 36 0 l 246 992 l 488 992 l 718 261 l 724 261 q 736 337 729 290 q 752 433 743 383 q 769 522 761 483 l 869 992 l 1056 992 l 846 0 l 614 0 l 372 750 l 365 750 q 360 710 364 742 q 349 636 356 679 q 335 548 343 593 q 321 467 328 503 l 222 0 l 36 0 m 568 1092 q 618 1153 592 1118 q 671 1227 644 1189 q 718 1297 697 1265 l 946 1297 l 946 1286 q 902 1240 931 1268 q 839 1181 874 1211 q 770 1122 804 1150 q 710 1075 736 1094 l 568 1075 l 568 1092 z "},"ń":{"ha":839,"x_min":25,"x_max":786,"o":"m 25 0 l 186 758 l 342 758 l 328 618 l 333 618 q 398 699 363 664 q 476 753 433 733 q 572 772 519 772 q 681 745 638 772 q 747 669 725 718 q 768 554 768 621 q 764 498 768 529 q 753 432 760 467 l 663 0 l 458 0 l 551 443 q 560 487 557 467 q 563 524 563 507 q 544 587 563 567 q 489 607 525 607 q 406 567 443 607 q 341 461 368 528 q 296 314 314 394 l 229 0 l 25 0 m 408 858 q 458 920 432 885 q 511 994 485 956 q 558 1064 538 1032 l 786 1064 l 786 1053 q 742 1006 771 1035 q 679 947 714 978 q 610 889 644 917 q 550 842 576 861 l 408 842 l 408 858 z "},"Ņ":{"ha":1049,"x_min":36,"x_max":1056,"o":"m 36 0 l 246 992 l 488 992 l 718 261 l 724 261 q 736 337 729 290 q 752 433 743 383 q 769 522 761 483 l 869 992 l 1056 992 l 846 0 l 614 0 l 372 750 l 365 750 q 360 710 364 742 q 349 636 356 679 q 335 548 343 593 q 321 467 328 503 l 222 0 l 36 0 m 253 -289 q 283 -225 267 -261 q 313 -151 299 -189 q 338 -85 328 -114 l 529 -85 l 529 -99 q 488 -165 513 -129 q 435 -236 464 -200 q 375 -307 406 -272 l 253 -307 l 253 -289 z "},"ņ":{"ha":839,"x_min":25,"x_max":768,"o":"m 25 0 l 186 758 l 342 758 l 328 618 l 333 618 q 398 699 363 664 q 476 753 433 733 q 572 772 519 772 q 681 745 638 772 q 747 669 725 718 q 768 554 768 621 q 764 498 768 529 q 753 432 760 467 l 663 0 l 458 0 l 551 443 q 560 487 557 467 q 563 524 563 507 q 544 587 563 567 q 489 607 525 607 q 406 567 443 607 q 341 461 368 528 q 296 314 314 394 l 229 0 l 25 0 m 168 -289 q 198 -225 182 -261 q 228 -151 214 -189 q 253 -85 243 -114 l 444 -85 l 444 -99 q 403 -165 428 -129 q 350 -236 379 -200 q 290 -307 321 -272 l 168 -307 l 168 -289 z "},"Ň":{"ha":1049,"x_min":36,"x_max":1056,"o":"m 36 0 l 246 992 l 488 992 l 718 261 l 724 261 q 736 337 729 290 q 752 433 743 383 q 769 522 761 483 l 869 992 l 1056 992 l 846 0 l 614 0 l 372 750 l 365 750 q 360 710 364 742 q 349 636 356 679 q 335 548 343 593 q 321 467 328 503 l 222 0 l 36 0 m 565 1075 q 531 1145 551 1108 q 488 1218 510 1182 q 446 1281 465 1254 l 446 1297 l 581 1297 q 617 1264 597 1283 q 656 1224 636 1244 q 690 1183 675 1203 q 769 1244 731 1217 q 847 1297 807 1271 l 994 1297 l 994 1281 q 929 1219 967 1256 q 856 1144 892 1182 q 794 1075 819 1106 l 565 1075 z "},"ň":{"ha":839,"x_min":25,"x_max":835,"o":"m 25 0 l 186 758 l 342 758 l 328 618 l 333 618 q 398 699 363 664 q 476 753 433 733 q 572 772 519 772 q 681 745 638 772 q 747 669 725 718 q 768 554 768 621 q 764 498 768 529 q 753 432 760 467 l 663 0 l 458 0 l 551 443 q 560 487 557 467 q 563 524 563 507 q 544 587 563 567 q 489 607 525 607 q 406 567 443 607 q 341 461 368 528 q 296 314 314 394 l 229 0 l 25 0 m 406 842 q 371 912 392 875 q 328 985 350 949 q 286 1047 306 1021 l 286 1064 l 421 1064 q 457 1031 438 1050 q 496 990 476 1011 q 531 950 515 969 q 609 1010 571 983 q 688 1064 647 1038 l 835 1064 l 835 1047 q 769 985 807 1022 q 696 910 732 949 q 635 842 660 872 l 406 842 z "},"ŉ":{"ha":981,"x_min":35,"x_max":910,"o":"m 167 0 l 328 758 l 483 758 l 469 618 l 475 618 q 540 699 504 664 q 618 753 575 733 q 714 772 661 772 q 823 745 779 772 q 888 669 867 718 q 910 554 910 621 q 906 498 910 529 q 894 432 901 467 l 804 0 l 600 0 l 693 443 q 701 487 699 467 q 704 524 704 507 q 685 587 704 567 q 631 607 667 607 q 547 567 585 607 q 483 461 510 528 q 438 314 456 394 l 371 0 l 167 0 m 35 651 q 82 767 58 707 q 128 886 106 828 q 167 992 150 944 l 360 992 l 365 976 q 315 873 344 929 q 253 760 286 817 q 188 651 221 703 l 35 651 z "},"Ŋ":{"ha":1049,"x_min":36,"x_max":1056,"o":"m 493 -292 q 418 -287 450 -292 q 364 -275 386 -282 l 364 -111 q 417 -122 389 -117 q 474 -126 444 -126 q 559 -114 524 -126 q 618 -73 594 -101 q 656 0 642 -44 l 372 750 l 367 750 q 361 710 365 742 q 350 636 357 679 q 335 548 343 593 q 321 467 328 503 l 222 0 l 36 0 l 246 992 l 469 992 l 728 324 l 735 324 q 746 399 739 353 q 762 498 753 446 q 781 593 771 550 l 869 992 l 1056 992 l 846 0 q 776 -165 825 -100 q 656 -260 728 -229 q 493 -292 585 -292 z "},"ŋ":{"ha":839,"x_min":25,"x_max":768,"o":"m 371 -333 q 306 -328 339 -333 q 253 -317 274 -324 l 253 -153 q 293 -163 275 -160 q 331 -167 311 -167 q 382 -155 358 -167 q 422 -117 406 -143 q 447 -51 439 -92 l 551 443 q 560 487 557 467 q 563 524 563 507 q 544 587 563 567 q 489 607 525 607 q 406 567 443 607 q 341 461 368 528 q 296 314 314 394 l 229 0 l 25 0 l 186 758 l 340 758 l 326 618 l 332 618 q 397 699 361 664 q 476 753 432 733 q 572 772 519 772 q 681 745 638 772 q 747 669 725 718 q 768 554 768 621 q 764 498 768 529 q 753 432 760 467 l 646 -79 q 599 -209 631 -151 q 512 -300 567 -267 q 371 -333 457 -333 z "},"Ō":{"ha":1014,"x_min":83,"x_max":971,"o":"m 451 -14 q 249 33 331 -14 q 125 165 167 81 q 83 364 83 250 q 97 519 83 442 q 140 668 111 596 q 210 801 168 740 q 311 909 253 863 q 444 981 369 956 q 608 1007 518 1007 q 880 906 789 1007 q 971 636 971 804 q 958 476 971 556 q 917 324 944 397 q 847 190 889 251 q 747 83 804 128 q 615 12 689 38 q 451 -14 542 -14 m 467 163 q 544 177 507 163 q 615 220 582 192 q 674 290 647 249 q 719 383 700 331 q 749 497 739 435 q 760 631 760 560 q 717 777 760 722 q 592 832 675 832 q 510 815 549 832 q 438 767 471 799 q 378 693 406 736 q 333 598 351 650 q 304 487 314 546 q 294 364 294 428 q 315 253 294 299 q 374 185 335 208 q 467 163 413 163 m 439 1075 l 469 1218 l 889 1218 l 858 1075 l 439 1075 z "},"ō":{"ha":813,"x_min":61,"x_max":751,"o":"m 351 -14 q 201 22 267 -14 q 98 122 135 57 q 61 278 61 188 q 77 432 61 358 q 125 567 93 506 q 206 675 157 629 q 319 747 254 721 q 464 772 383 772 q 617 737 553 772 q 716 634 681 701 q 751 472 751 567 q 736 324 751 396 q 690 190 721 251 q 611 83 658 129 q 499 12 564 38 q 351 -14 433 -14 m 368 153 q 429 170 401 153 q 479 218 457 188 q 516 289 501 249 q 538 376 531 329 q 546 472 546 424 q 537 541 546 511 q 506 588 528 571 q 449 606 485 606 q 382 585 411 606 q 331 530 353 564 q 295 453 310 496 q 274 365 281 410 q 267 278 267 319 q 292 185 267 217 q 368 153 317 153 m 278 842 l 308 985 l 728 985 l 697 842 l 278 842 z "},"Ŏ":{"ha":1014,"x_min":83,"x_max":971,"o":"m 451 -14 q 249 33 331 -14 q 125 165 167 81 q 83 364 83 250 q 97 519 83 442 q 140 668 111 596 q 210 801 168 740 q 311 909 253 863 q 444 981 369 956 q 608 1007 518 1007 q 880 906 789 1007 q 971 636 971 804 q 958 476 971 556 q 917 324 944 397 q 847 190 889 251 q 747 83 804 128 q 615 12 689 38 q 451 -14 542 -14 m 467 163 q 544 177 507 163 q 615 220 582 192 q 674 290 647 249 q 719 383 700 331 q 749 497 739 435 q 760 631 760 560 q 717 777 760 722 q 592 832 675 832 q 510 815 549 832 q 438 767 471 799 q 378 693 406 736 q 333 598 351 650 q 304 487 314 546 q 294 364 294 428 q 315 253 294 299 q 374 185 335 208 q 467 163 413 163 m 650 1075 q 521 1102 569 1075 q 451 1172 472 1129 q 431 1260 431 1214 q 432 1285 431 1275 q 435 1304 433 1294 l 553 1304 q 564 1256 553 1275 q 598 1228 575 1238 q 657 1219 621 1219 q 744 1238 710 1219 q 789 1304 778 1257 l 917 1304 q 834 1135 899 1194 q 650 1075 769 1075 z "},"ŏ":{"ha":813,"x_min":61,"x_max":756,"o":"m 351 -14 q 201 22 267 -14 q 98 122 135 57 q 61 278 61 188 q 77 432 61 358 q 125 567 93 506 q 206 675 157 629 q 319 747 254 721 q 464 772 383 772 q 617 737 553 772 q 716 634 681 701 q 751 472 751 567 q 736 324 751 396 q 690 190 721 251 q 611 83 658 129 q 499 12 564 38 q 351 -14 433 -14 m 368 153 q 429 170 401 153 q 479 218 457 188 q 516 289 501 249 q 538 376 531 329 q 546 472 546 424 q 537 541 546 511 q 506 588 528 571 q 449 606 485 606 q 382 585 411 606 q 331 530 353 564 q 295 453 310 496 q 274 365 281 410 q 267 278 267 319 q 292 185 267 217 q 368 153 317 153 m 489 842 q 360 869 408 842 q 290 938 311 896 q 269 1026 269 981 q 271 1051 269 1042 q 274 1071 272 1061 l 392 1071 q 403 1023 392 1042 q 437 995 414 1004 q 496 986 460 986 q 583 1005 549 986 q 628 1071 617 1024 l 756 1071 q 673 901 738 961 q 489 842 608 842 z "},"Ő":{"ha":1014,"x_min":83,"x_max":1072,"o":"m 451 -14 q 249 33 331 -14 q 125 165 167 81 q 83 364 83 250 q 97 519 83 442 q 140 668 111 596 q 210 801 168 740 q 311 909 253 863 q 444 981 369 956 q 608 1007 518 1007 q 880 906 789 1007 q 971 636 971 804 q 958 476 971 556 q 917 324 944 397 q 847 190 889 251 q 747 83 804 128 q 615 12 689 38 q 451 -14 542 -14 m 467 163 q 544 177 507 163 q 615 220 582 192 q 674 290 647 249 q 719 383 700 331 q 749 497 739 435 q 760 631 760 560 q 717 777 760 722 q 592 832 675 832 q 510 815 549 832 q 438 767 471 799 q 378 693 406 736 q 333 598 351 650 q 304 487 314 546 q 294 364 294 428 q 315 253 294 299 q 374 185 335 208 q 467 163 413 163 m 708 1092 q 760 1153 732 1118 q 816 1227 788 1189 q 865 1297 844 1265 l 1072 1297 l 1072 1286 q 1028 1240 1057 1268 q 963 1181 999 1211 q 891 1122 926 1150 q 829 1075 856 1094 l 708 1075 l 708 1092 m 439 1092 q 490 1153 463 1118 q 547 1227 518 1189 q 596 1297 575 1265 l 803 1297 l 803 1286 q 758 1240 788 1268 q 693 1181 729 1211 q 622 1122 657 1150 q 560 1075 586 1094 l 439 1075 l 439 1092 z "},"ő":{"ha":813,"x_min":61,"x_max":911,"o":"m 351 -14 q 201 22 267 -14 q 98 122 135 57 q 61 278 61 188 q 77 432 61 358 q 125 567 93 506 q 206 675 157 629 q 319 747 254 721 q 464 772 383 772 q 617 737 553 772 q 716 634 681 701 q 751 472 751 567 q 736 324 751 396 q 690 190 721 251 q 611 83 658 129 q 499 12 564 38 q 351 -14 433 -14 m 368 153 q 429 170 401 153 q 479 218 457 188 q 516 289 501 249 q 538 376 531 329 q 546 472 546 424 q 537 541 546 511 q 506 588 528 571 q 449 606 485 606 q 382 585 411 606 q 331 530 353 564 q 295 453 310 496 q 274 365 281 410 q 267 278 267 319 q 292 185 267 217 q 368 153 317 153 m 547 858 q 599 920 571 885 q 655 994 626 956 q 704 1064 683 1032 l 911 1064 l 911 1053 q 867 1006 896 1035 q 801 947 838 978 q 730 889 765 917 q 668 842 694 861 l 547 842 l 547 858 m 278 858 q 329 920 301 885 q 385 994 357 956 q 435 1064 414 1032 l 642 1064 l 642 1053 q 597 1006 626 1035 q 532 947 568 978 q 460 889 496 917 q 399 842 425 861 l 278 842 l 278 858 z "},"Œ":{"ha":1251,"x_min":83,"x_max":1299,"o":"m 451 -14 q 249 33 331 -14 q 125 165 167 81 q 83 364 83 250 q 103 549 83 457 q 165 724 124 642 q 268 869 206 806 q 415 970 331 933 q 608 1007 500 1007 q 689 1004 657 1007 q 750 992 721 1001 l 1299 992 l 1263 819 l 915 819 l 869 601 l 1193 601 l 1156 429 l 832 429 l 778 174 l 1125 174 l 1089 0 l 574 0 q 515 -10 546 -6 q 451 -14 483 -14 m 467 163 q 522 168 494 163 q 574 185 549 174 l 706 806 q 654 826 683 819 q 592 832 625 832 q 495 808 540 832 q 413 740 450 783 q 350 638 376 697 q 309 510 324 579 q 294 364 294 440 q 315 253 294 299 q 374 185 335 208 q 467 163 413 163 z "},"œ":{"ha":1225,"x_min":61,"x_max":1190,"o":"m 338 -14 q 138 64 214 -14 q 61 281 61 142 q 76 435 61 361 q 123 569 92 508 q 201 676 154 631 q 310 747 247 722 q 453 772 374 772 q 578 744 525 772 q 665 664 632 717 q 781 743 714 714 q 936 772 847 772 q 1127 714 1064 772 q 1190 565 1190 656 q 1163 457 1190 506 q 1083 374 1136 408 q 947 320 1029 339 q 754 301 865 301 l 719 301 q 718 287 718 293 q 718 274 718 281 q 753 176 718 213 q 853 140 789 140 q 961 154 913 140 q 1076 199 1010 168 l 1076 44 q 956 1 1017 15 q 813 -14 894 -14 q 719 -3 764 -14 q 638 30 674 8 q 578 85 601 51 q 478 13 535 39 q 338 -14 421 -14 m 365 153 q 424 170 397 153 q 472 218 451 188 q 506 289 492 249 q 528 376 521 329 q 535 472 535 424 q 513 567 535 529 q 438 606 490 606 q 375 585 403 606 q 326 531 347 565 q 292 454 306 497 q 273 367 279 411 q 267 281 267 322 q 292 186 267 219 q 365 153 317 153 m 772 439 q 900 456 851 439 q 972 501 949 472 q 994 561 994 529 q 976 609 994 593 q 924 625 957 625 q 849 601 886 625 q 783 536 811 578 q 742 439 754 494 l 772 439 z "},"Ŕ":{"ha":846,"x_min":36,"x_max":838,"o":"m 36 0 l 246 992 l 489 992 q 724 928 638 992 q 811 719 811 864 q 783 582 811 642 q 705 483 754 522 q 593 421 656 443 l 769 0 l 544 0 l 404 381 l 324 381 l 243 0 l 36 0 m 413 551 q 492 561 457 551 q 551 590 526 571 q 588 640 575 610 q 600 708 600 669 q 568 792 600 764 q 467 819 536 819 l 417 819 l 360 551 l 413 551 m 460 1092 q 510 1153 483 1118 q 563 1227 536 1189 q 610 1297 589 1265 l 838 1297 l 838 1286 q 794 1240 822 1268 q 731 1181 765 1211 q 662 1122 696 1150 q 601 1075 628 1094 l 460 1075 l 460 1092 z "},"ŕ":{"ha":585,"x_min":25,"x_max":690,"o":"m 25 0 l 186 758 l 342 758 l 328 618 l 335 618 q 401 701 365 667 q 480 753 438 735 q 571 772 522 772 q 606 770 588 772 q 636 765 625 768 l 592 568 q 563 576 581 572 q 524 579 544 579 q 451 564 486 579 q 388 519 417 549 q 336 444 358 489 q 301 339 314 399 l 229 0 l 25 0 m 313 858 q 363 920 336 885 q 415 994 389 956 q 463 1064 442 1032 l 690 1064 l 690 1053 q 647 1006 675 1035 q 583 947 618 978 q 515 889 549 917 q 454 842 481 861 l 313 842 l 313 858 z "},"Ŗ":{"ha":846,"x_min":36,"x_max":811,"o":"m 36 0 l 246 992 l 489 992 q 724 928 638 992 q 811 719 811 864 q 783 582 811 642 q 705 483 754 522 q 593 421 656 443 l 769 0 l 544 0 l 404 381 l 324 381 l 243 0 l 36 0 m 413 551 q 492 561 457 551 q 551 590 526 571 q 588 640 575 610 q 600 708 600 669 q 568 792 600 764 q 467 819 536 819 l 417 819 l 360 551 l 413 551 m 182 -289 q 212 -225 196 -261 q 242 -151 228 -189 q 267 -85 257 -114 l 458 -85 l 458 -99 q 417 -165 442 -129 q 364 -236 393 -200 q 304 -307 335 -272 l 182 -307 l 182 -289 z "},"ŗ":{"ha":585,"x_min":-46,"x_max":636,"o":"m 25 0 l 186 758 l 342 758 l 328 618 l 335 618 q 401 701 365 667 q 480 753 438 735 q 571 772 522 772 q 606 770 588 772 q 636 765 625 768 l 592 568 q 563 576 581 572 q 524 579 544 579 q 451 564 486 579 q 388 519 417 549 q 336 444 358 489 q 301 339 314 399 l 229 0 l 25 0 m -46 -289 q -16 -225 -32 -261 q 15 -151 0 -189 q 39 -85 29 -114 l 231 -85 l 231 -99 q 190 -165 214 -129 q 136 -236 165 -200 q 76 -307 107 -272 l -46 -307 l -46 -289 z "},"Ř":{"ha":846,"x_min":36,"x_max":886,"o":"m 36 0 l 246 992 l 489 992 q 724 928 638 992 q 811 719 811 864 q 783 582 811 642 q 705 483 754 522 q 593 421 656 443 l 769 0 l 544 0 l 404 381 l 324 381 l 243 0 l 36 0 m 413 551 q 492 561 457 551 q 551 590 526 571 q 588 640 575 610 q 600 708 600 669 q 568 792 600 764 q 467 819 536 819 l 417 819 l 360 551 l 413 551 m 457 1075 q 422 1145 443 1108 q 379 1218 401 1182 q 338 1281 357 1254 l 338 1297 l 472 1297 q 508 1264 489 1283 q 547 1224 528 1244 q 582 1183 567 1203 q 660 1244 622 1217 q 739 1297 699 1271 l 886 1297 l 886 1281 q 821 1219 858 1256 q 747 1144 783 1182 q 686 1075 711 1106 l 457 1075 z "},"ř":{"ha":585,"x_min":25,"x_max":739,"o":"m 25 0 l 186 758 l 342 758 l 328 618 l 335 618 q 401 701 365 667 q 480 753 438 735 q 571 772 522 772 q 606 770 588 772 q 636 765 625 768 l 592 568 q 563 576 581 572 q 524 579 544 579 q 451 564 486 579 q 388 519 417 549 q 336 444 358 489 q 301 339 314 399 l 229 0 l 25 0 m 310 842 q 275 912 296 875 q 232 985 254 949 q 190 1047 210 1021 l 190 1064 l 325 1064 q 361 1031 342 1050 q 400 990 381 1011 q 435 950 419 969 q 513 1010 475 983 q 592 1064 551 1038 l 739 1064 l 739 1047 q 674 985 711 1022 q 600 910 636 949 q 539 842 564 872 l 310 842 z "},"Ś":{"ha":736,"x_min":28,"x_max":772,"o":"m 269 -14 q 133 3 194 -14 q 28 47 71 19 l 28 233 q 149 179 89 199 q 271 160 208 160 q 335 166 306 160 q 385 186 364 172 q 419 220 407 200 q 432 268 432 240 q 417 333 432 307 q 375 382 401 360 q 313 429 349 404 q 232 497 271 460 q 168 585 193 535 q 143 704 143 636 q 167 826 143 771 q 235 921 190 881 q 343 983 281 961 q 483 1006 406 1006 q 626 989 561 1006 q 753 939 692 972 l 679 781 q 578 818 626 806 q 483 831 531 831 q 433 823 456 831 q 392 801 410 815 q 365 765 375 786 q 356 719 356 744 q 370 660 356 685 q 412 613 385 635 q 478 565 439 592 q 569 488 533 529 q 624 399 606 447 q 642 293 642 351 q 613 158 642 215 q 532 62 583 100 q 413 5 481 24 q 269 -14 346 -14 m 394 1092 q 444 1153 418 1118 q 497 1227 471 1189 q 544 1297 524 1265 l 772 1297 l 772 1286 q 728 1240 757 1268 q 665 1181 700 1211 q 597 1122 631 1150 q 536 1075 563 1094 l 394 1075 l 394 1092 z "},"ś":{"ha":657,"x_min":15,"x_max":675,"o":"m 243 -14 q 117 -3 171 -14 q 15 31 63 7 l 15 199 q 121 153 67 169 q 232 138 175 138 q 292 147 264 138 q 338 174 321 156 q 356 219 356 192 q 347 253 356 239 q 313 286 338 268 q 242 331 289 304 q 162 385 194 357 q 112 448 129 413 q 94 531 94 483 q 129 663 94 610 q 228 744 164 717 q 383 772 293 772 q 510 758 449 772 q 629 708 571 743 l 563 563 q 477 603 522 586 q 388 619 432 619 q 328 603 354 619 q 301 556 301 588 q 311 523 301 538 q 343 494 321 508 q 404 458 365 479 q 486 406 450 435 q 542 340 522 378 q 563 250 563 301 q 523 105 563 164 q 412 16 483 46 q 243 -14 340 -14 m 297 858 q 347 920 321 885 q 400 994 374 956 q 447 1064 426 1032 l 675 1064 l 675 1053 q 631 1006 660 1035 q 568 947 603 978 q 499 889 533 917 q 439 842 465 861 l 297 842 l 297 858 z "},"Ŝ":{"ha":736,"x_min":28,"x_max":769,"o":"m 269 -14 q 133 3 194 -14 q 28 47 71 19 l 28 233 q 149 179 89 199 q 271 160 208 160 q 335 166 306 160 q 385 186 364 172 q 419 220 407 200 q 432 268 432 240 q 417 333 432 307 q 375 382 401 360 q 313 429 349 404 q 232 497 271 460 q 168 585 193 535 q 143 704 143 636 q 167 826 143 771 q 235 921 190 881 q 343 983 281 961 q 483 1006 406 1006 q 626 989 561 1006 q 753 939 692 972 l 679 781 q 578 818 626 806 q 483 831 531 831 q 433 823 456 831 q 392 801 410 815 q 365 765 375 786 q 356 719 356 744 q 370 660 356 685 q 412 613 385 635 q 478 565 439 592 q 569 488 533 529 q 624 399 606 447 q 642 293 642 351 q 613 158 642 215 q 532 62 583 100 q 413 5 481 24 q 269 -14 346 -14 m 221 1092 q 286 1154 249 1118 q 360 1228 324 1190 q 421 1297 397 1267 l 650 1297 q 685 1228 664 1265 q 728 1155 706 1190 q 769 1092 751 1119 l 769 1075 l 635 1075 q 600 1108 619 1089 q 561 1149 581 1128 q 525 1189 542 1169 q 447 1128 485 1156 q 368 1075 408 1101 l 221 1075 l 221 1092 z "},"ŝ":{"ha":657,"x_min":15,"x_max":672,"o":"m 243 -14 q 117 -3 171 -14 q 15 31 63 7 l 15 199 q 121 153 67 169 q 232 138 175 138 q 292 147 264 138 q 338 174 321 156 q 356 219 356 192 q 347 253 356 239 q 313 286 338 268 q 242 331 289 304 q 162 385 194 357 q 112 448 129 413 q 94 531 94 483 q 129 663 94 610 q 228 744 164 717 q 383 772 293 772 q 510 758 449 772 q 629 708 571 743 l 563 563 q 477 603 522 586 q 388 619 432 619 q 328 603 354 619 q 301 556 301 588 q 311 523 301 538 q 343 494 321 508 q 404 458 365 479 q 486 406 450 435 q 542 340 522 378 q 563 250 563 301 q 523 105 563 164 q 412 16 483 46 q 243 -14 340 -14 m 124 858 q 189 921 151 885 q 263 995 226 957 q 324 1064 300 1033 l 553 1064 q 588 994 567 1032 q 631 922 608 957 q 672 858 654 886 l 672 842 l 538 842 q 503 875 522 856 q 464 915 483 894 q 428 956 444 936 q 349 895 388 922 q 271 842 311 868 l 124 842 l 124 858 z "},"Ş":{"ha":736,"x_min":28,"x_max":753,"o":"m 269 -14 q 133 3 194 -14 q 28 47 71 19 l 28 233 q 149 179 89 199 q 271 160 208 160 q 335 166 306 160 q 385 186 364 172 q 419 220 407 200 q 432 268 432 240 q 417 333 432 307 q 375 382 401 360 q 313 429 349 404 q 232 497 271 460 q 168 585 193 535 q 143 704 143 636 q 167 826 143 771 q 235 921 190 881 q 343 983 281 961 q 483 1006 406 1006 q 626 989 561 1006 q 753 939 692 972 l 679 781 q 578 818 626 806 q 483 831 531 831 q 433 823 456 831 q 392 801 410 815 q 365 765 375 786 q 356 719 356 744 q 370 660 356 685 q 412 613 385 635 q 478 565 439 592 q 569 488 533 529 q 624 399 606 447 q 642 293 642 351 q 613 158 642 215 q 532 62 583 100 q 413 5 481 24 q 269 -14 346 -14 m 201 -333 q 142 -328 169 -333 q 99 -318 114 -324 l 99 -204 q 137 -215 114 -210 q 183 -219 160 -219 q 222 -213 207 -219 q 245 -194 238 -207 q 253 -164 253 -182 q 231 -125 253 -140 q 157 -104 210 -110 l 222 0 l 347 0 l 321 -49 q 389 -90 361 -62 q 417 -169 417 -118 q 394 -253 417 -215 q 325 -312 372 -290 q 201 -333 278 -333 z "},"ş":{"ha":657,"x_min":15,"x_max":629,"o":"m 243 -14 q 117 -3 171 -14 q 15 31 63 7 l 15 199 q 121 153 67 169 q 232 138 175 138 q 292 147 264 138 q 338 174 321 156 q 356 219 356 192 q 347 253 356 239 q 313 286 338 268 q 242 331 289 304 q 162 385 194 357 q 112 448 129 413 q 94 531 94 483 q 129 663 94 610 q 228 744 164 717 q 383 772 293 772 q 510 758 449 772 q 629 708 571 743 l 563 563 q 477 603 522 586 q 388 619 432 619 q 328 603 354 619 q 301 556 301 588 q 311 523 301 538 q 343 494 321 508 q 404 458 365 479 q 486 406 450 435 q 542 340 522 378 q 563 250 563 301 q 523 105 563 164 q 412 16 483 46 q 243 -14 340 -14 m 171 -333 q 111 -328 139 -333 q 68 -318 83 -324 l 68 -204 q 106 -215 83 -210 q 153 -219 129 -219 q 192 -213 176 -219 q 215 -194 207 -207 q 222 -164 222 -182 q 201 -125 222 -140 q 126 -104 179 -110 l 192 0 l 317 0 l 290 -49 q 358 -90 331 -62 q 386 -169 386 -118 q 364 -253 386 -215 q 294 -312 342 -290 q 171 -333 247 -333 z "},"Š":{"ha":736,"x_min":28,"x_max":821,"o":"m 269 -14 q 133 3 194 -14 q 28 47 71 19 l 28 233 q 149 179 89 199 q 271 160 208 160 q 335 166 306 160 q 385 186 364 172 q 419 220 407 200 q 432 268 432 240 q 417 333 432 307 q 375 382 401 360 q 313 429 349 404 q 232 497 271 460 q 168 585 193 535 q 143 704 143 636 q 167 826 143 771 q 235 921 190 881 q 343 983 281 961 q 483 1006 406 1006 q 626 989 561 1006 q 753 939 692 972 l 679 781 q 578 818 626 806 q 483 831 531 831 q 433 823 456 831 q 392 801 410 815 q 365 765 375 786 q 356 719 356 744 q 370 660 356 685 q 412 613 385 635 q 478 565 439 592 q 569 488 533 529 q 624 399 606 447 q 642 293 642 351 q 613 158 642 215 q 532 62 583 100 q 413 5 481 24 q 269 -14 346 -14 m 392 1075 q 357 1145 378 1108 q 314 1218 336 1182 q 272 1281 292 1254 l 272 1297 l 407 1297 q 443 1264 424 1283 q 482 1224 463 1244 q 517 1183 501 1203 q 595 1244 557 1217 q 674 1297 633 1271 l 821 1297 l 821 1281 q 756 1219 793 1256 q 682 1144 718 1182 q 621 1075 646 1106 l 392 1075 z "},"š":{"ha":657,"x_min":15,"x_max":724,"o":"m 243 -14 q 117 -3 171 -14 q 15 31 63 7 l 15 199 q 121 153 67 169 q 232 138 175 138 q 292 147 264 138 q 338 174 321 156 q 356 219 356 192 q 347 253 356 239 q 313 286 338 268 q 242 331 289 304 q 162 385 194 357 q 112 448 129 413 q 94 531 94 483 q 129 663 94 610 q 228 744 164 717 q 383 772 293 772 q 510 758 449 772 q 629 708 571 743 l 563 563 q 477 603 522 586 q 388 619 432 619 q 328 603 354 619 q 301 556 301 588 q 311 523 301 538 q 343 494 321 508 q 404 458 365 479 q 486 406 450 435 q 542 340 522 378 q 563 250 563 301 q 523 105 563 164 q 412 16 483 46 q 243 -14 340 -14 m 294 842 q 260 912 281 875 q 217 985 239 949 q 175 1047 194 1021 l 175 1064 l 310 1064 q 346 1031 326 1050 q 385 990 365 1011 q 419 950 404 969 q 498 1010 460 983 q 576 1064 536 1038 l 724 1064 l 724 1047 q 658 985 696 1022 q 585 910 621 949 q 524 842 549 872 l 294 842 z "},"Ț":{"ha":738,"x_min":110,"x_max":836,"o":"m 181 0 l 353 817 l 114 817 l 151 992 l 836 992 l 799 817 l 560 817 l 388 0 l 181 0 m 110 -289 q 140 -225 124 -261 q 170 -151 156 -189 q 194 -85 185 -114 l 386 -85 l 386 -99 q 345 -165 369 -129 q 292 -236 321 -200 q 232 -307 263 -272 l 110 -307 l 110 -289 z "},"ț":{"ha":569,"x_min":64,"x_max":596,"o":"m 278 -14 q 135 24 189 -14 q 81 161 81 63 q 83 197 81 178 q 89 238 85 217 l 167 603 l 64 603 l 83 703 l 217 760 l 306 919 l 438 919 l 404 758 l 596 758 l 563 603 l 371 603 l 293 238 q 290 218 292 228 q 289 201 289 208 q 306 163 289 175 q 349 151 322 151 q 402 158 376 151 q 458 175 428 164 l 458 22 q 381 -3 426 7 q 278 -14 335 -14 m 71 -289 q 101 -225 85 -261 q 131 -151 117 -189 q 156 -85 146 -114 l 347 -85 l 347 -99 q 306 -165 331 -129 q 253 -236 282 -200 q 193 -307 224 -272 l 71 -307 l 71 -289 z "},"Ť":{"ha":738,"x_min":114,"x_max":836,"o":"m 181 0 l 353 817 l 114 817 l 151 992 l 836 992 l 799 817 l 560 817 l 388 0 l 181 0 m 403 1075 q 368 1145 389 1108 q 325 1218 347 1182 q 283 1281 303 1254 l 283 1297 l 418 1297 q 454 1264 435 1283 q 493 1224 474 1244 q 528 1183 513 1203 q 606 1244 568 1217 q 685 1297 644 1271 l 832 1297 l 832 1281 q 767 1219 804 1256 q 693 1144 729 1182 q 632 1075 657 1106 l 403 1075 z "},"ť":{"ha":569,"x_min":64,"x_max":757,"o":"m 481 851 q 510 915 494 879 q 541 989 526 951 q 565 1056 556 1026 l 757 1056 l 757 1042 q 716 976 740 1011 q 663 904 692 940 q 603 833 633 868 l 481 833 l 481 851 m 278 -14 q 135 24 189 -14 q 81 161 81 63 q 83 197 81 178 q 89 238 85 217 l 167 603 l 64 603 l 83 703 l 217 760 l 306 919 l 438 919 l 404 758 l 596 758 l 563 603 l 371 603 l 293 238 q 290 218 292 228 q 289 201 289 208 q 306 163 289 175 q 349 151 322 151 q 402 158 376 151 q 458 175 428 164 l 458 22 q 381 -3 426 7 q 278 -14 335 -14 z "},"Ŧ":{"ha":738,"x_min":113,"x_max":836,"o":"m 181 0 l 265 404 l 113 404 l 150 576 l 301 576 l 353 817 l 114 817 l 151 992 l 836 992 l 799 817 l 560 817 l 508 576 l 668 576 l 631 404 l 472 404 l 388 0 l 181 0 z "},"ŧ":{"ha":569,"x_min":21,"x_max":596,"o":"m 278 -14 q 135 24 189 -14 q 81 161 81 63 q 82 197 81 178 q 89 238 83 217 l 111 338 l 21 338 l 49 472 l 139 472 l 167 603 l 64 603 l 83 703 l 217 760 l 306 919 l 438 919 l 404 758 l 596 758 l 563 603 l 371 603 l 343 472 l 501 472 l 474 338 l 314 338 l 293 238 q 290 218 292 228 q 289 201 289 208 q 306 163 289 175 q 349 151 322 151 q 402 158 376 151 q 458 175 428 164 l 458 22 q 381 -3 426 7 q 278 -14 335 -14 z "},"Ũ":{"ha":960,"x_min":96,"x_max":972,"o":"m 410 -14 q 237 21 307 -14 q 131 119 167 56 q 96 265 96 182 q 98 315 96 288 q 106 365 100 342 l 239 992 l 446 992 l 314 368 q 306 323 308 344 q 303 283 303 301 q 335 194 303 225 q 431 163 367 163 q 531 185 492 163 q 595 255 571 208 q 633 369 619 301 l 765 992 l 972 992 l 836 350 q 764 163 814 244 q 627 33 714 81 q 410 -14 540 -14 m 354 1074 q 395 1193 368 1147 q 460 1261 422 1239 q 544 1283 497 1283 q 604 1273 578 1283 q 652 1248 631 1263 q 694 1223 674 1233 q 735 1213 714 1213 q 775 1230 758 1213 q 806 1285 792 1247 l 922 1285 q 879 1165 907 1211 q 814 1097 851 1118 q 728 1075 776 1075 q 669 1085 694 1075 q 622 1110 643 1096 q 580 1135 600 1125 q 538 1146 560 1146 q 500 1127 517 1146 q 474 1074 483 1108 l 354 1074 z "},"ũ":{"ha":839,"x_min":75,"x_max":817,"o":"m 268 -14 q 160 13 203 -14 q 96 89 117 40 q 75 204 75 138 q 79 269 75 229 q 92 349 83 308 l 178 758 l 382 758 l 289 315 q 281 272 283 293 q 278 235 278 251 q 297 172 278 192 q 351 151 315 151 q 435 191 399 151 q 500 297 472 231 q 544 444 528 364 l 611 758 l 815 758 l 654 0 l 499 0 l 513 140 l 506 140 q 442 60 476 96 q 364 6 407 25 q 268 -14 321 -14 m 249 840 q 290 960 263 914 q 354 1028 317 1006 q 439 1050 392 1050 q 499 1040 472 1050 q 547 1015 525 1029 q 588 990 568 1000 q 629 979 608 979 q 669 997 653 979 q 700 1051 686 1014 l 817 1051 q 774 931 801 978 q 708 863 746 885 q 622 842 671 842 q 563 852 589 842 q 516 877 538 863 q 474 902 494 892 q 432 913 454 913 q 394 894 411 913 q 368 840 378 875 l 249 840 z "},"Ū":{"ha":960,"x_min":96,"x_max":972,"o":"m 410 -14 q 237 21 307 -14 q 131 119 167 56 q 96 265 96 182 q 98 315 96 288 q 106 365 100 342 l 239 992 l 446 992 l 314 368 q 306 323 308 344 q 303 283 303 301 q 335 194 303 225 q 431 163 367 163 q 531 185 492 163 q 595 255 571 208 q 633 369 619 301 l 765 992 l 972 992 l 836 350 q 764 163 814 244 q 627 33 714 81 q 410 -14 540 -14 m 407 1075 l 438 1218 l 857 1218 l 826 1075 l 407 1075 z "},"ū":{"ha":839,"x_min":75,"x_max":815,"o":"m 268 -14 q 160 13 203 -14 q 96 89 117 40 q 75 204 75 138 q 79 269 75 229 q 92 349 83 308 l 178 758 l 382 758 l 289 315 q 281 272 283 293 q 278 235 278 251 q 297 172 278 192 q 351 151 315 151 q 435 191 399 151 q 500 297 472 231 q 544 444 528 364 l 611 758 l 815 758 l 654 0 l 499 0 l 513 140 l 506 140 q 442 60 476 96 q 364 6 407 25 q 268 -14 321 -14 m 301 842 l 332 985 l 751 985 l 721 842 l 301 842 z "},"Ŭ":{"ha":960,"x_min":96,"x_max":972,"o":"m 410 -14 q 237 21 307 -14 q 131 119 167 56 q 96 265 96 182 q 98 315 96 288 q 106 365 100 342 l 239 992 l 446 992 l 314 368 q 306 323 308 344 q 303 283 303 301 q 335 194 303 225 q 431 163 367 163 q 531 185 492 163 q 595 255 571 208 q 633 369 619 301 l 765 992 l 972 992 l 836 350 q 764 163 814 244 q 627 33 714 81 q 410 -14 540 -14 m 618 1075 q 489 1102 538 1075 q 419 1172 440 1129 q 399 1260 399 1214 q 400 1285 399 1275 q 403 1304 401 1294 l 521 1304 q 532 1256 521 1275 q 566 1228 543 1238 q 625 1219 589 1219 q 712 1238 678 1219 q 757 1304 746 1257 l 885 1304 q 802 1135 867 1194 q 618 1075 738 1075 z "},"ŭ":{"ha":839,"x_min":75,"x_max":815,"o":"m 268 -14 q 160 13 203 -14 q 96 89 117 40 q 75 204 75 138 q 79 269 75 229 q 92 349 83 308 l 178 758 l 382 758 l 289 315 q 281 272 283 293 q 278 235 278 251 q 297 172 278 192 q 351 151 315 151 q 435 191 399 151 q 500 297 472 231 q 544 444 528 364 l 611 758 l 815 758 l 654 0 l 499 0 l 513 140 l 506 140 q 442 60 476 96 q 364 6 407 25 q 268 -14 321 -14 m 513 842 q 383 869 432 842 q 314 938 335 896 q 293 1026 293 981 q 294 1051 293 1042 q 297 1071 296 1061 l 415 1071 q 426 1023 415 1042 q 460 995 438 1004 q 519 986 483 986 q 606 1005 572 986 q 651 1071 640 1024 l 779 1071 q 697 901 761 961 q 513 842 632 842 z "},"Ů":{"ha":960,"x_min":96,"x_max":972,"o":"m 410 -14 q 237 21 307 -14 q 131 119 167 56 q 96 265 96 182 q 98 315 96 288 q 106 365 100 342 l 239 992 l 446 992 l 314 368 q 306 323 308 344 q 303 283 303 301 q 335 194 303 225 q 431 163 367 163 q 531 185 492 163 q 595 255 571 208 q 633 369 619 301 l 765 992 l 972 992 l 836 350 q 764 163 814 244 q 627 33 714 81 q 410 -14 540 -14 m 639 1074 q 517 1117 564 1074 q 471 1235 471 1160 q 517 1353 471 1310 q 639 1396 564 1396 q 761 1353 711 1396 q 811 1236 811 1310 q 762 1117 811 1160 q 639 1074 713 1074 m 639 1169 q 685 1187 667 1169 q 704 1235 704 1204 q 685 1283 704 1265 q 639 1300 667 1300 q 592 1283 611 1300 q 574 1235 574 1265 q 590 1187 574 1204 q 639 1169 607 1169 z "},"ů":{"ha":839,"x_min":75,"x_max":815,"o":"m 268 -14 q 160 13 203 -14 q 96 89 117 40 q 75 204 75 138 q 79 269 75 229 q 92 349 83 308 l 178 758 l 382 758 l 289 315 q 281 272 283 293 q 278 235 278 251 q 297 172 278 192 q 351 151 315 151 q 435 191 399 151 q 500 297 472 231 q 544 444 528 364 l 611 758 l 815 758 l 654 0 l 499 0 l 513 140 l 506 140 q 442 60 476 96 q 364 6 407 25 q 268 -14 321 -14 m 533 840 q 412 883 458 840 q 365 1001 365 926 q 412 1119 365 1076 q 533 1163 458 1163 q 656 1119 606 1163 q 706 1003 706 1076 q 656 883 706 926 q 533 840 607 840 m 533 936 q 580 953 561 936 q 599 1001 599 971 q 580 1049 599 1032 q 533 1067 561 1067 q 487 1049 506 1067 q 468 1001 468 1032 q 485 953 468 971 q 533 936 501 936 z "},"Ű":{"ha":960,"x_min":96,"x_max":1040,"o":"m 410 -14 q 237 21 307 -14 q 131 119 167 56 q 96 265 96 182 q 98 315 96 288 q 106 365 100 342 l 239 992 l 446 992 l 314 368 q 306 323 308 344 q 303 283 303 301 q 335 194 303 225 q 431 163 367 163 q 531 185 492 163 q 595 255 571 208 q 633 369 619 301 l 765 992 l 972 992 l 836 350 q 764 163 814 244 q 627 33 714 81 q 410 -14 540 -14 m 676 1092 q 728 1153 700 1118 q 784 1227 756 1189 q 833 1297 813 1265 l 1040 1297 l 1040 1286 q 996 1240 1025 1268 q 931 1181 967 1211 q 859 1122 894 1150 q 797 1075 824 1094 l 676 1075 l 676 1092 m 407 1092 q 458 1153 431 1118 q 515 1227 486 1189 q 564 1297 543 1265 l 771 1297 l 771 1286 q 726 1240 756 1268 q 661 1181 697 1211 q 590 1122 625 1150 q 528 1075 554 1094 l 407 1075 l 407 1092 z "},"ű":{"ha":839,"x_min":75,"x_max":935,"o":"m 268 -14 q 160 13 203 -14 q 96 89 117 40 q 75 204 75 138 q 79 269 75 229 q 92 349 83 308 l 178 758 l 382 758 l 289 315 q 281 272 283 293 q 278 235 278 251 q 297 172 278 192 q 351 151 315 151 q 435 191 399 151 q 500 297 472 231 q 544 444 528 364 l 611 758 l 815 758 l 654 0 l 499 0 l 513 140 l 506 140 q 442 60 476 96 q 364 6 407 25 q 268 -14 321 -14 m 571 858 q 622 920 594 885 q 678 994 650 956 q 728 1064 707 1032 l 935 1064 l 935 1053 q 890 1006 919 1035 q 825 947 861 978 q 753 889 789 917 q 692 842 718 861 l 571 842 l 571 858 m 301 858 q 353 920 325 885 q 409 994 381 956 q 458 1064 438 1032 l 665 1064 l 665 1053 q 621 1006 650 1035 q 556 947 592 978 q 484 889 519 917 q 422 842 449 861 l 301 842 l 301 858 z "},"Ų":{"ha":960,"x_min":96,"x_max":972,"o":"m 410 -14 q 237 21 307 -14 q 131 119 167 56 q 96 265 96 182 q 98 315 96 288 q 106 365 100 342 l 239 992 l 446 992 l 314 368 q 306 323 308 344 q 303 283 303 301 q 335 194 303 225 q 431 163 367 163 q 531 185 492 163 q 595 255 571 208 q 633 369 619 301 l 765 992 l 972 992 l 836 350 q 764 163 814 244 q 627 33 714 81 q 410 -14 540 -14 m 404 -333 q 294 -297 335 -333 q 254 -201 254 -261 q 273 -121 254 -156 q 324 -56 292 -86 q 400 0 357 -26 l 535 0 q 473 -53 503 -26 q 424 -108 443 -79 q 406 -169 406 -136 q 417 -199 406 -187 q 446 -210 428 -210 q 481 -206 465 -210 q 515 -197 497 -203 l 515 -317 q 464 -328 490 -324 q 404 -333 438 -333 z "},"ų":{"ha":839,"x_min":75,"x_max":815,"o":"m 268 -14 q 160 13 203 -14 q 96 89 117 40 q 75 204 75 138 q 79 269 75 229 q 92 349 83 308 l 178 758 l 382 758 l 289 315 q 281 272 283 293 q 278 235 278 251 q 297 172 278 192 q 351 151 315 151 q 435 191 399 151 q 500 297 472 231 q 544 444 528 364 l 611 758 l 815 758 l 654 0 l 499 0 l 513 140 l 506 140 q 442 60 476 96 q 364 6 407 25 q 268 -14 321 -14 m 500 -333 q 390 -297 431 -333 q 350 -201 350 -261 q 369 -121 350 -156 q 420 -56 388 -86 q 496 0 453 -26 l 631 0 q 569 -53 599 -26 q 520 -108 539 -79 q 501 -169 501 -136 q 513 -199 501 -187 q 542 -210 524 -210 q 577 -206 561 -210 q 611 -197 593 -203 l 611 -317 q 560 -328 586 -324 q 500 -333 533 -333 z "},"Ŵ":{"ha":1242,"x_min":125,"x_max":1372,"o":"m 156 0 l 125 992 l 319 992 l 324 450 q 322 334 324 399 q 314 215 319 269 l 319 215 q 363 331 339 269 q 404 436 386 393 l 654 992 l 838 992 l 851 436 q 852 375 853 413 q 850 295 851 338 q 846 215 849 253 l 851 215 q 879 297 864 254 q 910 380 894 339 q 939 451 926 421 l 1163 992 l 1372 992 l 933 0 l 699 0 l 688 451 q 685 552 686 513 q 685 624 685 592 q 686 690 685 656 l 681 690 q 644 585 663 635 q 604 488 625 535 l 385 0 l 156 0 m 483 1092 q 549 1154 511 1118 q 623 1228 586 1190 q 683 1297 660 1267 l 913 1297 q 947 1228 926 1265 q 991 1155 968 1190 q 1032 1092 1014 1119 l 1032 1075 l 897 1075 q 863 1108 882 1089 q 824 1149 843 1128 q 788 1189 804 1169 q 709 1128 747 1156 q 631 1075 671 1101 l 483 1075 l 483 1092 z "},"ŵ":{"ha":1094,"x_min":85,"x_max":1165,"o":"m 119 0 l 85 758 l 275 758 l 278 422 q 277 312 278 367 q 271 193 276 257 l 276 193 q 301 270 286 228 q 330 347 317 313 q 349 394 343 382 l 506 758 l 728 758 l 728 394 q 727 299 728 347 q 721 193 726 250 l 728 193 q 752 268 738 225 q 782 353 767 311 q 808 422 797 396 l 957 758 l 1165 758 l 806 0 l 582 0 l 578 353 q 578 423 578 382 q 581 507 579 464 q 585 583 583 550 l 576 583 q 551 509 565 550 q 522 431 536 468 q 497 367 508 393 l 339 0 l 119 0 m 346 858 q 411 921 374 885 q 485 995 449 957 q 546 1064 522 1033 l 775 1064 q 810 994 789 1032 q 853 922 831 957 q 894 858 876 886 l 894 842 l 760 842 q 725 875 744 856 q 686 915 706 894 q 650 956 667 936 q 572 895 610 922 q 493 842 533 868 l 346 842 l 346 858 z "},"Ŷ":{"ha":783,"x_min":126,"x_max":911,"o":"m 206 0 l 286 379 l 126 992 l 338 992 l 425 590 l 679 992 l 911 992 l 492 379 l 411 0 l 206 0 m 240 1092 q 306 1154 268 1118 q 380 1228 343 1190 q 440 1297 417 1267 l 669 1297 q 704 1228 683 1265 q 748 1155 725 1190 q 789 1092 771 1119 l 789 1075 l 654 1075 q 619 1108 639 1089 q 581 1149 600 1128 q 544 1189 561 1169 q 466 1128 504 1156 q 388 1075 428 1101 l 240 1075 l 240 1092 z "},"ŷ":{"ha":721,"x_min":-96,"x_max":793,"o":"m 4 -333 q -56 -330 -32 -333 q -96 -321 -79 -326 l -96 -158 q -59 -164 -78 -161 q -17 -167 -40 -167 q 90 -129 49 -167 q 163 -33 132 -92 l 181 0 l 69 758 l 269 758 l 307 407 q 313 340 311 376 q 315 270 314 304 q 315 208 315 236 l 321 208 q 340 260 331 232 q 363 322 350 288 q 394 393 376 356 l 571 758 l 793 758 l 332 -108 q 241 -235 292 -185 q 131 -309 190 -285 q 4 -333 72 -333 m 147 858 q 213 921 175 885 q 287 995 250 957 q 347 1064 324 1033 l 576 1064 q 611 994 590 1032 q 655 922 632 957 q 696 858 678 886 l 696 842 l 561 842 q 526 875 546 856 q 488 915 507 894 q 451 956 468 936 q 373 895 411 922 q 294 842 335 868 l 147 842 l 147 858 z "},"Ÿ":{"ha":783,"x_min":126,"x_max":911,"o":"m 206 0 l 286 379 l 126 992 l 338 992 l 425 590 l 679 992 l 911 992 l 492 379 l 411 0 l 206 0 m 664 1096 q 602 1113 626 1096 q 578 1171 578 1129 q 605 1251 578 1224 q 681 1278 632 1278 q 740 1262 715 1278 q 765 1204 765 1246 q 741 1126 765 1156 q 664 1096 717 1096 m 404 1096 q 342 1113 367 1096 q 318 1171 318 1129 q 345 1251 318 1224 q 421 1278 372 1278 q 463 1271 444 1278 q 494 1248 482 1264 q 506 1204 506 1232 q 481 1126 506 1156 q 404 1096 457 1096 z "},"Ź":{"ha":744,"x_min":-42,"x_max":814,"o":"m -42 0 l -15 136 l 511 818 l 143 818 l 179 992 l 814 992 l 786 854 l 256 174 l 660 174 l 624 0 l -42 0 m 410 1092 q 460 1153 433 1118 q 513 1227 486 1189 q 560 1297 539 1265 l 788 1297 l 788 1286 q 744 1240 772 1268 q 681 1181 715 1211 q 612 1122 646 1150 q 551 1075 578 1094 l 410 1075 l 410 1092 z "},"ź":{"ha":632,"x_min":-32,"x_max":681,"o":"m -32 0 l -8 122 l 382 600 l 113 600 l 147 758 l 656 758 l 626 622 l 243 158 l 540 158 l 507 0 l -32 0 m 303 858 q 353 920 326 885 q 406 994 379 956 q 453 1064 432 1032 l 681 1064 l 681 1053 q 637 1006 665 1035 q 574 947 608 978 q 505 889 539 917 q 444 842 471 861 l 303 842 l 303 858 z "},"Ż":{"ha":744,"x_min":-42,"x_max":814,"o":"m -42 0 l -15 136 l 511 818 l 143 818 l 179 992 l 814 992 l 786 854 l 256 174 l 660 174 l 624 0 l -42 0 m 529 1086 q 456 1105 486 1086 q 426 1169 426 1124 q 459 1258 426 1228 q 550 1289 492 1289 q 601 1281 578 1289 q 638 1256 624 1274 q 651 1207 651 1238 q 622 1119 651 1153 q 529 1086 592 1086 z "},"ż":{"ha":632,"x_min":-32,"x_max":656,"o":"m -32 0 l -8 122 l 382 600 l 113 600 l 147 758 l 656 758 l 626 622 l 243 158 l 540 158 l 507 0 l -32 0 m 422 853 q 349 872 379 853 q 319 936 319 890 q 352 1025 319 994 q 443 1056 385 1056 q 494 1048 471 1056 q 531 1022 517 1040 q 544 974 544 1004 q 515 886 544 919 q 422 853 485 853 z "},"Ž":{"ha":744,"x_min":-42,"x_max":836,"o":"m -42 0 l -15 136 l 511 818 l 143 818 l 179 992 l 814 992 l 786 854 l 256 174 l 660 174 l 624 0 l -42 0 m 407 1075 q 372 1145 393 1108 q 329 1218 351 1182 q 288 1281 307 1254 l 288 1297 l 422 1297 q 458 1264 439 1283 q 497 1224 478 1244 q 532 1183 517 1203 q 610 1244 572 1217 q 689 1297 649 1271 l 836 1297 l 836 1281 q 771 1219 808 1256 q 697 1144 733 1182 q 636 1075 661 1106 l 407 1075 z "},"ž":{"ha":632,"x_min":-32,"x_max":729,"o":"m -32 0 l -8 122 l 382 600 l 113 600 l 147 758 l 656 758 l 626 622 l 243 158 l 540 158 l 507 0 l -32 0 m 300 842 q 265 912 286 875 q 222 985 244 949 q 181 1047 200 1021 l 181 1064 l 315 1064 q 351 1031 332 1050 q 390 990 371 1011 q 425 950 410 969 q 503 1010 465 983 q 582 1064 542 1038 l 729 1064 l 729 1047 q 664 985 701 1022 q 590 910 626 949 q 529 842 554 872 l 300 842 z "},"ſ":{"ha":497,"x_min":-167,"x_max":651,"o":"m -49 -333 q -113 -328 -81 -333 q -167 -317 -146 -324 l -167 -153 q -126 -163 -144 -160 q -89 -167 -108 -167 q -16 -139 -47 -167 q 28 -51 15 -111 l 213 815 q 269 961 232 907 q 363 1039 307 1015 q 492 1063 418 1063 q 578 1053 539 1063 q 651 1029 618 1044 l 597 878 q 556 892 578 886 q 507 899 535 899 q 463 886 482 899 q 431 851 443 874 q 413 800 419 829 l 225 -82 q 179 -208 211 -151 q 92 -299 147 -265 q -49 -333 38 -333 z "},"ƒ":{"ha":685,"x_min":-119,"x_max":836,"o":"m 118 -336 q -4 -312 50 -336 q -89 -240 -58 -287 q -119 -126 -119 -193 q -107 -47 -119 -82 q -79 15 -94 -11 l 79 -37 q 65 -77 69 -56 q 60 -115 60 -99 q 66 -151 60 -136 q 86 -175 72 -167 q 119 -183 100 -183 q 170 -157 147 -183 q 206 -72 193 -131 l 351 603 l 240 603 l 261 701 l 385 758 l 397 815 q 437 932 413 885 q 496 1008 461 979 q 576 1049 531 1036 q 676 1063 621 1063 q 763 1053 724 1063 q 836 1029 803 1044 l 782 878 q 741 892 763 886 q 692 899 719 899 q 629 872 653 899 q 597 800 606 844 l 589 758 l 738 758 l 704 603 l 556 603 l 406 -81 q 313 -265 381 -194 q 118 -336 246 -336 z "},"Ǻ":{"ha":872,"x_min":-83,"x_max":896,"o":"m 413 913 q 400 949 404 929 q 396 990 396 968 q 442 1108 396 1065 q 564 1151 489 1151 q 686 1108 636 1151 q 736 992 736 1065 q 722 922 736 953 q 683 869 707 890 l 789 0 l 588 0 l 567 224 l 249 224 l 133 0 l -83 0 l 413 913 m 338 400 l 557 400 l 539 610 q 534 684 538 633 q 529 779 531 735 l 521 779 q 487 697 506 738 q 456 632 468 656 l 338 400 m 564 925 q 610 942 592 925 q 629 990 629 960 q 610 1038 629 1021 q 564 1056 592 1056 q 517 1038 536 1056 q 499 990 499 1021 q 515 942 499 960 q 564 925 532 925 m 521 1199 q 569 1240 543 1217 q 621 1287 596 1263 q 664 1331 646 1311 l 896 1331 l 896 1324 q 826 1274 868 1300 q 742 1226 785 1249 q 667 1189 700 1204 l 521 1189 l 521 1199 z "},"ǻ":{"ha":825,"x_min":61,"x_max":836,"o":"m 275 -14 q 172 13 221 -14 q 92 101 122 40 q 61 261 61 161 q 77 408 61 335 q 123 547 93 482 q 196 663 153 613 q 294 743 239 714 q 413 772 349 772 q 497 758 461 772 q 558 719 532 744 q 600 661 583 694 l 606 661 l 644 758 l 801 758 l 640 0 l 488 0 l 497 99 l 492 99 q 433 40 465 65 q 363 1 401 15 q 275 -14 324 -14 m 356 151 q 433 185 397 151 q 495 271 469 218 q 532 382 521 324 q 540 437 538 410 q 542 496 542 464 q 517 576 542 544 q 447 607 492 607 q 390 588 417 607 q 341 535 364 568 q 302 458 318 501 q 277 367 286 415 q 268 271 268 319 q 291 181 268 211 q 356 151 314 151 m 503 813 q 381 856 428 813 q 335 974 335 899 q 381 1092 335 1049 q 503 1135 428 1135 q 625 1092 575 1135 q 675 975 675 1049 q 626 856 675 899 q 503 813 576 813 m 503 908 q 549 926 531 908 q 568 974 568 943 q 549 1022 568 1004 q 503 1039 531 1039 q 456 1022 475 1039 q 438 974 438 1004 q 454 926 438 943 q 503 908 471 908 m 461 1199 q 510 1240 483 1217 q 561 1287 536 1263 q 604 1331 586 1311 l 836 1331 l 836 1324 q 767 1274 808 1300 q 683 1226 725 1249 q 607 1189 640 1204 l 461 1189 l 461 1199 z "},"Ǽ":{"ha":1243,"x_min":-83,"x_max":1290,"o":"m -83 0 l 542 992 l 1290 992 l 1254 819 l 907 819 l 861 601 l 1185 601 l 1147 429 l 824 429 l 769 174 l 1117 174 l 1081 0 l 526 0 l 576 236 l 288 236 l 139 0 l -83 0 m 399 413 l 614 413 l 700 819 l 646 819 l 399 413 m 658 1092 q 708 1153 682 1118 q 761 1227 735 1189 q 808 1297 788 1265 l 1036 1297 l 1036 1286 q 992 1240 1021 1268 q 929 1181 964 1211 q 860 1122 894 1150 q 800 1075 826 1094 l 658 1075 l 658 1092 z "},"ǽ":{"ha":1211,"x_min":61,"x_max":1176,"o":"m 271 -14 q 161 17 208 -14 q 88 110 114 49 q 61 261 61 172 q 78 415 61 340 q 125 555 94 490 q 198 669 156 619 q 294 745 240 718 q 408 772 347 772 q 488 760 456 772 q 546 722 521 747 q 592 661 571 697 l 599 661 l 638 758 l 765 758 l 753 697 q 838 753 785 733 q 949 772 892 772 q 1117 714 1058 772 q 1176 565 1176 656 q 1149 457 1176 506 q 1069 374 1122 408 q 933 320 1015 339 q 740 301 851 301 l 706 301 q 704 288 704 293 q 704 275 704 282 q 736 181 704 221 q 850 140 768 140 q 959 158 901 140 q 1063 199 1017 175 l 1063 44 q 947 3 1010 19 q 818 -14 885 -14 q 697 5 744 -14 q 617 64 649 24 l 606 0 l 478 0 l 488 99 l 481 99 q 424 40 454 65 q 356 1 393 15 q 271 -14 319 -14 m 351 151 q 407 167 381 151 q 455 212 433 183 q 493 278 476 240 q 519 360 510 317 q 531 423 526 390 q 535 488 535 456 q 513 574 535 542 q 443 607 490 607 q 385 588 413 607 q 337 535 358 568 q 300 458 315 501 q 276 367 285 415 q 268 271 268 319 q 293 179 268 207 q 351 151 318 151 m 758 439 q 886 456 838 439 q 958 501 935 472 q 981 561 981 529 q 962 609 981 593 q 910 625 943 625 q 835 601 872 625 q 769 536 797 578 q 728 439 740 494 l 758 439 m 592 858 q 642 920 615 885 q 694 994 668 956 q 742 1064 721 1032 l 969 1064 l 969 1053 q 926 1006 954 1035 q 863 947 897 978 q 794 889 828 917 q 733 842 760 861 l 592 842 l 592 858 z "},"Ǿ":{"ha":1014,"x_min":68,"x_max":989,"o":"m 172 -58 l 68 19 l 150 122 q 100 231 117 169 q 83 364 83 292 q 97 519 83 442 q 140 668 111 596 q 210 801 168 740 q 311 909 253 863 q 444 981 369 956 q 608 1007 518 1007 q 723 994 671 1007 q 815 956 775 981 l 886 1044 l 989 965 l 910 867 q 956 762 942 819 q 971 636 971 704 q 958 476 971 556 q 917 324 944 397 q 847 190 889 251 q 747 83 804 128 q 615 12 689 38 q 451 -14 542 -14 q 339 -1 390 -14 q 246 35 288 11 l 172 -58 m 469 158 q 550 174 511 158 q 622 217 589 189 q 681 288 654 246 q 728 382 708 329 q 758 497 747 435 q 768 631 768 560 q 767 658 768 642 q 765 685 767 674 l 365 183 q 412 165 385 172 q 469 158 439 158 m 697 807 q 651 828 678 819 q 590 836 624 836 q 504 819 544 836 q 431 770 464 801 q 370 695 397 739 q 325 599 343 651 q 297 487 307 546 q 288 364 288 428 q 290 331 288 349 q 293 296 292 314 l 697 807 m 544 1088 q 594 1149 568 1114 q 647 1223 621 1185 q 694 1293 674 1261 l 922 1293 l 922 1282 q 878 1235 907 1264 q 815 1176 850 1207 q 747 1118 781 1146 q 686 1071 713 1090 l 544 1071 l 544 1088 z "},"ǿ":{"ha":813,"x_min":29,"x_max":788,"o":"m 125 -69 l 29 4 l 110 104 q 74 183 86 140 q 61 278 61 226 q 77 432 61 358 q 125 567 93 506 q 206 675 157 629 q 319 747 254 721 q 464 772 383 772 q 547 763 508 772 q 618 735 586 754 l 665 794 l 764 719 l 707 649 q 740 569 729 614 q 751 472 751 525 q 736 324 751 396 q 690 190 721 251 q 611 83 658 129 q 499 12 564 38 q 351 -14 433 -14 q 269 -4 308 -14 q 199 22 231 6 l 125 -69 m 368 146 q 435 165 406 146 q 485 214 464 183 q 519 283 506 244 q 541 360 533 321 q 551 435 549 400 q 553 449 553 442 q 553 463 553 457 l 310 161 q 333 151 317 156 q 368 146 350 146 m 508 596 q 483 608 500 603 q 449 613 467 613 q 378 594 408 613 q 328 546 349 576 q 293 478 307 515 q 272 400 279 440 q 263 322 265 360 q 261 306 261 314 q 261 289 261 297 l 508 596 m 410 858 q 460 920 433 885 q 513 994 486 956 q 560 1064 539 1032 l 788 1064 l 788 1053 q 744 1006 772 1035 q 681 947 715 978 q 612 889 646 917 q 551 842 578 861 l 410 842 l 410 858 z "},"Ș":{"ha":736,"x_min":28,"x_max":753,"o":"m 269 -14 q 133 3 194 -14 q 28 47 71 19 l 28 233 q 149 179 89 199 q 271 160 208 160 q 335 166 306 160 q 385 186 364 172 q 419 220 407 200 q 432 268 432 240 q 417 333 432 307 q 375 382 401 360 q 313 429 349 404 q 232 497 271 460 q 168 585 193 535 q 143 704 143 636 q 167 826 143 771 q 235 921 190 881 q 343 983 281 961 q 483 1006 406 1006 q 626 989 561 1006 q 753 939 692 972 l 679 781 q 578 818 626 806 q 483 831 531 831 q 433 823 456 831 q 392 801 410 815 q 365 765 375 786 q 356 719 356 744 q 370 660 356 685 q 412 613 385 635 q 478 565 439 592 q 569 488 533 529 q 624 399 606 447 q 642 293 642 351 q 613 158 642 215 q 532 62 583 100 q 413 5 481 24 q 269 -14 346 -14 m 100 -289 q 130 -225 114 -261 q 160 -151 146 -189 q 185 -85 175 -114 l 376 -85 l 376 -99 q 335 -165 360 -129 q 282 -236 311 -200 q 222 -307 253 -272 l 100 -307 l 100 -289 z "},"ș":{"ha":657,"x_min":15,"x_max":629,"o":"m 243 -14 q 117 -3 171 -14 q 15 31 63 7 l 15 199 q 121 153 67 169 q 232 138 175 138 q 292 147 264 138 q 338 174 321 156 q 356 219 356 192 q 347 253 356 239 q 313 286 338 268 q 242 331 289 304 q 162 385 194 357 q 112 448 129 413 q 94 531 94 483 q 129 663 94 610 q 228 744 164 717 q 383 772 293 772 q 510 758 449 772 q 629 708 571 743 l 563 563 q 477 603 522 586 q 388 619 432 619 q 328 603 354 619 q 301 556 301 588 q 311 523 301 538 q 343 494 321 508 q 404 458 365 479 q 486 406 450 435 q 542 340 522 378 q 563 250 563 301 q 523 105 563 164 q 412 16 483 46 q 243 -14 340 -14 m 69 -289 q 99 -225 83 -261 q 130 -151 115 -189 q 154 -85 144 -114 l 346 -85 l 346 -99 q 305 -165 329 -129 q 251 -236 281 -200 q 192 -307 222 -272 l 69 -307 l 69 -289 z "},"ˆ":{"ha":663,"x_min":157,"x_max":706,"o":"m 157 858 q 222 921 185 885 q 297 995 260 957 q 357 1064 333 1033 l 586 1064 q 621 994 600 1032 q 665 922 642 957 q 706 858 688 886 l 706 842 l 571 842 q 536 875 556 856 q 497 915 517 894 q 461 956 478 936 q 383 895 421 922 q 304 842 344 868 l 157 842 l 157 858 z "},"ˇ":{"ha":664,"x_min":201,"x_max":750,"o":"m 321 842 q 286 912 307 875 q 243 985 265 949 q 201 1047 221 1021 l 201 1064 l 336 1064 q 372 1031 353 1050 q 411 990 392 1011 q 446 950 431 969 q 524 1010 486 983 q 603 1064 563 1038 l 750 1064 l 750 1047 q 685 985 722 1022 q 611 910 647 949 q 550 842 575 872 l 321 842 z "},"ˉ":{"ha":531,"x_min":154,"x_max":604,"o":"m 154 842 l 185 985 l 604 985 l 574 842 l 154 842 z "},"˘":{"ha":594,"x_min":199,"x_max":685,"o":"m 418 842 q 289 869 338 842 q 219 938 240 896 q 199 1026 199 981 q 200 1051 199 1042 q 203 1071 201 1061 l 321 1071 q 332 1023 321 1042 q 366 995 343 1004 q 425 986 389 986 q 512 1005 478 986 q 557 1071 546 1024 l 685 1071 q 602 901 667 961 q 418 842 538 842 z "},"˙":{"ha":336,"x_min":178,"x_max":403,"o":"m 281 853 q 208 872 238 853 q 178 936 178 890 q 210 1025 178 994 q 301 1056 243 1056 q 352 1048 329 1056 q 389 1022 375 1040 q 403 974 403 1004 q 373 886 403 919 q 281 853 343 853 z "},"˚":{"ha":460,"x_min":192,"x_max":532,"o":"m 360 840 q 238 883 285 840 q 192 1001 192 926 q 238 1119 192 1076 q 360 1163 285 1163 q 482 1119 432 1163 q 532 1003 532 1076 q 483 883 532 926 q 360 840 433 840 m 360 936 q 406 953 388 936 q 425 1001 425 971 q 406 1049 425 1032 q 360 1067 388 1067 q 313 1049 332 1067 q 294 1001 294 1032 q 311 953 294 971 q 360 936 328 936 z "},"˛":{"ha":400,"x_min":-64,"x_max":217,"o":"m 86 -333 q -24 -297 17 -333 q -64 -201 -64 -261 q -45 -121 -64 -156 q 6 -56 -26 -86 q 82 0 39 -26 l 217 0 q 155 -53 185 -26 q 106 -108 125 -79 q 88 -169 88 -136 q 99 -199 88 -187 q 128 -210 110 -210 q 163 -206 147 -210 q 197 -197 179 -203 l 197 -317 q 146 -328 172 -324 q 86 -333 119 -333 z "},"˜":{"ha":635,"x_min":154,"x_max":722,"o":"m 154 840 q 195 960 168 914 q 260 1028 222 1006 q 344 1050 297 1050 q 404 1040 378 1050 q 452 1015 431 1029 q 494 990 474 1000 q 535 979 514 979 q 575 997 558 979 q 606 1051 592 1014 l 722 1051 q 679 931 707 978 q 614 863 651 885 q 528 842 576 842 q 469 852 494 842 q 422 877 443 863 q 380 902 400 892 q 338 913 360 913 q 300 894 317 913 q 274 840 283 875 l 154 840 z "},"˝":{"ha":703,"x_min":157,"x_max":790,"o":"m 426 858 q 478 920 450 885 q 534 994 506 956 q 583 1064 563 1032 l 790 1064 l 790 1053 q 746 1006 775 1035 q 681 947 717 978 q 609 889 644 917 q 547 842 574 861 l 426 842 l 426 858 m 157 858 q 208 920 181 885 q 265 994 236 956 q 314 1064 293 1032 l 521 1064 l 521 1053 q 476 1006 506 1035 q 411 947 447 978 q 340 889 375 917 q 278 842 304 861 l 157 842 l 157 858 z "},"΄":{"ha":408,"x_min":154,"x_max":501,"o":"m 154 842 l 158 860 l 269 1078 l 501 1078 l 499 1064 l 293 842 l 154 842 z "},"΅":{"ha":1042,"x_min":272,"x_max":1013,"o":"m 493 842 l 497 860 l 594 1078 l 826 1078 l 824 1064 l 632 842 l 493 842 m 357 863 q 295 885 318 863 q 282 953 272 907 q 325 1023 293 1001 q 396 1044 357 1044 q 459 1023 435 1044 q 472 953 483 1001 q 429 885 463 907 q 357 863 396 863 m 886 863 q 823 885 846 863 q 810 953 800 907 q 853 1023 821 1001 q 925 1044 885 1044 q 988 1023 964 1044 q 1001 953 1013 1001 q 958 885 992 907 q 886 863 925 863 z "},"Ά":{"ha":1025,"x_min":69,"x_max":942,"o":"m 69 0 l 589 992 l 842 992 l 942 0 l 740 0 l 724 236 l 403 236 l 286 0 l 69 0 m 488 413 l 714 413 l 696 668 q 690 750 693 708 q 689 835 688 792 l 686 835 q 656 760 672 797 q 618 681 639 724 l 488 413 m 124 756 l 128 774 l 239 992 l 471 992 l 468 978 l 263 756 l 124 756 z "},"·":{"ha":396,"x_min":124,"x_max":364,"o":"m 229 540 q 147 570 171 540 q 124 636 124 600 q 155 728 124 686 q 263 771 186 771 q 336 745 308 771 q 364 672 364 719 q 327 578 364 615 q 229 540 290 540 z "},"Έ":{"ha":1061,"x_min":94,"x_max":1108,"o":"m 344 0 l 554 992 l 1108 992 l 1072 819 l 725 819 l 679 601 l 1003 601 l 965 429 l 642 429 l 588 174 l 935 174 l 899 0 l 344 0 m 94 756 l 99 774 l 210 992 l 442 992 l 439 978 l 233 756 l 94 756 z "},"Ή":{"ha":1281,"x_min":94,"x_max":1288,"o":"m 344 0 l 554 992 l 761 992 l 679 603 l 999 603 l 1081 992 l 1288 992 l 1078 0 l 871 0 l 961 428 l 642 428 l 551 0 l 344 0 m 94 756 l 99 774 l 210 992 l 442 992 l 439 978 l 233 756 l 94 756 z "},"Ί":{"ha":868,"x_min":94,"x_max":944,"o":"m 296 0 l 321 119 l 447 175 l 583 817 l 481 872 l 506 992 l 944 992 l 919 872 l 790 817 l 654 175 l 760 119 l 735 0 l 296 0 m 94 756 l 99 774 l 210 992 l 442 992 l 439 978 l 233 756 l 94 756 z "},"Ό":{"ha":1253,"x_min":94,"x_max":1210,"o":"m 690 -14 q 488 33 569 -14 q 364 165 406 81 q 322 364 322 250 q 336 519 322 442 q 378 668 350 596 q 449 801 407 740 q 550 909 492 863 q 683 981 608 956 q 847 1007 757 1007 q 1119 906 1028 1007 q 1210 636 1210 804 q 1197 476 1210 556 q 1156 324 1183 397 q 1085 190 1128 251 q 985 83 1043 128 q 854 12 928 38 q 690 -14 781 -14 m 706 163 q 783 177 746 163 q 853 220 821 192 q 913 290 886 249 q 958 383 939 331 q 988 497 978 435 q 999 631 999 560 q 956 777 999 722 q 831 832 914 832 q 749 815 788 832 q 677 767 710 799 q 617 693 644 736 q 572 598 590 650 q 543 487 553 546 q 533 364 533 428 q 553 253 533 299 q 613 185 574 208 q 706 163 651 163 m 94 756 l 99 774 l 210 992 l 442 992 l 439 978 l 233 756 l 94 756 z "},"Ύ":{"ha":1151,"x_min":94,"x_max":1279,"o":"m 574 0 l 654 379 l 494 992 l 706 992 l 793 590 l 1047 992 l 1279 992 l 860 379 l 779 0 l 574 0 m 94 756 l 99 774 l 210 992 l 442 992 l 439 978 l 233 756 l 94 756 z "},"Ώ":{"ha":1314,"x_min":94,"x_max":1281,"o":"m 265 0 l 303 176 l 506 176 q 422 274 453 217 q 384 405 392 332 q 388 564 376 478 q 469 790 406 690 q 638 949 532 890 q 888 1007 743 1007 q 1122 949 1033 1007 q 1246 790 1211 890 q 1263 563 1281 689 q 1220 404 1251 476 q 1139 274 1189 332 q 1017 176 1089 217 l 1222 176 l 1185 0 l 797 0 l 838 189 q 958 281 915 225 q 1020 403 1000 338 q 1049 535 1040 469 q 1047 694 1063 628 q 987 797 1032 761 q 863 833 942 833 q 728 797 783 833 q 640 694 672 761 q 593 533 607 626 q 587 403 585 468 q 613 282 589 338 q 690 189 636 226 l 650 0 l 265 0 m 94 756 l 99 774 l 210 992 l 442 992 l 439 978 l 233 756 l 94 756 z "},"ΐ":{"ha":565,"x_min":43,"x_max":783,"o":"m 282 -14 q 152 10 201 -14 q 81 75 103 33 q 58 168 58 117 q 60 202 58 185 q 67 238 63 219 l 178 758 l 385 758 l 281 268 q 276 245 278 256 q 275 225 275 235 q 298 167 275 182 q 356 153 321 153 q 406 156 383 153 q 456 165 429 160 l 421 3 q 356 -9 394 -4 q 282 -14 318 -14 m 264 842 l 268 860 l 365 1078 l 597 1078 l 594 1064 l 403 842 l 264 842 m 128 863 q 66 885 89 863 q 53 953 43 907 q 96 1023 64 1001 q 167 1044 128 1044 q 230 1023 206 1044 q 243 953 254 1001 q 200 885 233 907 q 128 863 167 863 m 657 863 q 594 885 617 863 q 581 953 571 907 q 624 1023 592 1001 q 696 1044 656 1044 q 759 1023 735 1044 q 772 953 783 1001 q 729 885 763 907 q 657 863 696 863 z "},"Α":{"ha":872,"x_min":-83,"x_max":789,"o":"m -83 0 l 436 992 l 689 992 l 789 0 l 588 0 l 571 236 l 250 236 l 133 0 l -83 0 m 335 413 l 561 413 l 543 668 q 538 750 540 708 q 536 835 535 792 l 533 835 q 503 760 519 797 q 465 681 486 724 l 335 413 z "},"Β":{"ha":861,"x_min":36,"x_max":849,"o":"m 36 0 l 246 992 l 535 992 q 700 969 629 992 q 810 899 771 947 q 849 771 849 850 q 823 651 849 703 q 749 566 797 600 q 632 517 701 532 l 632 511 q 740 445 700 493 q 781 324 781 397 q 729 140 781 211 q 590 34 678 68 q 390 0 501 0 l 36 0 m 401 174 q 490 190 453 174 q 549 240 528 207 q 571 322 571 274 q 540 403 571 375 q 447 432 510 432 l 335 432 l 279 174 l 401 174 m 471 599 q 558 612 521 599 q 615 653 594 625 q 635 726 635 682 q 606 796 635 772 q 519 819 578 819 l 417 819 l 369 599 l 471 599 z "},"Γ":{"ha":738,"x_min":36,"x_max":797,"o":"m 36 0 l 246 992 l 797 992 l 761 819 l 414 819 l 240 0 l 36 0 z "},"Ε":{"ha":753,"x_min":36,"x_max":800,"o":"m 36 0 l 246 992 l 800 992 l 764 819 l 417 819 l 371 601 l 694 601 l 657 429 l 333 429 l 279 174 l 626 174 l 590 0 l 36 0 z "},"Ζ":{"ha":744,"x_min":-42,"x_max":814,"o":"m -42 0 l -15 136 l 511 818 l 143 818 l 179 992 l 814 992 l 786 854 l 256 174 l 660 174 l 624 0 l -42 0 z "},"Η":{"ha":972,"x_min":36,"x_max":979,"o":"m 36 0 l 246 992 l 453 992 l 371 603 l 690 603 l 772 992 l 979 992 l 769 0 l 563 0 l 653 428 l 333 428 l 243 0 l 36 0 z "},"Θ":{"ha":1014,"x_min":83,"x_max":971,"o":"m 361 418 l 397 590 l 694 590 l 658 418 l 361 418 m 451 -14 q 249 33 331 -14 q 125 165 167 81 q 83 364 83 250 q 97 519 83 442 q 140 668 111 596 q 210 801 168 740 q 311 909 253 863 q 444 981 369 956 q 608 1007 518 1007 q 880 906 789 1007 q 971 636 971 804 q 958 476 971 556 q 917 324 944 397 q 847 190 889 251 q 747 83 804 128 q 615 12 689 38 q 451 -14 542 -14 m 467 163 q 544 177 507 163 q 615 220 582 192 q 674 290 647 249 q 719 383 700 331 q 749 497 739 435 q 760 631 760 560 q 717 777 760 722 q 592 832 675 832 q 510 815 549 832 q 438 767 471 799 q 378 693 406 736 q 333 598 351 650 q 304 487 314 546 q 294 364 294 428 q 315 253 294 299 q 374 185 335 208 q 467 163 413 163 z "},"Ι":{"ha":532,"x_min":-40,"x_max":608,"o":"m -40 0 l -15 119 l 111 175 l 247 817 l 144 872 l 169 992 l 608 992 l 583 872 l 454 817 l 318 175 l 424 119 l 399 0 l -40 0 z "},"Κ":{"ha":851,"x_min":36,"x_max":979,"o":"m 36 0 l 246 992 l 453 992 l 349 513 l 454 654 l 735 992 l 979 992 l 576 517 l 774 0 l 544 0 l 401 401 l 317 354 l 243 0 l 36 0 z "},"Λ":{"ha":833,"x_min":-83,"x_max":750,"o":"m -83 0 l 424 996 l 656 996 l 750 0 l 550 0 l 510 567 q 505 675 507 610 q 504 796 503 740 l 501 796 q 463 686 486 743 q 424 597 439 629 l 133 0 l -83 0 z "},"Μ":{"ha":1222,"x_min":36,"x_max":1229,"o":"m 36 0 l 246 992 l 519 992 l 564 250 l 569 250 l 942 992 l 1229 992 l 1019 0 l 829 0 l 928 469 q 951 570 938 517 q 977 676 964 624 q 1001 768 990 728 l 996 768 l 610 0 l 419 0 l 378 768 l 372 768 q 361 688 369 739 q 342 578 353 638 q 319 461 332 518 l 222 0 l 36 0 z "},"Ν":{"ha":1049,"x_min":36,"x_max":1056,"o":"m 36 0 l 246 992 l 488 992 l 718 261 l 724 261 q 736 337 729 290 q 752 433 743 383 q 769 522 761 483 l 869 992 l 1056 992 l 846 0 l 614 0 l 372 750 l 365 750 q 360 710 364 742 q 349 636 356 679 q 335 548 343 593 q 321 467 328 503 l 222 0 l 36 0 z "},"Ξ":{"ha":778,"x_min":4,"x_max":799,"o":"m 4 0 l 39 174 l 651 174 l 615 0 l 4 0 m 174 429 l 211 601 l 664 601 l 626 429 l 174 429 m 204 819 l 240 992 l 799 992 l 763 819 l 204 819 z "},"Ο":{"ha":1014,"x_min":83,"x_max":971,"o":"m 451 -14 q 249 33 331 -14 q 125 165 167 81 q 83 364 83 250 q 97 519 83 442 q 140 668 111 596 q 210 801 168 740 q 311 909 253 863 q 444 981 369 956 q 608 1007 518 1007 q 880 906 789 1007 q 971 636 971 804 q 958 476 971 556 q 917 324 944 397 q 847 190 889 251 q 747 83 804 128 q 615 12 689 38 q 451 -14 542 -14 m 467 163 q 544 177 507 163 q 615 220 582 192 q 674 290 647 249 q 719 383 700 331 q 749 497 739 435 q 760 631 760 560 q 717 777 760 722 q 592 832 675 832 q 510 815 549 832 q 438 767 471 799 q 378 693 406 736 q 333 598 351 650 q 304 487 314 546 q 294 364 294 428 q 315 253 294 299 q 374 185 335 208 q 467 163 413 163 z "},"Π":{"ha":965,"x_min":36,"x_max":972,"o":"m 36 0 l 246 992 l 972 992 l 763 0 l 556 0 l 729 817 l 417 817 l 243 0 l 36 0 z "},"Ρ":{"ha":847,"x_min":36,"x_max":854,"o":"m 36 0 l 246 992 l 522 992 q 716 956 643 992 q 822 854 789 919 q 854 703 854 789 q 822 549 854 614 q 731 440 789 483 q 593 374 672 396 q 422 353 514 353 l 317 353 l 243 0 l 36 0 m 439 525 q 548 545 501 525 q 620 604 594 565 q 646 697 646 643 q 613 790 646 760 q 514 819 579 819 l 417 819 l 354 525 l 439 525 z "},"Σ":{"ha":744,"x_min":-42,"x_max":814,"o":"m -42 0 l -10 165 l 310 519 l 175 836 l 207 992 l 814 992 l 779 819 l 529 819 q 486 820 511 819 q 435 822 461 821 q 383 826 408 824 l 506 540 l 497 499 l 213 165 q 303 172 261 169 q 393 174 346 174 l 660 174 l 624 0 l -42 0 z "},"Τ":{"ha":738,"x_min":114,"x_max":836,"o":"m 181 0 l 353 817 l 114 817 l 151 992 l 836 992 l 799 817 l 560 817 l 388 0 l 181 0 z "},"Υ":{"ha":783,"x_min":126,"x_max":911,"o":"m 206 0 l 286 379 l 126 992 l 338 992 l 425 590 l 679 992 l 911 992 l 492 379 l 411 0 l 206 0 z "},"Φ":{"ha":1217,"x_min":75,"x_max":1189,"o":"m 426 -14 l 456 125 q 253 169 331 133 q 135 260 175 204 q 85 383 94 315 q 85 522 75 450 q 125 650 93 585 q 219 770 157 715 q 379 860 281 825 q 619 897 478 894 l 643 1006 l 832 1006 l 808 897 q 1011 853 933 889 q 1129 762 1089 817 q 1179 640 1169 707 q 1179 500 1189 572 q 1139 372 1171 438 q 1045 252 1107 307 q 885 163 983 197 q 644 125 786 128 l 615 -14 l 426 -14 m 490 289 l 586 735 q 423 704 488 732 q 325 630 358 676 q 282 521 292 583 q 280 438 276 478 q 303 365 283 397 q 369 313 324 333 q 490 289 414 292 m 679 288 q 842 319 778 292 q 940 392 906 346 q 982 501 974 439 q 984 585 988 544 q 960 657 981 625 q 896 710 940 689 q 774 733 851 731 l 679 288 z "},"Χ":{"ha":842,"x_min":-79,"x_max":950,"o":"m -79 0 l 311 518 l 150 992 l 367 992 l 471 640 l 717 992 l 950 992 l 581 500 l 763 0 l 538 0 l 421 368 l 153 0 l -79 0 z "},"Ψ":{"ha":1217,"x_min":149,"x_max":1229,"o":"m 424 0 l 478 254 q 308 283 376 254 q 203 363 240 311 q 157 488 165 415 q 167 650 149 561 l 239 992 l 436 992 l 361 639 q 358 513 344 558 q 413 449 372 467 q 515 431 454 431 l 635 992 l 832 992 l 713 431 q 816 448 767 431 q 902 510 865 465 q 956 636 939 556 l 1032 992 l 1229 992 l 1157 653 q 1103 489 1138 563 q 1013 363 1069 415 q 874 282 957 310 q 675 254 792 254 l 621 0 l 424 0 z "},"Ϊ":{"ha":532,"x_min":-40,"x_max":644,"o":"m -40 0 l -15 119 l 111 175 l 247 817 l 144 872 l 169 992 l 608 992 l 583 872 l 454 817 l 318 175 l 424 119 l 399 0 l -40 0 m 543 1096 q 481 1113 506 1096 q 457 1171 457 1129 q 484 1251 457 1224 q 560 1278 511 1278 q 619 1262 594 1278 q 644 1204 644 1246 q 620 1126 644 1156 q 543 1096 596 1096 m 283 1096 q 222 1113 246 1096 q 197 1171 197 1129 q 224 1251 197 1224 q 300 1278 251 1278 q 342 1271 324 1278 q 373 1248 361 1264 q 385 1204 385 1232 q 360 1126 385 1156 q 283 1096 336 1096 z "},"Ϋ":{"ha":783,"x_min":126,"x_max":911,"o":"m 206 0 l 286 379 l 126 992 l 338 992 l 425 590 l 679 992 l 911 992 l 492 379 l 411 0 l 206 0 m 664 1096 q 602 1113 626 1096 q 578 1171 578 1129 q 605 1251 578 1224 q 681 1278 632 1278 q 740 1262 715 1278 q 765 1204 765 1246 q 741 1126 765 1156 q 664 1096 717 1096 m 404 1096 q 342 1113 367 1096 q 318 1171 318 1129 q 345 1251 318 1224 q 421 1278 372 1278 q 463 1271 444 1278 q 494 1248 482 1264 q 506 1204 506 1232 q 481 1126 506 1156 q 404 1096 457 1096 z "},"ά":{"ha":849,"x_min":56,"x_max":796,"o":"m 264 -14 q 115 53 175 -14 q 56 261 56 119 q 72 415 56 340 q 120 554 89 489 q 194 668 151 619 q 292 744 238 717 q 410 772 347 772 q 488 758 453 772 q 550 719 524 744 q 594 660 576 693 l 600 660 l 640 758 l 796 758 l 686 240 q 683 223 685 231 q 682 208 682 215 q 693 172 682 185 q 726 160 704 160 q 749 162 738 160 q 768 167 760 164 l 733 4 q 706 -4 724 0 q 670 -11 689 -8 q 636 -14 651 -14 q 558 -3 594 -14 q 499 32 522 7 q 468 103 475 57 l 463 103 q 419 54 444 82 q 357 6 394 26 q 264 -14 319 -14 m 354 151 q 422 174 392 151 q 475 237 453 197 q 511 326 497 276 q 529 405 522 363 q 536 483 536 447 q 514 572 536 538 q 443 607 492 607 q 383 587 411 607 q 333 533 356 567 q 295 456 311 499 q 271 369 279 414 q 263 281 263 324 q 285 183 263 214 q 354 151 308 151 m 376 842 l 381 860 l 492 1078 l 724 1078 l 721 1064 l 515 842 l 376 842 z "},"έ":{"ha":631,"x_min":35,"x_max":724,"o":"m 303 -14 q 163 9 224 -14 q 69 76 103 32 q 35 186 35 121 q 89 326 35 279 q 232 390 143 374 l 232 396 q 162 451 192 414 q 132 547 132 489 q 172 680 132 631 q 276 751 211 729 q 414 772 340 772 q 551 757 492 772 q 657 714 610 742 l 601 564 q 515 603 558 588 q 418 619 472 619 q 361 610 385 619 q 325 583 338 601 q 313 535 313 565 q 340 478 313 496 q 417 461 368 461 l 496 461 l 465 313 l 379 313 q 309 303 340 313 q 260 274 278 293 q 242 225 242 254 q 267 167 242 188 q 332 146 292 146 q 454 165 404 146 q 544 207 504 183 l 544 40 q 442 1 500 15 q 303 -14 383 -14 m 376 842 l 381 860 l 492 1078 l 724 1078 l 721 1064 l 515 842 l 376 842 z "},"ή":{"ha":840,"x_min":25,"x_max":818,"o":"m 551 443 q 560 487 557 467 q 563 524 563 507 q 544 587 563 567 q 490 607 526 607 q 424 584 454 607 q 370 521 394 561 q 327 428 346 481 q 296 314 308 375 l 229 0 l 25 0 l 186 758 l 342 758 l 328 618 l 332 618 q 381 680 356 651 q 436 729 407 708 q 499 761 465 750 q 572 772 533 772 q 681 745 638 772 q 747 669 725 718 q 768 554 768 621 q 764 498 768 529 q 753 432 760 467 l 593 -333 l 389 -333 l 551 443 m 471 842 l 475 860 l 586 1078 l 818 1078 l 815 1064 l 610 842 l 471 842 z "},"ί":{"ha":522,"x_min":58,"x_max":592,"o":"m 282 -14 q 152 10 201 -14 q 81 75 103 33 q 58 168 58 117 q 60 202 58 185 q 67 238 63 219 l 178 758 l 385 758 l 281 268 q 276 245 278 256 q 275 225 275 235 q 298 167 275 182 q 356 153 321 153 q 406 156 383 153 q 456 165 429 160 l 421 3 q 356 -9 394 -4 q 282 -14 318 -14 m 244 842 l 249 860 l 360 1078 l 592 1078 l 589 1064 l 383 842 l 244 842 z "},"ΰ":{"ha":843,"x_min":64,"x_max":961,"o":"m 338 -12 q 163 31 225 -12 q 82 148 100 74 q 83 313 64 222 l 178 758 l 382 758 l 285 299 q 285 189 269 225 q 360 153 301 153 q 491 208 436 153 q 571 378 546 263 q 585 465 579 418 q 594 562 590 511 q 597 663 597 613 q 593 758 597 713 l 797 758 q 803 643 803 713 q 797 501 803 574 q 778 369 790 429 q 692 160 751 244 q 543 31 632 75 q 338 -12 454 -12 m 442 842 l 446 860 l 543 1078 l 775 1078 l 772 1064 l 581 842 l 442 842 m 306 863 q 244 885 267 863 q 231 953 221 907 q 274 1023 242 1001 q 344 1044 306 1044 q 408 1023 383 1044 q 421 953 432 1001 q 378 885 411 907 q 306 863 344 863 m 835 863 q 772 885 794 863 q 758 953 749 907 q 801 1023 769 1001 q 874 1044 833 1044 q 937 1023 913 1044 q 950 953 961 1001 q 907 885 940 907 q 835 863 874 863 z "},"α":{"ha":849,"x_min":56,"x_max":796,"o":"m 264 -14 q 115 53 175 -14 q 56 261 56 119 q 72 415 56 340 q 120 554 89 489 q 194 668 151 619 q 292 744 238 717 q 410 772 347 772 q 488 758 453 772 q 550 719 524 744 q 594 660 576 693 l 600 660 l 640 758 l 796 758 l 686 240 q 683 223 685 231 q 682 208 682 215 q 693 172 682 185 q 726 160 704 160 q 749 162 738 160 q 768 167 760 164 l 733 4 q 706 -4 724 0 q 670 -11 689 -8 q 636 -14 651 -14 q 558 -3 594 -14 q 499 32 522 7 q 468 103 475 57 l 463 103 q 419 54 444 82 q 357 6 394 26 q 264 -14 319 -14 m 354 151 q 422 174 392 151 q 475 237 453 197 q 511 326 497 276 q 529 405 522 363 q 536 483 536 447 q 514 572 536 538 q 443 607 492 607 q 383 587 411 607 q 333 533 356 567 q 295 456 311 499 q 271 369 279 414 q 263 281 263 324 q 285 183 263 214 q 354 151 308 151 z "},"β":{"ha":847,"x_min":-44,"x_max":828,"o":"m -44 -333 l 176 715 q 249 917 203 842 q 367 1028 294 993 q 544 1063 439 1063 q 694 1036 631 1063 q 793 958 758 1010 q 828 833 828 907 q 800 696 828 754 q 720 601 772 638 q 596 553 668 565 q 728 481 678 539 q 778 331 778 424 q 763 223 778 282 q 711 110 749 164 q 607 21 674 56 q 436 -14 540 -14 q 315 3 363 -14 q 239 38 268 21 l 160 -333 l -44 -333 m 397 151 q 469 166 439 151 q 521 206 500 181 q 552 266 542 232 q 563 339 563 300 q 547 416 564 388 q 498 458 529 444 q 425 471 467 471 l 393 471 l 425 626 l 467 626 q 531 638 503 626 q 578 672 558 650 q 608 724 597 693 q 618 793 618 756 q 591 876 618 850 q 528 901 564 901 q 469 887 496 901 q 424 836 443 872 q 390 736 404 800 l 272 193 q 329 163 292 174 q 397 151 367 151 z "},"γ":{"ha":708,"x_min":67,"x_max":717,"o":"m 67 -292 l 140 60 l 69 758 l 268 758 l 286 338 q 288 288 288 317 q 290 231 289 258 q 292 183 290 203 l 297 183 q 401 336 358 253 q 470 523 443 419 q 511 758 497 626 l 717 758 q 660 485 701 611 q 541 244 619 358 q 333 14 463 129 l 269 -292 l 67 -292 z "},"δ":{"ha":806,"x_min":49,"x_max":846,"o":"m 346 -14 q 175 24 240 -14 q 79 124 110 63 q 49 253 49 185 q 85 431 49 351 q 190 565 122 510 q 354 644 258 621 q 289 722 310 682 q 268 821 268 763 q 308 956 268 903 q 417 1036 349 1010 q 569 1063 486 1063 q 722 1042 656 1063 q 846 986 788 1022 l 765 840 q 667 891 715 872 q 571 910 619 910 q 501 890 532 910 q 471 828 471 871 q 481 783 471 803 q 517 742 492 764 q 586 683 543 719 q 670 599 635 644 q 725 500 706 553 q 744 388 744 447 q 717 222 744 296 q 639 95 690 147 q 514 15 588 43 q 346 -14 440 -14 m 369 153 q 435 170 406 153 q 485 219 464 188 q 517 292 506 250 q 529 382 529 333 q 520 445 529 415 q 492 502 511 475 q 443 553 474 529 q 347 492 388 535 q 285 392 307 449 q 264 274 264 335 q 276 209 264 236 q 311 167 288 182 q 369 153 335 153 z "},"ε":{"ha":631,"x_min":35,"x_max":657,"o":"m 303 -14 q 163 9 224 -14 q 69 76 103 32 q 35 186 35 121 q 89 326 35 279 q 232 390 143 374 l 232 396 q 162 451 192 414 q 132 547 132 489 q 172 680 132 631 q 276 751 211 729 q 414 772 340 772 q 551 757 492 772 q 657 714 610 742 l 601 564 q 515 603 558 588 q 418 619 472 619 q 361 610 385 619 q 325 583 338 601 q 313 535 313 565 q 340 478 313 496 q 417 461 368 461 l 496 461 l 465 313 l 379 313 q 309 303 340 313 q 260 274 278 293 q 242 225 242 254 q 267 167 242 188 q 332 146 292 146 q 454 165 404 146 q 544 207 504 183 l 544 40 q 442 1 500 15 q 303 -14 383 -14 z "},"ζ":{"ha":613,"x_min":25,"x_max":761,"o":"m 271 -281 q 326 -189 310 -228 q 344 -119 342 -150 q 342 -76 347 -96 q 313 -38 336 -57 q 240 3 290 -19 q 115 80 164 36 q 45 183 65 124 q 36 319 25 242 q 78 454 46 390 q 157 577 110 518 q 260 691 204 636 q 374 797 317 746 l 501 911 q 452 904 482 907 q 393 901 422 901 q 346 900 364 900 l 149 900 l 182 1056 l 761 1056 l 732 925 l 506 700 q 366 553 419 614 q 286 443 313 493 q 251 340 260 393 q 254 267 246 301 q 296 203 263 233 q 397 146 329 174 q 497 88 460 121 q 548 12 535 56 q 553 -90 561 -32 q 535 -162 547 -131 q 505 -221 522 -193 q 467 -281 488 -249 l 271 -281 z "},"η":{"ha":840,"x_min":25,"x_max":768,"o":"m 551 443 q 560 487 557 467 q 563 524 563 507 q 544 587 563 567 q 490 607 526 607 q 424 584 454 607 q 370 521 394 561 q 327 428 346 481 q 296 314 308 375 l 229 0 l 25 0 l 186 758 l 342 758 l 328 618 l 332 618 q 381 680 356 651 q 436 729 407 708 q 499 761 465 750 q 572 772 533 772 q 681 745 638 772 q 747 669 725 718 q 768 554 768 621 q 764 498 768 529 q 753 432 760 467 l 593 -333 l 389 -333 l 551 443 z "}}}
